STARTFONT 2.1
COMMENT
COMMENT Converted from TrueType font "LucidaSansRegular.ttf" by "ttf2bdf 2.6".
COMMENT
FONT -FreeType-Lucida Sans-Medium-R-Normal--28-200-100-100-P-154-ISO10646-1
SIZE 20 100 100
FONTBOUNDINGBOX 63 53 -17 -20
STARTPROPERTIES 22
FOUNDRY "FreeType"
FAMILY_NAME "Lucida Sans"
WEIGHT_NAME "Medium"
SLANT "R"
SETWIDTH_NAME "Normal"
ADD_STYLE_NAME ""
PIXEL_SIZE 28
POINT_SIZE 200
RESOLUTION_X 100
RESOLUTION_Y 100
SPACING "P"
AVERAGE_WIDTH 154
CHARSET_REGISTRY "ISO10646"
CHARSET_ENCODING "1"
FONT_ASCENT 26
FONT_DESCENT 5
COPYRIGHT "Copyright (c) 1999 by Bigelow & Holmes Inc. Pat. Des. 289,420."
_TTF_FONTFILE "LucidaSansRegular.ttf"
_TTF_PSNAME "LucidaSans"
_XFREE86_GLYPH_RANGES "32_126 160_383 402 506_511 536_539 592_680 688_734 736_745 768_837 884_885 890 894 900_906 908 910_929 931_974 976_982 986 988 990 992 994_1011 1025_1036 1038_1103 1105_1116 1118_1158 1168_1220 1223_1224 1227_1228 1232_1259 1262_1269 1272_1273 1425_1441 1443_1465 1467_1476 1488_1514 1520_1524 1548 1563 1567 1569_1594 1600_1618 1632_1645 1648_1719 1722_1726 1728_1742 1744_1773 1776_1785 2305_2307 2309_2361 2364_2381 2384_2388 2392_2416 3585_3642 3647_3675 7808_7813 7922_7923 8192_8238"
_XFREE86_GLYPH_RANGES "8240_8262 8298_8304 8308_8334 8337 8352_8364 8448_8504 8531_8578 8592_8682 8704_8945 8962 8976 8992_8993 9312_9321 9472 9474 9484 9488 9492 9496 9500 9508 9516 9524 9532 9552_9580 9600 9604 9608 9612 9616_9619 9632_9633 9642_9644 9650 9658 9660 9668 9670 9674_9676 9679 9687_9689 9702 9733 9742 9755 9758 9786_9788 9792 9794 9824 9827 9829_9830 9834_9835 9985_9988 9990_9993 9996_10023 10025_10059 10061 10063_10066 10070 10072_10078 10081_10087 10102_10132 10136_10159 10161_10174"
_XFREE86_GLYPH_RANGES "61440_61442 62977_62981 62986_62998 63488_63495 63498_63499 63502_63505 63508_63509 63519_63520 63539 64256_64260 64286_64287 64297_64310 64312_64316 64318 64320_64321 64323_64324 64326_64334 64606_64610 65136_65138 65140 65142_65276 65279"
ENDPROPERTIES
CHARS 2388
STARTCHAR 0020
ENCODING 32
SWIDTH 288 0
DWIDTH 8 0
BBX 1 1 0 0
BITMAP
00
ENDCHAR
STARTCHAR 0021
ENCODING 33
SWIDTH 324 0
DWIDTH 9 0
BBX 3 20 3 0
BITMAP
E0
E0
E0
E0
E0
E0
E0
E0
E0
E0
E0
E0
E0
E0
00
00
00
E0
E0
E0
ENDCHAR
STARTCHAR 0022
ENCODING 34
SWIDTH 360 0
DWIDTH 10 0
BBX 8 7 1 15
BITMAP
E7
E7
E7
E7
E7
E7
E7
ENDCHAR
STARTCHAR 0023
ENCODING 35
SWIDTH 648 0
DWIDTH 18 0
BBX 17 20 0 0
BITMAP
00CC00
00CC00
019800
019800
019800
019800
7FFF80
7FFF80
033000
033000
066000
066000
FFFF00
FFFF00
0CC000
0CC000
0CC000
0CC000
198000
198000
ENDCHAR
STARTCHAR 0024
ENCODING 36
SWIDTH 648 0
DWIDTH 18 0
BBX 11 24 3 -2
BITMAP
0400
0400
1F80
7FE0
7420
C400
C400
C400
E400
7400
3C00
1E00
0F80
07C0
04E0
0460
0460
0460
04E0
C5C0
FF80
3F00
0400
0400
ENDCHAR
STARTCHAR 0025
ENCODING 37
SWIDTH 684 0
DWIDTH 19 0
BBX 18 20 0 0
BITMAP
3E00C0
7F0180
E30300
C18600
C18C00
C18C00
C19800
E3B000
7F6000
3EC000
00DF00
01BF80
037180
0660C0
0C60C0
0C60C0
1860C0
3071C0
603F80
C01F00
ENDCHAR
STARTCHAR 0026
ENCODING 38
SWIDTH 720 0
DWIDTH 20 0
BBX 17 20 1 0
BITMAP
03E000
07F000
0E3800
0E3800
0E3800
0E3800
077000
07E000
0FC000
3F8000
71C380
71C380
E0E380
E0F300
E07B00
F03F00
701E00
7C1E00
3FFF00
0FE780
ENDCHAR
STARTCHAR 0027
ENCODING 39
SWIDTH 216 0
DWIDTH 6 0
BBX 3 7 1 15
BITMAP
E0
E0
E0
E0
E0
E0
40
ENDCHAR
STARTCHAR 0028
ENCODING 40
SWIDTH 324 0
DWIDTH 9 0
BBX 6 26 1 -4
BITMAP
04
0C
1C
18
38
30
70
70
60
E0
E0
E0
E0
E0
E0
E0
E0
60
60
70
30
30
18
1C
0C
04
ENDCHAR
STARTCHAR 0029
ENCODING 41
SWIDTH 324 0
DWIDTH 9 0
BBX 6 26 2 -4
BITMAP
80
C0
E0
60
70
30
38
38
18
1C
1C
1C
1C
1C
1C
1C
1C
18
38
38
30
70
60
E0
C0
80
ENDCHAR
STARTCHAR 002A
ENCODING 42
SWIDTH 504 0
DWIDTH 14 0
BBX 10 10 2 10
BITMAP
0C00
0C00
0C00
CCC0
FFC0
3300
0000
1200
7380
2100
ENDCHAR
STARTCHAR 002B
ENCODING 43
SWIDTH 792 0
DWIDTH 22 0
BBX 16 16 3 0
BITMAP
0180
0180
0180
0180
0180
0180
0180
FFFF
FFFF
0180
0180
0180
0180
0180
0180
0180
ENDCHAR
STARTCHAR 002C
ENCODING 44
SWIDTH 324 0
DWIDTH 9 0
BBX 3 7 3 -4
BITMAP
E0
E0
E0
20
20
40
80
ENDCHAR
STARTCHAR 002D
ENCODING 45
SWIDTH 576 0
DWIDTH 16 0
BBX 12 2 2 7
BITMAP
FFF0
FFF0
ENDCHAR
STARTCHAR 002E
ENCODING 46
SWIDTH 324 0
DWIDTH 9 0
BBX 3 3 3 0
BITMAP
E0
E0
E0
ENDCHAR
STARTCHAR 002F
ENCODING 47
SWIDTH 540 0
DWIDTH 15 0
BBX 10 24 2 -4
BITMAP
00C0
00C0
0180
0180
0180
0300
0300
0300
0600
0600
0E00
0C00
0C00
1C00
1800
1800
3000
3000
3000
6000
6000
6000
C000
C000
ENDCHAR
STARTCHAR 0030
ENCODING 48
SWIDTH 648 0
DWIDTH 18 0
BBX 14 20 2 0
BITMAP
0780
1FE0
3870
7030
7038
6018
E01C
E01C
E01C
E01C
E01C
E01C
E01C
E01C
6018
7038
7038
3870
1FE0
0780
ENDCHAR
STARTCHAR 0031
ENCODING 49
SWIDTH 648 0
DWIDTH 18 0
BBX 11 20 4 0
BITMAP
0600
3E00
FE00
CE00
0E00
0E00
0E00
0E00
0E00
0E00
0E00
0E00
0E00
0E00
0E00
0E00
0E00
0E00
FFE0
FFE0
ENDCHAR
STARTCHAR 0032
ENCODING 50
SWIDTH 648 0
DWIDTH 18 0
BBX 13 20 2 0
BITMAP
0F80
3FE0
70F0
4078
0038
0038
0038
0038
0070
00E0
01C0
0380
0700
0E00
1C00
3800
7000
E000
FFF8
FFF8
ENDCHAR
STARTCHAR 0033
ENCODING 51
SWIDTH 648 0
DWIDTH 18 0
BBX 12 20 3 0
BITMAP
7F00
FFC0
81E0
00E0
00E0
00E0
00E0
01C0
0380
3F00
3F80
01E0
00F0
0070
0070
0070
00F0
C1E0
FFC0
3F00
ENDCHAR
STARTCHAR 0034
ENCODING 52
SWIDTH 648 0
DWIDTH 18 0
BBX 15 20 1 0
BITMAP
0070
00F0
01F0
03F0
0370
0670
0C70
1C70
1870
3070
6070
E070
FFFE
FFFE
0070
0070
0070
0070
0070
0070
ENDCHAR
STARTCHAR 0035
ENCODING 53
SWIDTH 648 0
DWIDTH 18 0
BBX 12 20 3 0
BITMAP
FFF0
FFF0
C000
C000
C000
C000
C000
FC00
FF80
03C0
00E0
0070
0070
0070
0070
0070
00E0
81E0
FFC0
7E00
ENDCHAR
STARTCHAR 0036
ENCODING 54
SWIDTH 648 0
DWIDTH 18 0
BBX 14 20 2 0
BITMAP
07E0
1FF8
3C18
3800
7000
7000
E000
E7C0
EFF0
F878
F038
E01C
E01C
E01C
E01C
701C
7038
3878
1FF0
07C0
ENDCHAR
STARTCHAR 0037
ENCODING 55
SWIDTH 648 0
DWIDTH 18 0
BBX 13 20 3 0
BITMAP
FFF8
FFF8
0038
0070
0060
00E0
00C0
0180
0380
0300
0700
0E00
0E00
1C00
1C00
3800
3800
3800
7000
7000
ENDCHAR
STARTCHAR 0038
ENCODING 56
SWIDTH 648 0
DWIDTH 18 0
BBX 14 20 2 0
BITMAP
0FC0
1FF0
3878
7038
7038
7038
7870
3C70
1FC0
1FC0
3BF0
70F8
6038
E01C
E01C
E01C
F01C
7878
3FF0
0FC0
ENDCHAR
STARTCHAR 0039
ENCODING 57
SWIDTH 648 0
DWIDTH 18 0
BBX 14 20 2 0
BITMAP
0F80
3FE0
7870
7038
E038
E01C
E01C
E01C
E01C
703C
787C
3FDC
0F9C
0018
0038
0038
0070
60E0
7FC0
3F00
ENDCHAR
STARTCHAR 003A
ENCODING 58
SWIDTH 324 0
DWIDTH 9 0
BBX 3 15 3 0
BITMAP
E0
E0
E0
00
00
00
00
00
00
00
00
00
E0
E0
E0
ENDCHAR
STARTCHAR 003B
ENCODING 59
SWIDTH 324 0
DWIDTH 9 0
BBX 3 19 3 -4
BITMAP
E0
E0
E0
00
00
00
00
00
00
00
00
00
E0
E0
E0
60
60
40
80
ENDCHAR
STARTCHAR 003C
ENCODING 60
SWIDTH 792 0
DWIDTH 22 0
BBX 16 17 3 0
BITMAP
0001
0007
001E
0078
00E0
03C0
0F00
3C00
F000
3C00
0F00
03C0
00F0
007C
001E
0007
0001
ENDCHAR
STARTCHAR 003D
ENCODING 61
SWIDTH 792 0
DWIDTH 22 0
BBX 16 7 3 5
BITMAP
FFFF
FFFF
0000
0000
0000
FFFF
FFFF
ENDCHAR
STARTCHAR 003E
ENCODING 62
SWIDTH 792 0
DWIDTH 22 0
BBX 16 17 3 0
BITMAP
8000
E000
7800
1E00
0700
03C0
00F0
003C
000F
003C
00F0
03C0
0F00
3E00
7800
E000
8000
ENDCHAR
STARTCHAR 003F
ENCODING 63
SWIDTH 432 0
DWIDTH 12 0
BBX 11 20 0 0
BITMAP
7F00
FFC0
81E0
00E0
00E0
00E0
01C0
0380
0700
0E00
1C00
1C00
1C00
1C00
0000
0000
0000
1C00
1C00
1C00
ENDCHAR
STARTCHAR 0040
ENCODING 64
SWIDTH 864 0
DWIDTH 24 0
BBX 22 20 1 0
BITMAP
003F00
01FFC0
0780F0
0E0070
1C3F98
387F9C
30C30C
61830C
63030C
C2070C
C6070C
C60A18
C61E18
C63630
E7E7E0
63C7C0
700000
3C0C00
0FFC00
03F800
ENDCHAR
STARTCHAR 0041
ENCODING 65
SWIDTH 684 0
DWIDTH 19 0
BBX 19 20 0 0
BITMAP
006000
00F000
00F000
01F000
01B800
01B800
031C00
031C00
061C00
060E00
0C0E00
0C0700
1FFF00
1FFF00
380380
300380
3001C0
6001C0
6001C0
C000E0
ENDCHAR
STARTCHAR 0042
ENCODING 66
SWIDTH 576 0
DWIDTH 16 0
BBX 12 20 2 0
BITMAP
FF00
FFC0
E1E0
E0E0
E0E0
E0E0
E0E0
E1C0
E380
FF00
FF80
E3C0
E0E0
E070
E070
E070
E070
E0E0
FFE0
FF80
ENDCHAR
STARTCHAR 0043
ENCODING 67
SWIDTH 684 0
DWIDTH 19 0
BBX 16 20 1 0
BITMAP
03FC
0FFF
1E03
3800
7000
7000
E000
E000
E000
E000
E000
E000
E000
F000
7000
7800
3801
1E07
0FFE
03F8
ENDCHAR
STARTCHAR 0044
ENCODING 68
SWIDTH 756 0
DWIDTH 21 0
BBX 17 20 2 0
BITMAP
FFE000
FFF800
E03C00
E00E00
E00700
E00700
E00380
E00380
E00380
E00380
E00380
E00380
E00380
E00780
E00700
E00F00
E00E00
E03C00
FFF800
FFE000
ENDCHAR
STARTCHAR 0045
ENCODING 69
SWIDTH 540 0
DWIDTH 15 0
BBX 12 20 2 0
BITMAP
FFE0
FFE0
E000
E000
E000
E000
E000
E000
E000
FFC0
FFC0
E000
E000
E000
E000
E000
E000
E000
FFF0
FFF0
ENDCHAR
STARTCHAR 0046
ENCODING 70
SWIDTH 540 0
DWIDTH 15 0
BBX 11 20 2 0
BITMAP
FFE0
FFE0
E000
E000
E000
E000
E000
E000
E000
FFC0
FFC0
E000
E000
E000
E000
E000
E000
E000
E000
E000
ENDCHAR
STARTCHAR 0047
ENCODING 71
SWIDTH 720 0
DWIDTH 20 0
BBX 16 20 1 0
BITMAP
03FC
0FFF
1E03
3800
7000
7000
E000
E000
E000
E000
E000
E007
E007
F007
7007
7807
3C07
1E07
0FFF
03FC
ENDCHAR
STARTCHAR 0048
ENCODING 72
SWIDTH 756 0
DWIDTH 21 0
BBX 16 20 2 0
BITMAP
E007
E007
E007
E007
E007
E007
E007
E007
E007
FFFF
FFFF
E007
E007
E007
E007
E007
E007
E007
E007
E007
ENDCHAR
STARTCHAR 0049
ENCODING 73
SWIDTH 288 0
DWIDTH 8 0
BBX 3 20 2 0
BITMAP
E0
E0
E0
E0
E0
E0
E0
E0
E0
E0
E0
E0
E0
E0
E0
E0
E0
E0
E0
E0
ENDCHAR
STARTCHAR 004A
ENCODING 74
SWIDTH 324 0
DWIDTH 9 0
BBX 9 24 -3 -4
BITMAP
0380
0380
0380
0380
0380
0380
0380
0380
0380
0380
0380
0380
0380
0380
0380
0380
0380
0380
0380
0380
0380
8700
FE00
7C00
ENDCHAR
STARTCHAR 004B
ENCODING 75
SWIDTH 648 0
DWIDTH 18 0
BBX 15 20 2 0
BITMAP
E01C
E038
E070
E0E0
E0C0
E180
E300
E700
EE00
FC00
EC00
EE00
E700
E380
E1C0
E0E0
E070
E038
E01C
E00E
ENDCHAR
STARTCHAR 004C
ENCODING 76
SWIDTH 540 0
DWIDTH 15 0
BBX 12 20 2 0
BITMAP
E000
E000
E000
E000
E000
E000
E000
E000
E000
E000
E000
E000
E000
E000
E000
E000
E000
E000
FFF0
FFF0
ENDCHAR
STARTCHAR 004D
ENCODING 77
SWIDTH 864 0
DWIDTH 24 0
BBX 19 20 2 0
BITMAP
F001E0
F001E0
F003E0
F803E0
F803E0
DC06E0
DC06E0
DC06E0
CE0CE0
CE0CE0
C61CE0
C718E0
C718E0
C3B0E0
C3B0E0
C1B0E0
C1E0E0
C1E0E0
C0C0E0
C000E0
ENDCHAR
STARTCHAR 004E
ENCODING 78
SWIDTH 756 0
DWIDTH 21 0
BBX 16 20 2 0
BITMAP
E003
E003
F003
F803
DC03
DC03
CE03
C703
C303
C383
C1C3
C0C3
C0E3
C073
C03B
C03B
C01F
C00F
C007
C007
ENDCHAR
STARTCHAR 004F
ENCODING 79
SWIDTH 792 0
DWIDTH 22 0
BBX 19 20 1 0
BITMAP
03F800
0FFE00
1E0F00
380380
7001C0
7001C0
E000E0
E000E0
E000E0
E000E0
E000E0
E000E0
E000E0
E000E0
7001C0
7001C0
380380
1E0F00
0FFE00
03F800
ENDCHAR
STARTCHAR 0050
ENCODING 80
SWIDTH 540 0
DWIDTH 15 0
BBX 12 20 2 0
BITMAP
FF80
FFE0
E0E0
E070
E070
E070
E070
E070
E0E0
E1E0
FFC0
FF00
E000
E000
E000
E000
E000
E000
E000
E000
ENDCHAR
STARTCHAR 0051
ENCODING 81
SWIDTH 792 0
DWIDTH 22 0
BBX 21 24 1 -4
BITMAP
03F800
0FFE00
1C0F00
380380
7001C0
7001C0
E000E0
E000E0
E000E0
E000E0
E000E0
E000E0
E000E0
E000E0
7001C0
7001C0
380380
1E0F00
0FFE00
03FC00
000F00
0003E0
0000F8
000030
ENDCHAR
STARTCHAR 0052
ENCODING 82
SWIDTH 648 0
DWIDTH 18 0
BBX 15 20 2 0
BITMAP
FF80
FFE0
E0F0
E070
E070
E070
E070
E0E0
E1E0
FF80
FF00
E380
E1C0
E0C0
E0E0
E070
E038
E038
E01C
E00E
ENDCHAR
STARTCHAR 0053
ENCODING 83
SWIDTH 540 0
DWIDTH 15 0
BBX 12 20 1 0
BITMAP
1F80
3FE0
7060
E000
E000
E000
F000
7800
3E00
1F80
07C0
03E0
00F0
0070
0070
0070
8070
E0E0
7FC0
1F00
ENDCHAR
STARTCHAR 0054
ENCODING 84
SWIDTH 648 0
DWIDTH 18 0
BBX 17 20 0 0
BITMAP
FFFF80
FFFF80
01C000
01C000
01C000
01C000
01C000
01C000
01C000
01C000
01C000
01C000
01C000
01C000
01C000
01C000
01C000
01C000
01C000
01C000
ENDCHAR
STARTCHAR 0055
ENCODING 85
SWIDTH 684 0
DWIDTH 19 0
BBX 14 20 2 0
BITMAP
E00C
E00C
E00C
E00C
E00C
E00C
E00C
E00C
E00C
E00C
E00C
E00C
E00C
E00C
E00C
E00C
7018
7838
3FF0
0FC0
ENDCHAR
STARTCHAR 0056
ENCODING 86
SWIDTH 648 0
DWIDTH 18 0
BBX 18 20 1 0
BITMAP
E000C0
700180
700180
700180
380300
380300
1C0700
1C0600
1C0600
0E0C00
0E0C00
071C00
071800
071800
03B000
03B000
01F000
01E000
01E000
00C000
ENDCHAR
STARTCHAR 0057
ENCODING 87
SWIDTH 864 0
DWIDTH 24 0
BBX 25 20 0 0
BITMAP
E01C0180
F01E0380
701E0300
701E0300
70360300
38370700
38370600
38370600
38638E00
1C638C00
1C638C00
1C638C00
0EC1DC00
0EC1D800
0EC1D800
0EC0F800
0780F000
0780F000
0780F000
03807000
ENDCHAR
STARTCHAR 0058
ENCODING 88
SWIDTH 648 0
DWIDTH 18 0
BBX 17 20 0 0
BITMAP
E00180
700300
380600
380E00
1C0C00
0E1800
0F3000
077000
03E000
01C000
01C000
03E000
077000
067800
0C3800
181C00
380E00
300E00
600700
C00380
ENDCHAR
STARTCHAR 0059
ENCODING 89
SWIDTH 612 0
DWIDTH 17 0
BBX 17 20 0 0
BITMAP
E00380
700300
380600
380E00
1C0C00
0E1800
0E1800
073000
077000
03E000
01C000
01C000
01C000
01C000
01C000
01C000
01C000
01C000
01C000
01C000
ENDCHAR
STARTCHAR 005A
ENCODING 90
SWIDTH 612 0
DWIDTH 17 0
BBX 14 20 1 0
BITMAP
7FFC
7FFC
001C
0038
0070
0070
00E0
01C0
03C0
0380
0700
0F00
0E00
1C00
3800
3800
7000
E000
FFFC
FFFC
ENDCHAR
STARTCHAR 005B
ENCODING 91
SWIDTH 324 0
DWIDTH 9 0
BBX 5 26 2 -4
BITMAP
F8
F8
C0
C0
C0
C0
C0
C0
C0
C0
C0
C0
C0
C0
C0
C0
C0
C0
C0
C0
C0
C0
C0
C0
F8
F8
ENDCHAR
STARTCHAR 005C
ENCODING 92
SWIDTH 540 0
DWIDTH 15 0
BBX 10 24 3 -4
BITMAP
C000
C000
6000
6000
6000
3000
3000
3000
1800
1800
1C00
0C00
0C00
0E00
0600
0600
0300
0300
0300
0180
0180
0180
00C0
00C0
ENDCHAR
STARTCHAR 005D
ENCODING 93
SWIDTH 324 0
DWIDTH 9 0
BBX 5 26 2 -4
BITMAP
F8
F8
18
18
18
18
18
18
18
18
18
18
18
18
18
18
18
18
18
18
18
18
18
18
F8
F8
ENDCHAR
STARTCHAR 005E
ENCODING 94
SWIDTH 648 0
DWIDTH 18 0
BBX 15 15 1 5
BITMAP
0100
0100
0380
0380
06C0
06C0
0C60
0C60
1830
1830
3018
3018
600C
600C
C006
ENDCHAR
STARTCHAR 005F
ENCODING 95
SWIDTH 504 0
DWIDTH 14 0
BBX 12 2 1 -2
BITMAP
FFF0
FFF0
ENDCHAR
STARTCHAR 0060
ENCODING 96
SWIDTH 612 0
DWIDTH 17 0
BBX 6 4 5 18
BITMAP
E0
70
18
0C
ENDCHAR
STARTCHAR 0061
ENCODING 97
SWIDTH 540 0
DWIDTH 15 0
BBX 13 15 1 0
BITMAP
1F80
7FC0
41E0
00E0
00E0
00E0
0FE0
3FE0
78E0
E0E0
E0E0
E0E0
F1E0
7F78
3C78
ENDCHAR
STARTCHAR 0062
ENCODING 98
SWIDTH 648 0
DWIDTH 18 0
BBX 14 22 2 0
BITMAP
E000
E000
E000
E000
E000
E000
E000
E3E0
EFF0
F878
F038
E01C
E01C
E01C
E01C
E01C
E01C
E018
E038
F870
FFF0
E7C0
ENDCHAR
STARTCHAR 0063
ENCODING 99
SWIDTH 504 0
DWIDTH 14 0
BBX 11 15 1 0
BITMAP
0FC0
3FE0
7820
7000
E000
E000
E000
E000
E000
E000
E000
7000
7820
3FE0
0FC0
ENDCHAR
STARTCHAR 0064
ENCODING 100
SWIDTH 648 0
DWIDTH 18 0
BBX 14 22 1 0
BITMAP
001C
001C
001C
001C
001C
001C
001C
0F9C
3FDC
787C
701C
E01C
E01C
E01C
E01C
E01C
E01C
E01C
703C
78FC
3FDC
1F9C
ENDCHAR
STARTCHAR 0065
ENCODING 101
SWIDTH 576 0
DWIDTH 16 0
BBX 13 15 1 0
BITMAP
0FC0
3FE0
7870
7030
E038
E038
FFF8
FFF8
E000
E000
E000
7000
7808
3FF8
0FE0
ENDCHAR
STARTCHAR 0066
ENCODING 102
SWIDTH 360 0
DWIDTH 10 0
BBX 11 22 1 0
BITMAP
07C0
1FE0
1C20
3800
3800
3800
3800
FF80
FF80
3800
3800
3800
3800
3800
3800
3800
3800
3800
3800
3800
3800
3800
ENDCHAR
STARTCHAR 0067
ENCODING 103
SWIDTH 612 0
DWIDTH 17 0
BBX 13 20 1 -5
BITMAP
1F38
3FF8
78F8
7038
F038
E038
E038
E038
E038
E038
E038
7078
70F8
3FB8
1F38
0038
0070
60F0
7FE0
3F80
ENDCHAR
STARTCHAR 0068
ENCODING 104
SWIDTH 612 0
DWIDTH 17 0
BBX 12 22 2 0
BITMAP
E000
E000
E000
E000
E000
E000
E000
E3C0
EFE0
F870
F070
E070
E070
E070
E070
E070
E070
E070
E070
E070
E070
E070
ENDCHAR
STARTCHAR 0069
ENCODING 105
SWIDTH 288 0
DWIDTH 8 0
BBX 3 20 2 0
BITMAP
E0
E0
E0
00
00
E0
E0
E0
E0
E0
E0
E0
E0
E0
E0
E0
E0
E0
E0
E0
ENDCHAR
STARTCHAR 006A
ENCODING 106
SWIDTH 324 0
DWIDTH 9 0
BBX 8 25 -2 -5
BITMAP
07
07
07
00
00
07
07
07
07
07
07
07
07
07
07
07
07
07
07
07
07
07
8E
FE
7C
ENDCHAR
STARTCHAR 006B
ENCODING 107
SWIDTH 576 0
DWIDTH 16 0
BBX 13 22 2 0
BITMAP
E000
E000
E000
E000
E000
E000
E000
E070
E0E0
E0C0
E180
E300
E600
EC00
FC00
EE00
E700
E380
E1C0
E0E0
E070
E038
ENDCHAR
STARTCHAR 006C
ENCODING 108
SWIDTH 288 0
DWIDTH 8 0
BBX 3 22 2 0
BITMAP
E0
E0
E0
E0
E0
E0
E0
E0
E0
E0
E0
E0
E0
E0
E0
E0
E0
E0
E0
E0
E0
E0
ENDCHAR
STARTCHAR 006D
ENCODING 109
SWIDTH 936 0
DWIDTH 26 0
BBX 21 15 2 0
BITMAP
E3C1E0
EFE7F0
F8FC78
F07838
E07038
E07038
E07038
E07038
E07038
E07038
E07038
E07038
E07038
E07038
E07038
ENDCHAR
STARTCHAR 006E
ENCODING 110
SWIDTH 612 0
DWIDTH 17 0
BBX 12 15 2 0
BITMAP
E3C0
EFE0
F870
F070
E070
E070
E070
E070
E070
E070
E070
E070
E070
E070
E070
ENDCHAR
STARTCHAR 006F
ENCODING 111
SWIDTH 612 0
DWIDTH 17 0
BBX 14 15 1 0
BITMAP
0FC0
3FF0
7870
7038
E01C
E01C
E01C
E01C
E01C
E01C
E01C
7038
7878
3FF0
0FC0
ENDCHAR
STARTCHAR 0070
ENCODING 112
SWIDTH 648 0
DWIDTH 18 0
BBX 14 20 2 -5
BITMAP
E3E0
EFF0
F878
F038
E01C
E01C
E01C
E01C
E01C
E01C
E018
E038
F870
FFF0
E7C0
E000
E000
E000
E000
E000
ENDCHAR
STARTCHAR 0071
ENCODING 113
SWIDTH 648 0
DWIDTH 18 0
BBX 14 20 1 -5
BITMAP
0F9C
3FDC
787C
701C
E01C
E01C
E01C
E01C
E01C
E01C
E01C
703C
78FC
3FDC
1F9C
001C
001C
001C
001C
001C
ENDCHAR
STARTCHAR 0072
ENCODING 114
SWIDTH 396 0
DWIDTH 11 0
BBX 8 15 2 0
BITMAP
E7
EF
F8
F0
E0
E0
E0
E0
E0
E0
E0
E0
E0
E0
E0
ENDCHAR
STARTCHAR 0073
ENCODING 115
SWIDTH 504 0
DWIDTH 14 0
BBX 10 15 2 0
BITMAP
3F00
7F80
F080
E000
E000
F000
7C00
3F00
0F80
03C0
01C0
01C0
83C0
FF80
7E00
ENDCHAR
STARTCHAR 0074
ENCODING 116
SWIDTH 360 0
DWIDTH 10 0
BBX 8 18 0 0
BITMAP
38
38
38
FF
FF
38
38
38
38
38
38
38
38
38
38
3C
1F
0F
ENDCHAR
STARTCHAR 0075
ENCODING 117
SWIDTH 612 0
DWIDTH 17 0
BBX 12 15 2 0
BITMAP
E070
E070
E070
E070
E070
E070
E070
E070
E070
E070
E070
E0F0
E1F0
7F70
3C70
ENDCHAR
STARTCHAR 0076
ENCODING 118
SWIDTH 540 0
DWIDTH 15 0
BBX 15 15 0 0
BITMAP
E006
700C
700C
7018
3818
3838
3C30
1C70
1C60
0EE0
0EC0
0EC0
0780
0780
0300
ENDCHAR
STARTCHAR 0077
ENCODING 119
SWIDTH 792 0
DWIDTH 22 0
BBX 21 15 0 0
BITMAP
E07818
E07838
707830
70D830
70DC30
38DC60
38DC60
39CC60
1D8EE0
1D8EC0
1D8EC0
1D86C0
0F0780
0F0780
0F0780
ENDCHAR
STARTCHAR 0078
ENCODING 120
SWIDTH 612 0
DWIDTH 17 0
BBX 14 15 1 0
BITMAP
E00C
7018
3830
3870
1C60
0EC0
07C0
0780
0780
0DC0
1CE0
3870
3070
6038
C01C
ENDCHAR
STARTCHAR 0079
ENCODING 121
SWIDTH 540 0
DWIDTH 15 0
BBX 14 20 0 -5
BITMAP
E00C
E01C
7018
7018
3030
3830
3870
1C60
1C60
0CC0
0EC0
0FC0
0780
0780
0300
0300
0600
0600
0E00
0C00
ENDCHAR
STARTCHAR 007A
ENCODING 122
SWIDTH 576 0
DWIDTH 16 0
BBX 13 15 1 0
BITMAP
FFF8
FFF8
0038
0070
00E0
01C0
0380
0700
0E00
1C00
3800
7000
E000
FFF8
FFF8
ENDCHAR
STARTCHAR 007B
ENCODING 123
SWIDTH 324 0
DWIDTH 9 0
BBX 7 26 0 -4
BITMAP
06
1E
38
30
30
30
38
18
18
18
18
30
F0
E0
30
18
18
18
18
38
30
30
30
38
1E
06
ENDCHAR
STARTCHAR 007C
ENCODING 124
SWIDTH 360 0
DWIDTH 10 0
BBX 2 26 4 -4
BITMAP
C0
C0
C0
C0
C0
C0
C0
C0
C0
C0
C0
C0
C0
C0
C0
C0
C0
C0
C0
C0
C0
C0
C0
C0
C0
C0
ENDCHAR
STARTCHAR 007D
ENCODING 125
SWIDTH 324 0
DWIDTH 9 0
BBX 7 26 2 -4
BITMAP
C0
F0
38
18
18
18
38
30
30
30
30
18
1E
0E
18
30
30
30
30
38
18
18
18
38
F0
C0
ENDCHAR
STARTCHAR 007E
ENCODING 126
SWIDTH 648 0
DWIDTH 18 0
BBX 15 5 1 6
BITMAP
3C06
7F06
C7CE
C1FC
0078
ENDCHAR
STARTCHAR 00A0
ENCODING 160
SWIDTH 288 0
DWIDTH 8 0
BBX 1 1 0 0
BITMAP
00
ENDCHAR
STARTCHAR 00A1
ENCODING 161
SWIDTH 324 0
DWIDTH 9 0
BBX 3 20 3 -5
BITMAP
E0
E0
E0
00
00
00
E0
E0
E0
E0
E0
E0
E0
E0
E0
E0
E0
E0
E0
E0
ENDCHAR
STARTCHAR 00A2
ENCODING 162
SWIDTH 648 0
DWIDTH 18 0
BBX 12 20 3 0
BITMAP
0100
0100
07E0
1FF0
3D30
7100
7100
E100
E100
E100
E100
E100
E100
7100
7900
3D10
1FF0
07E0
0100
0100
ENDCHAR
STARTCHAR 00A3
ENCODING 163
SWIDTH 648 0
DWIDTH 18 0
BBX 12 20 3 0
BITMAP
03E0
07F0
0E10
1C00
1C00
1C00
1C00
1C00
1C00
FF80
FF80
1C00
1C00
1C00
1C00
1C00
3800
7000
FFF0
FFF0
ENDCHAR
STARTCHAR 00A4
ENCODING 164
SWIDTH 648 0
DWIDTH 18 0
BBX 14 14 2 3
BITMAP
4008
E79C
7FF8
3870
7030
6018
6018
6018
6018
3030
3870
7FF8
E79C
4008
ENDCHAR
STARTCHAR 00A5
ENCODING 165
SWIDTH 648 0
DWIDTH 18 0
BBX 16 20 1 0
BITMAP
E007
7006
380C
381C
1C18
1C30
0E60
07E0
07C0
0380
3FF8
3FF8
0380
0380
3FF8
3FF8
0380
0380
0380
0380
ENDCHAR
STARTCHAR 00A6
ENCODING 166
SWIDTH 360 0
DWIDTH 10 0
BBX 2 26 4 -4
BITMAP
C0
C0
C0
C0
C0
C0
C0
C0
C0
C0
00
00
00
00
00
00
C0
C0
C0
C0
C0
C0
C0
C0
C0
C0
ENDCHAR
STARTCHAR 00A7
ENCODING 167
SWIDTH 648 0
DWIDTH 18 0
BBX 12 25 3 -5
BITMAP
1F80
3FE0
7020
E000
E000
E000
F800
7E00
3F80
6FE0
E1F0
E0F0
E070
F070
7860
7FE0
1FC0
07E0
01F0
0070
0070
0070
C0E0
FFC0
3F80
ENDCHAR
STARTCHAR 00A8
ENCODING 168
SWIDTH 612 0
DWIDTH 17 0
BBX 7 2 5 18
BITMAP
C6
C6
ENDCHAR
STARTCHAR 00A9
ENCODING 169
SWIDTH 864 0
DWIDTH 24 0
BBX 21 21 1 0
BITMAP
01FC00
060300
080080
100040
207C20
418610
430210
830008
860008
860008
860008
860008
860008
830018
430010
418610
207C20
100040
080080
060300
01FC00
ENDCHAR
STARTCHAR 00AA
ENCODING 170
SWIDTH 468 0
DWIDTH 13 0
BBX 9 11 2 11
BITMAP
7C00
FF00
8300
0300
3F00
7F00
E300
C300
C700
FF80
7980
ENDCHAR
STARTCHAR 00AB
ENCODING 171
SWIDTH 540 0
DWIDTH 15 0
BBX 12 13 2 1
BITMAP
0210
0630
0C60
18C0
3180
7380
E700
7380
3180
18C0
0C60
0630
0210
ENDCHAR
STARTCHAR 00AC
ENCODING 172
SWIDTH 792 0
DWIDTH 22 0
BBX 16 8 3 4
BITMAP
FFFF
FFFF
0003
0003
0003
0003
0003
0003
ENDCHAR
STARTCHAR 00AD
ENCODING 173
SWIDTH 576 0
DWIDTH 16 0
BBX 12 2 2 7
BITMAP
FFF0
FFF0
ENDCHAR
STARTCHAR 00AE
ENCODING 174
SWIDTH 648 0
DWIDTH 18 0
BBX 12 12 3 9
BITMAP
0F00
30C0
5E20
5120
9110
9110
9E10
9210
5220
5120
30C0
0F00
ENDCHAR
STARTCHAR 00AF
ENCODING 175
SWIDTH 504 0
DWIDTH 14 0
BBX 12 2 1 20
BITMAP
FFF0
FFF0
ENDCHAR
STARTCHAR 00B0
ENCODING 176
SWIDTH 432 0
DWIDTH 12 0
BBX 8 8 2 14
BITMAP
3C
7E
E7
C3
C3
E7
7E
3C
ENDCHAR
STARTCHAR 00B1
ENCODING 177
SWIDTH 792 0
DWIDTH 22 0
BBX 16 16 3 0
BITMAP
0180
0180
0180
0180
0180
FFFF
FFFF
0180
0180
0180
0180
0180
0000
0000
FFFF
FFFF
ENDCHAR
STARTCHAR 00B2
ENCODING 178
SWIDTH 432 0
DWIDTH 12 0
BBX 8 12 2 8
BITMAP
7C
86
03
03
03
06
0C
18
30
60
C0
FF
ENDCHAR
STARTCHAR 00B3
ENCODING 179
SWIDTH 432 0
DWIDTH 12 0
BBX 8 12 2 8
BITMAP
7C
86
03
03
06
78
06
03
03
03
86
7C
ENDCHAR
STARTCHAR 00B4
ENCODING 180
SWIDTH 612 0
DWIDTH 17 0
BBX 6 4 5 18
BITMAP
1C
30
60
C0
ENDCHAR
STARTCHAR 00B5
ENCODING 181
SWIDTH 648 0
DWIDTH 18 0
BBX 13 20 2 -5
BITMAP
E038
E038
E038
E038
E038
E038
E038
E038
E038
E038
E078
E0F8
F1F8
FFB8
EE38
E000
E000
E000
E000
E000
ENDCHAR
STARTCHAR 00B6
ENCODING 182
SWIDTH 648 0
DWIDTH 18 0
BBX 12 24 3 -4
BITMAP
3FF0
7FF0
FF30
FF30
FF30
FF30
FF30
7F30
3F30
1F30
0330
0330
0330
0330
0330
0330
0330
0330
0330
0330
0330
0330
0330
0330
ENDCHAR
STARTCHAR 00B7
ENCODING 183
SWIDTH 324 0
DWIDTH 9 0
BBX 3 3 3 7
BITMAP
E0
E0
E0
ENDCHAR
STARTCHAR 00B8
ENCODING 184
SWIDTH 612 0
DWIDTH 17 0
BBX 5 6 7 -6
BITMAP
40
F0
38
18
18
F0
ENDCHAR
STARTCHAR 00B9
ENCODING 185
SWIDTH 432 0
DWIDTH 12 0
BBX 8 12 2 8
BITMAP
38
D8
18
18
18
18
18
18
18
18
18
FF
ENDCHAR
STARTCHAR 00BA
ENCODING 186
SWIDTH 468 0
DWIDTH 13 0
BBX 10 11 1 11
BITMAP
1E00
7F80
6180
C0C0
C0C0
C0C0
C0C0
C0C0
6180
7F80
1E00
ENDCHAR
STARTCHAR 00BB
ENCODING 187
SWIDTH 540 0
DWIDTH 15 0
BBX 12 13 1 1
BITMAP
8400
C600
6300
3180
18C0
1CE0
0E70
1CE0
18C0
3180
6300
C600
8400
ENDCHAR
STARTCHAR 00BC
ENCODING 188
SWIDTH 792 0
DWIDTH 22 0
BBX 20 20 1 0
BITMAP
380040
D80080
180100
180200
180200
180400
180800
181000
1820C0
1841C0
1842C0
1884C0
0108C0
0210C0
0420C0
083FF0
0800C0
1000C0
2000C0
4000C0
ENDCHAR
STARTCHAR 00BD
ENCODING 189
SWIDTH 792 0
DWIDTH 22 0
BBX 20 20 1 0
BITMAP
380080
D80100
180200
180400
180400
180800
181000
182000
1847C0
188860
188030
190030
020030
040060
0800C0
100180
100300
200600
400C00
800FF0
ENDCHAR
STARTCHAR 00BE
ENCODING 190
SWIDTH 792 0
DWIDTH 22 0
BBX 20 20 1 0
BITMAP
7C0020
870040
030080
030100
060300
780200
060400
030800
0310C0
0321C0
8622C0
7C44C0
0088C0
0110C0
0220C0
043FF0
0400C0
0800C0
1000C0
2000C0
ENDCHAR
STARTCHAR 00BF
ENCODING 191
SWIDTH 432 0
DWIDTH 12 0
BBX 11 20 0 -5
BITMAP
0700
0700
0700
0000
0000
0000
0700
0700
0700
0700
0E00
1C00
3800
7000
E000
E000
E000
F020
7FE0
1F80
ENDCHAR
STARTCHAR 00C0
ENCODING 192
SWIDTH 684 0
DWIDTH 19 0
BBX 19 26 0 0
BITMAP
038000
01C000
006000
003000
000000
000000
006000
00F000
00F000
01F000
01B800
01B800
031C00
031C00
061C00
060E00
0C0E00
0C0700
1FFF00
1FFF00
380380
300380
3001C0
6001C0
6001C0
C000E0
ENDCHAR
STARTCHAR 00C1
ENCODING 193
SWIDTH 684 0
DWIDTH 19 0
BBX 19 26 0 0
BITMAP
001C00
003000
006000
00C000
000000
000000
006000
00F000
00F000
01F000
01B800
01B800
031C00
031C00
061C00
060E00
0C0E00
0C0700
1FFF00
1FFF00
380380
300380
3001C0
6001C0
6001C0
C000E0
ENDCHAR
STARTCHAR 00C2
ENCODING 194
SWIDTH 684 0
DWIDTH 19 0
BBX 19 26 0 0
BITMAP
00E000
01F000
039800
060C00
000000
000000
006000
00F000
00F000
01F000
01B800
01B800
031C00
031C00
061C00
060E00
0C0E00
0C0700
1FFF00
1FFF00
380380
300380
3001C0
6001C0
6001C0
C000E0
ENDCHAR
STARTCHAR 00C3
ENCODING 195
SWIDTH 684 0
DWIDTH 19 0
BBX 19 25 0 0
BITMAP
038C00
07FC00
063800
000000
000000
006000
00F000
00F000
01F000
01B800
01B800
031C00
031C00
061C00
060E00
0C0E00
0C0700
1FFF00
1FFF00
380380
300380
3001C0
6001C0
6001C0
C000E0
ENDCHAR
STARTCHAR 00C4
ENCODING 196
SWIDTH 684 0
DWIDTH 19 0
BBX 19 24 0 0
BITMAP
031800
031800
000000
000000
006000
00F000
00F000
01F000
01B800
01B800
031C00
031C00
061C00
060E00
0C0E00
0C0700
1FFF00
1FFF00
380380
300380
3001C0
6001C0
6001C0
C000E0
ENDCHAR
STARTCHAR 00C5
ENCODING 197
SWIDTH 684 0
DWIDTH 19 0
BBX 19 27 0 0
BITMAP
00F000
019800
010800
010800
019800
00F000
000000
006000
00F000
00F000
01F000
01B800
01B800
031C00
031C00
061C00
060E00
0C0E00
0C0700
1FFF00
1FFF00
380380
300380
3001C0
6001C0
6001C0
C000E0
ENDCHAR
STARTCHAR 00C6
ENCODING 198
SWIDTH 900 0
DWIDTH 25 0
BBX 24 20 0 0
BITMAP
001FFE
001FFE
003E00
003E00
006E00
00EE00
00CE00
018E00
018E00
030FFC
070FFC
060E00
0FFE00
0FFE00
180E00
380E00
300E00
600E00
600FFF
C00FFF
ENDCHAR
STARTCHAR 00C7
ENCODING 199
SWIDTH 684 0
DWIDTH 19 0
BBX 16 26 1 -6
BITMAP
03FC
0FFF
1E03
3800
7000
7000
E000
E000
E000
E000
E000
E000
E000
F000
7000
7800
3801
1E07
0FFE
03F8
0080
01E0
0070
0030
0030
01E0
ENDCHAR
STARTCHAR 00C8
ENCODING 200
SWIDTH 540 0
DWIDTH 15 0
BBX 12 26 2 0
BITMAP
3800
1C00
0600
0300
0000
0000
FFE0
FFE0
E000
E000
E000
E000
E000
E000
E000
FFC0
FFC0
E000
E000
E000
E000
E000
E000
E000
FFF0
FFF0
ENDCHAR
STARTCHAR 00C9
ENCODING 201
SWIDTH 540 0
DWIDTH 15 0
BBX 12 26 2 0
BITMAP
01C0
0300
0600
0C00
0000
0000
FFE0
FFE0
E000
E000
E000
E000
E000
E000
E000
FFC0
FFC0
E000
E000
E000
E000
E000
E000
E000
FFF0
FFF0
ENDCHAR
STARTCHAR 00CA
ENCODING 202
SWIDTH 540 0
DWIDTH 15 0
BBX 12 26 2 0
BITMAP
0700
0F80
1CC0
3060
0000
0000
FFE0
FFE0
E000
E000
E000
E000
E000
E000
E000
FFC0
FFC0
E000
E000
E000
E000
E000
E000
E000
FFF0
FFF0
ENDCHAR
STARTCHAR 00CB
ENCODING 203
SWIDTH 540 0
DWIDTH 15 0
BBX 12 24 2 0
BITMAP
18C0
18C0
0000
0000
FFE0
FFE0
E000
E000
E000
E000
E000
E000
E000
FFC0
FFC0
E000
E000
E000
E000
E000
E000
E000
FFF0
FFF0
ENDCHAR
STARTCHAR 00CC
ENCODING 204
SWIDTH 288 0
DWIDTH 8 0
BBX 6 26 0 0
BITMAP
E0
70
18
0C
00
00
38
38
38
38
38
38
38
38
38
38
38
38
38
38
38
38
38
38
38
38
ENDCHAR
STARTCHAR 00CD
ENCODING 205
SWIDTH 288 0
DWIDTH 8 0
BBX 6 26 2 0
BITMAP
1C
30
60
C0
00
00
E0
E0
E0
E0
E0
E0
E0
E0
E0
E0
E0
E0
E0
E0
E0
E0
E0
E0
E0
E0
ENDCHAR
STARTCHAR 00CE
ENCODING 206
SWIDTH 288 0
DWIDTH 8 0
BBX 9 26 -1 0
BITMAP
1C00
3E00
7300
C180
0000
0000
1C00
1C00
1C00
1C00
1C00
1C00
1C00
1C00
1C00
1C00
1C00
1C00
1C00
1C00
1C00
1C00
1C00
1C00
1C00
1C00
ENDCHAR
STARTCHAR 00CF
ENCODING 207
SWIDTH 288 0
DWIDTH 8 0
BBX 7 24 0 0
BITMAP
C6
C6
00
00
38
38
38
38
38
38
38
38
38
38
38
38
38
38
38
38
38
38
38
38
ENDCHAR
STARTCHAR 00D0
ENCODING 208
SWIDTH 756 0
DWIDTH 21 0
BBX 20 20 -1 0
BITMAP
1FFC00
1FFF00
1C0780
1C01C0
1C00E0
1C00E0
1C0070
1C0070
1C0070
FFE070
FFE070
1C0070
1C0070
1C00F0
1C00E0
1C01E0
1C01C0
1C0780
1FFF00
1FFC00
ENDCHAR
STARTCHAR 00D1
ENCODING 209
SWIDTH 756 0
DWIDTH 21 0
BBX 16 25 2 0
BITMAP
0718
0FF8
0C70
0000
0000
E003
E003
F003
F803
DC03
DC03
CE03
C703
C303
C383
C1C3
C0C3
C0E3
C073
C03B
C03B
C01F
C00F
C007
C007
ENDCHAR
STARTCHAR 00D2
ENCODING 210
SWIDTH 792 0
DWIDTH 22 0
BBX 19 26 1 0
BITMAP
038000
01C000
006000
003000
000000
000000
03F800
0FFE00
1E0F00
380380
7001C0
7001C0
E000E0
E000E0
E000E0
E000E0
E000E0
E000E0
E000E0
E000E0
7001C0
7001C0
380380
1E0F00
0FFE00
03F800
ENDCHAR
STARTCHAR 00D3
ENCODING 211
SWIDTH 792 0
DWIDTH 22 0
BBX 19 26 1 0
BITMAP
001C00
003000
006000
00C000
000000
000000
03F800
0FFE00
1E0F00
380380
7001C0
7001C0
E000E0
E000E0
E000E0
E000E0
E000E0
E000E0
E000E0
E000E0
7001C0
7001C0
380380
1E0F00
0FFE00
03F800
ENDCHAR
STARTCHAR 00D4
ENCODING 212
SWIDTH 792 0
DWIDTH 22 0
BBX 19 26 1 0
BITMAP
00E000
01F000
039800
060C00
000000
000000
03F800
0FFE00
1E0F00
380380
7001C0
7001C0
E000E0
E000E0
E000E0
E000E0
E000E0
E000E0
E000E0
E000E0
7001C0
7001C0
380380
1E0F00
0FFE00
03F800
ENDCHAR
STARTCHAR 00D5
ENCODING 213
SWIDTH 792 0
DWIDTH 22 0
BBX 19 25 1 0
BITMAP
038C00
07FC00
063800
000000
000000
03F800
0FFE00
1E0F00
380380
7001C0
7001C0
E000E0
E000E0
E000E0
E000E0
E000E0
E000E0
E000E0
E000E0
7001C0
7001C0
380380
1E0F00
0FFE00
03F800
ENDCHAR
STARTCHAR 00D6
ENCODING 214
SWIDTH 792 0
DWIDTH 22 0
BBX 19 24 1 0
BITMAP
031800
031800
000000
000000
03F800
0FFE00
1E0F00
380380
7001C0
7001C0
E000E0
E000E0
E000E0
E000E0
E000E0
E000E0
E000E0
E000E0
7001C0
7001C0
380380
1E0F00
0FFE00
03F800
ENDCHAR
STARTCHAR 00D7
ENCODING 215
SWIDTH 792 0
DWIDTH 22 0
BBX 16 16 3 0
BITMAP
4002
E007
700E
381C
1C38
0E70
07E0
03C0
03C0
07E0
0E70
1C38
381C
700E
E007
4002
ENDCHAR
STARTCHAR 00D8
ENCODING 216
SWIDTH 792 0
DWIDTH 22 0
BBX 19 20 1 0
BITMAP
03F8E0
0FFEC0
1E0F80
380380
7007C0
700FC0
E01CE0
E038E0
E030E0
E060E0
E0C0E0
E180E0
E380E0
E700E0
7E01C0
7C01C0
380380
3E0F00
6FFE00
E3F800
ENDCHAR
STARTCHAR 00D9
ENCODING 217
SWIDTH 684 0
DWIDTH 19 0
BBX 14 26 2 0
BITMAP
1C00
0E00
0300
0180
0000
0000
E00C
E00C
E00C
E00C
E00C
E00C
E00C
E00C
E00C
E00C
E00C
E00C
E00C
E00C
E00C
E00C
7018
7838
3FF0
0FC0
ENDCHAR
STARTCHAR 00DA
ENCODING 218
SWIDTH 684 0
DWIDTH 19 0
BBX 14 26 2 0
BITMAP
0070
00C0
0180
0300
0000
0000
E00C
E00C
E00C
E00C
E00C
E00C
E00C
E00C
E00C
E00C
E00C
E00C
E00C
E00C
E00C
E00C
7018
7838
3FF0
0FC0
ENDCHAR
STARTCHAR 00DB
ENCODING 219
SWIDTH 684 0
DWIDTH 19 0
BBX 14 26 2 0
BITMAP
0380
07C0
0E60
1830
0000
0000
E00C
E00C
E00C
E00C
E00C
E00C
E00C
E00C
E00C
E00C
E00C
E00C
E00C
E00C
E00C
E00C
7018
7838
3FF0
0FC0
ENDCHAR
STARTCHAR 00DC
ENCODING 220
SWIDTH 684 0
DWIDTH 19 0
BBX 14 24 2 0
BITMAP
0C60
0C60
0000
0000
E00C
E00C
E00C
E00C
E00C
E00C
E00C
E00C
E00C
E00C
E00C
E00C
E00C
E00C
E00C
E00C
7018
7838
3FF0
0FC0
ENDCHAR
STARTCHAR 00DD
ENCODING 221
SWIDTH 612 0
DWIDTH 17 0
BBX 17 26 0 0
BITMAP
003800
006000
00C000
018000
000000
000000
E00380
700300
380600
380E00
1C0C00
0E1800
0E1800
073000
077000
03E000
01C000
01C000
01C000
01C000
01C000
01C000
01C000
01C000
01C000
01C000
ENDCHAR
STARTCHAR 00DE
ENCODING 222
SWIDTH 540 0
DWIDTH 15 0
BBX 12 20 2 0
BITMAP
E000
E000
E000
E000
FF80
FFE0
E1E0
E070
E070
E070
E070
E070
E0E0
E1E0
FFC0
FF00
E000
E000
E000
E000
ENDCHAR
STARTCHAR 00DF
ENCODING 223
SWIDTH 612 0
DWIDTH 17 0
BBX 14 22 2 0
BITMAP
1F00
7FC0
71E0
E0E0
E0E0
E0E0
E1C0
E3C0
E380
E700
E700
E780
E3C0
E1E0
E070
E038
E01C
E01C
E01C
E43C
E7F8
E3F0
ENDCHAR
STARTCHAR 00E0
ENCODING 224
SWIDTH 540 0
DWIDTH 15 0
BBX 13 22 1 0
BITMAP
3800
1C00
0600
0300
0000
0000
0000
1F80
7FC0
41E0
00E0
00E0
00E0
0FE0
3FE0
78E0
E0E0
E0E0
E0E0
F1E0
7F78
3C78
ENDCHAR
STARTCHAR 00E1
ENCODING 225
SWIDTH 540 0
DWIDTH 15 0
BBX 13 22 1 0
BITMAP
0380
0600
0C00
1800
0000
0000
0000
1F80
7FC0
41E0
00E0
00E0
00E0
0FE0
3FE0
78E0
E0E0
E0E0
E0E0
F1E0
7F78
3C78
ENDCHAR
STARTCHAR 00E2
ENCODING 226
SWIDTH 540 0
DWIDTH 15 0
BBX 13 22 1 0
BITMAP
0E00
1F00
3980
60C0
0000
0000
0000
1F80
7FC0
41E0
00E0
00E0
00E0
0FE0
3FE0
78E0
E0E0
E0E0
E0E0
F1E0
7F78
3C78
ENDCHAR
STARTCHAR 00E3
ENCODING 227
SWIDTH 540 0
DWIDTH 15 0
BBX 13 21 1 0
BITMAP
1C60
3FE0
31C0
0000
0000
0000
1F80
7FC0
41E0
00E0
00E0
00E0
0FE0
3FE0
78E0
E0E0
E0E0
E0E0
F1E0
7F78
3C78
ENDCHAR
STARTCHAR 00E4
ENCODING 228
SWIDTH 540 0
DWIDTH 15 0
BBX 13 20 1 0
BITMAP
3180
3180
0000
0000
0000
1F80
7FC0
41E0
00E0
00E0
00E0
0FE0
3FE0
78E0
E0E0
E0E0
E0E0
F1E0
7F78
3C78
ENDCHAR
STARTCHAR 00E5
ENCODING 229
SWIDTH 540 0
DWIDTH 15 0
BBX 13 24 1 0
BITMAP
0F00
1980
1080
1080
1980
0F00
0000
0000
0000
1F80
7FC0
41E0
00E0
00E0
00E0
0FE0
3FE0
78E0
E0E0
E0E0
E0E0
F1E0
7F78
3C78
ENDCHAR
STARTCHAR 00E6
ENCODING 230
SWIDTH 864 0
DWIDTH 24 0
BBX 21 15 1 0
BITMAP
1F87C0
7FFFE0
60F870
007030
007038
007038
0FFFF8
3FFFF8
787000
F07000
E07800
E07800
F1FC08
7F9FF8
3E07E0
ENDCHAR
STARTCHAR 00E7
ENCODING 231
SWIDTH 504 0
DWIDTH 14 0
BBX 11 21 1 -6
BITMAP
0FC0
3FE0
7820
7000
E000
E000
E000
E000
E000
E000
E000
7000
7820
3FE0
0FC0
0200
0780
01C0
00C0
00C0
0780
ENDCHAR
STARTCHAR 00E8
ENCODING 232
SWIDTH 576 0
DWIDTH 16 0
BBX 13 22 1 0
BITMAP
1C00
0E00
0300
0180
0000
0000
0000
0FC0
3FE0
7870
7030
E038
E038
FFF8
FFF8
E000
E000
E000
7000
7808
3FF8
0FE0
ENDCHAR
STARTCHAR 00E9
ENCODING 233
SWIDTH 576 0
DWIDTH 16 0
BBX 13 22 1 0
BITMAP
00E0
0180
0300
0600
0000
0000
0000
0FC0
3FE0
7870
7030
E038
E038
FFF8
FFF8
E000
E000
E000
7000
7808
3FF8
0FE0
ENDCHAR
STARTCHAR 00EA
ENCODING 234
SWIDTH 576 0
DWIDTH 16 0
BBX 13 22 1 0
BITMAP
0380
07C0
0E60
1830
0000
0000
0000
0FC0
3FE0
7870
7030
E038
E038
FFF8
FFF8
E000
E000
E000
7000
7808
3FF8
0FE0
ENDCHAR
STARTCHAR 00EB
ENCODING 235
SWIDTH 576 0
DWIDTH 16 0
BBX 13 20 1 0
BITMAP
0C60
0C60
0000
0000
0000
0FC0
3FE0
7870
7030
E038
E038
FFF8
FFF8
E000
E000
E000
7000
7808
3FF8
0FE0
ENDCHAR
STARTCHAR 00EC
ENCODING 236
SWIDTH 288 0
DWIDTH 8 0
BBX 6 22 0 0
BITMAP
E0
70
18
0C
00
00
00
38
38
38
38
38
38
38
38
38
38
38
38
38
38
38
ENDCHAR
STARTCHAR 00ED
ENCODING 237
SWIDTH 288 0
DWIDTH 8 0
BBX 6 22 2 0
BITMAP
1C
30
60
C0
00
00
00
E0
E0
E0
E0
E0
E0
E0
E0
E0
E0
E0
E0
E0
E0
E0
ENDCHAR
STARTCHAR 00EE
ENCODING 238
SWIDTH 288 0
DWIDTH 8 0
BBX 9 22 -1 0
BITMAP
1C00
3E00
7300
C180
0000
0000
0000
1C00
1C00
1C00
1C00
1C00
1C00
1C00
1C00
1C00
1C00
1C00
1C00
1C00
1C00
1C00
ENDCHAR
STARTCHAR 00EF
ENCODING 239
SWIDTH 288 0
DWIDTH 8 0
BBX 7 20 0 0
BITMAP
C6
C6
00
00
00
38
38
38
38
38
38
38
38
38
38
38
38
38
38
38
ENDCHAR
STARTCHAR 00F0
ENCODING 240
SWIDTH 612 0
DWIDTH 17 0
BBX 14 23 1 0
BITMAP
0100
F380
FF00
1F00
1F80
3BC0
11E0
00F0
0FF0
3FF8
7878
703C
F01C
E01C
E01C
E01C
E01C
E01C
F038
7038
3870
1FE0
0FC0
ENDCHAR
STARTCHAR 00F1
ENCODING 241
SWIDTH 612 0
DWIDTH 17 0
BBX 12 21 2 0
BITMAP
1C60
3FE0
31C0
0000
0000
0000
E3C0
EFE0
F870
F070
E070
E070
E070
E070
E070
E070
E070
E070
E070
E070
E070
ENDCHAR
STARTCHAR 00F2
ENCODING 242
SWIDTH 612 0
DWIDTH 17 0
BBX 14 22 1 0
BITMAP
1C00
0E00
0300
0180
0000
0000
0000
0FC0
3FF0
7870
7038
E01C
E01C
E01C
E01C
E01C
E01C
E01C
7038
7878
3FF0
0FC0
ENDCHAR
STARTCHAR 00F3
ENCODING 243
SWIDTH 612 0
DWIDTH 17 0
BBX 14 22 1 0
BITMAP
00E0
0180
0300
0600
0000
0000
0000
0FC0
3FF0
7870
7038
E01C
E01C
E01C
E01C
E01C
E01C
E01C
7038
7878
3FF0
0FC0
ENDCHAR
STARTCHAR 00F4
ENCODING 244
SWIDTH 612 0
DWIDTH 17 0
BBX 14 22 1 0
BITMAP
0380
07C0
0E60
1830
0000
0000
0000
0FC0
3FF0
7870
7038
E01C
E01C
E01C
E01C
E01C
E01C
E01C
7038
7878
3FF0
0FC0
ENDCHAR
STARTCHAR 00F5
ENCODING 245
SWIDTH 612 0
DWIDTH 17 0
BBX 14 21 1 0
BITMAP
0E30
1FF0
18E0
0000
0000
0000
0FC0
3FF0
7870
7038
E01C
E01C
E01C
E01C
E01C
E01C
E01C
7038
7878
3FF0
0FC0
ENDCHAR
STARTCHAR 00F6
ENCODING 246
SWIDTH 612 0
DWIDTH 17 0
BBX 14 20 1 0
BITMAP
0C60
0C60
0000
0000
0000
0FC0
3FF0
7870
7038
E01C
E01C
E01C
E01C
E01C
E01C
E01C
7038
7878
3FF0
0FC0
ENDCHAR
STARTCHAR 00F7
ENCODING 247
SWIDTH 792 0
DWIDTH 22 0
BBX 15 16 3 0
BITMAP
0380
0380
0380
0000
0000
0000
0000
FFFE
FFFE
0000
0000
0000
0000
0380
0380
0380
ENDCHAR
STARTCHAR 00F8
ENCODING 248
SWIDTH 612 0
DWIDTH 17 0
BBX 14 15 1 0
BITMAP
0FDC
3FF8
7870
7078
E0FC
E1DC
E19C
E31C
E61C
EE1C
EC1C
7838
7878
7FF0
EFC0
ENDCHAR
STARTCHAR 00F9
ENCODING 249
SWIDTH 612 0
DWIDTH 17 0
BBX 12 22 2 0
BITMAP
3800
1C00
0600
0300
0000
0000
0000
E070
E070
E070
E070
E070
E070
E070
E070
E070
E070
E070
E0F0
E1F0
7F70
3C70
ENDCHAR
STARTCHAR 00FA
ENCODING 250
SWIDTH 612 0
DWIDTH 17 0
BBX 12 22 2 0
BITMAP
01C0
0300
0600
0C00
0000
0000
0000
E070
E070
E070
E070
E070
E070
E070
E070
E070
E070
E070
E0F0
E1F0
7F70
3C70
ENDCHAR
STARTCHAR 00FB
ENCODING 251
SWIDTH 612 0
DWIDTH 17 0
BBX 12 22 2 0
BITMAP
0700
0F80
1CC0
3060
0000
0000
0000
E070
E070
E070
E070
E070
E070
E070
E070
E070
E070
E070
E0F0
E1F0
7F70
3C70
ENDCHAR
STARTCHAR 00FC
ENCODING 252
SWIDTH 612 0
DWIDTH 17 0
BBX 12 20 2 0
BITMAP
18C0
18C0
0000
0000
0000
E070
E070
E070
E070
E070
E070
E070
E070
E070
E070
E070
E0F0
E1F0
7F70
3C70
ENDCHAR
STARTCHAR 00FD
ENCODING 253
SWIDTH 540 0
DWIDTH 15 0
BBX 14 27 0 -5
BITMAP
00E0
0180
0300
0600
0000
0000
0000
E00C
E01C
7018
7018
3030
3830
3870
1C60
1C60
0CC0
0EC0
0FC0
0780
0780
0300
0300
0600
0600
0E00
0C00
ENDCHAR
STARTCHAR 00FE
ENCODING 254
SWIDTH 648 0
DWIDTH 18 0
BBX 14 27 2 -5
BITMAP
E000
E000
E000
E000
E000
E000
E000
E3E0
EFF0
F878
F038
E01C
E01C
E01C
E01C
E01C
E01C
E018
E038
F870
FFF0
E7C0
E000
E000
E000
E000
E000
ENDCHAR
STARTCHAR 00FF
ENCODING 255
SWIDTH 540 0
DWIDTH 15 0
BBX 14 25 0 -5
BITMAP
0C60
0C60
0000
0000
0000
E00C
E01C
7018
7018
3030
3830
3870
1C60
1C60
0CC0
0EC0
0FC0
0780
0780
0300
0300
0600
0600
0E00
0C00
ENDCHAR
STARTCHAR 0100
ENCODING 256
SWIDTH 684 0
DWIDTH 19 0
BBX 19 24 0 0
BITMAP
07FC00
07FC00
000000
000000
006000
00F000
00F000
01F000
01B800
01B800
031C00
031C00
061C00
060E00
0C0E00
0C0700
1FFF00
1FFF00
380380
300380
3001C0
6001C0
6001C0
C000E0
ENDCHAR
STARTCHAR 0101
ENCODING 257
SWIDTH 540 0
DWIDTH 15 0
BBX 13 20 1 0
BITMAP
3FE0
3FE0
0000
0000
0000
1F80
7FC0
41E0
00E0
00E0
00E0
0FE0
3FE0
78E0
E0E0
E0E0
E0E0
F1E0
7F78
3C78
ENDCHAR
STARTCHAR 0102
ENCODING 258
SWIDTH 684 0
DWIDTH 19 0
BBX 19 26 0 0
BITMAP
060C00
071C00
03F800
01F000
000000
000000
006000
00F000
00F000
01F000
01B800
01B800
031C00
031C00
061C00
060E00
0C0E00
0C0700
1FFF00
1FFF00
380380
300380
3001C0
6001C0
6001C0
C000E0
ENDCHAR
STARTCHAR 0103
ENCODING 259
SWIDTH 540 0
DWIDTH 15 0
BBX 13 22 1 0
BITMAP
3060
38E0
1FC0
0F80
0000
0000
0000
1F80
7FC0
41E0
00E0
00E0
00E0
0FE0
3FE0
78E0
E0E0
E0E0
E0E0
F1E0
7F78
3C78
ENDCHAR
STARTCHAR 0104
ENCODING 260
SWIDTH 684 0
DWIDTH 19 0
BBX 19 25 0 -5
BITMAP
006000
00F000
00F000
01F000
01B800
01B800
031C00
031C00
061C00
060E00
0C0E00
0C0700
1FFF00
1FFF00
380380
300380
3001C0
6001C0
6001C0
C000E0
000080
000100
000300
000300
0001E0
ENDCHAR
STARTCHAR 0105
ENCODING 261
SWIDTH 540 0
DWIDTH 15 0
BBX 13 20 1 -5
BITMAP
1F80
7FC0
41E0
00E0
00E0
00E0
0FE0
3FE0
78E0
E0E0
E0E0
E0E0
F1E0
7F78
3C78
0020
0040
00C0
00C0
0078
ENDCHAR
STARTCHAR 0106
ENCODING 262
SWIDTH 684 0
DWIDTH 19 0
BBX 16 26 1 0
BITMAP
001C
0030
0060
00C0
0000
0000
03FC
0FFF
1E03
3800
7000
7000
E000
E000
E000
E000
E000
E000
E000
F000
7000
7800
3801
1E07
0FFE
03F8
ENDCHAR
STARTCHAR 0107
ENCODING 263
SWIDTH 504 0
DWIDTH 14 0
BBX 11 22 1 0
BITMAP
00E0
0180
0300
0600
0000
0000
0000
0FC0
3FE0
7820
7000
E000
E000
E000
E000
E000
E000
E000
7000
7820
3FE0
0FC0
ENDCHAR
STARTCHAR 0108
ENCODING 264
SWIDTH 684 0
DWIDTH 19 0
BBX 16 26 1 0
BITMAP
00E0
01F0
0398
060C
0000
0000
03FC
0FFF
1E03
3800
7000
7000
E000
E000
E000
E000
E000
E000
E000
F000
7000
7800
3801
1E07
0FFE
03F8
ENDCHAR
STARTCHAR 0109
ENCODING 265
SWIDTH 504 0
DWIDTH 14 0
BBX 11 22 1 0
BITMAP
0700
0F80
1CC0
3060
0000
0000
0000
0FC0
3FE0
7820
7000
E000
E000
E000
E000
E000
E000
E000
7000
7820
3FE0
0FC0
ENDCHAR
STARTCHAR 010A
ENCODING 266
SWIDTH 684 0
DWIDTH 19 0
BBX 16 25 1 0
BITMAP
00E0
00E0
00E0
0000
0000
03FC
0FFF
1E03
3800
7000
7000
E000
E000
E000
E000
E000
E000
E000
F000
7000
7800
3801
1E07
0FFE
03F8
ENDCHAR
STARTCHAR 010B
ENCODING 267
SWIDTH 504 0
DWIDTH 14 0
BBX 11 21 1 0
BITMAP
0380
0380
0380
0000
0000
0000
0FC0
3FE0
7820
7000
E000
E000
E000
E000
E000
E000
E000
7000
7820
3FE0
0FC0
ENDCHAR
STARTCHAR 010C
ENCODING 268
SWIDTH 684 0
DWIDTH 19 0
BBX 16 26 1 0
BITMAP
060C
0318
01F0
00E0
0000
0000
03FC
0FFF
1E03
3800
7000
7000
E000
E000
E000
E000
E000
E000
E000
F000
7000
7800
3801
1E07
0FFE
03F8
ENDCHAR
STARTCHAR 010D
ENCODING 269
SWIDTH 504 0
DWIDTH 14 0
BBX 11 22 1 0
BITMAP
60C0
3180
1F00
0E00
0000
0000
0000
0FC0
3FE0
7820
7000
E000
E000
E000
E000
E000
E000
E000
7000
7820
3FE0
0FC0
ENDCHAR
STARTCHAR 010E
ENCODING 270
SWIDTH 756 0
DWIDTH 21 0
BBX 17 26 2 0
BITMAP
183000
0C6000
07C000
038000
000000
000000
FFE000
FFF800
E03C00
E00E00
E00700
E00700
E00380
E00380
E00380
E00380
E00380
E00380
E00380
E00780
E00700
E00F00
E00E00
E03C00
FFF800
FFE000
ENDCHAR
STARTCHAR 010F
ENCODING 271
SWIDTH 720 0
DWIDTH 20 0
BBX 19 22 1 0
BITMAP
001CE0
001CE0
001CE0
001C60
001C60
001C40
001C80
0F9C00
3FDC00
787C00
701C00
E01C00
E01C00
E01C00
E01C00
E01C00
E01C00
E01C00
703C00
78FC00
3FDC00
1F9C00
ENDCHAR
STARTCHAR 0110
ENCODING 272
SWIDTH 756 0
DWIDTH 21 0
BBX 20 20 -1 0
BITMAP
1FFC00
1FFF00
1C0780
1C01C0
1C00E0
1C00E0
1C0070
1C0070
1C0070
FFE070
FFE070
1C0070
1C0070
1C00F0
1C00E0
1C01E0
1C01C0
1C0780
1FFF00
1FFC00
ENDCHAR
STARTCHAR 0111
ENCODING 273
SWIDTH 648 0
DWIDTH 18 0
BBX 16 22 1 0
BITMAP
001C
001C
001C
01FF
01FF
001C
001C
1F9C
3FDC
787C
701C
E01C
E01C
E01C
E01C
E01C
E01C
E01C
703C
78FC
3FDC
1F9C
ENDCHAR
STARTCHAR 0112
ENCODING 274
SWIDTH 540 0
DWIDTH 15 0
BBX 12 24 2 0
BITMAP
3FE0
3FE0
0000
0000
FFE0
FFE0
E000
E000
E000
E000
E000
E000
E000
FFC0
FFC0
E000
E000
E000
E000
E000
E000
E000
FFF0
FFF0
ENDCHAR
STARTCHAR 0113
ENCODING 275
SWIDTH 576 0
DWIDTH 16 0
BBX 13 20 1 0
BITMAP
1FF0
1FF0
0000
0000
0000
0FC0
3FE0
7870
7030
E038
E038
FFF8
FFF8
E000
E000
E000
7000
7808
3FF8
0FE0
ENDCHAR
STARTCHAR 0114
ENCODING 276
SWIDTH 540 0
DWIDTH 15 0
BBX 12 26 2 0
BITMAP
3060
38E0
1FC0
0F80
0000
0000
FFE0
FFE0
E000
E000
E000
E000
E000
E000
E000
FFC0
FFC0
E000
E000
E000
E000
E000
E000
E000
FFF0
FFF0
ENDCHAR
STARTCHAR 0115
ENCODING 277
SWIDTH 576 0
DWIDTH 16 0
BBX 13 22 1 0
BITMAP
1830
1C70
0FE0
07C0
0000
0000
0000
0FC0
3FE0
7870
7030
E038
E038
FFF8
FFF8
E000
E000
E000
7000
7808
3FF8
0FE0
ENDCHAR
STARTCHAR 0116
ENCODING 278
SWIDTH 540 0
DWIDTH 15 0
BBX 12 25 2 0
BITMAP
0700
0700
0700
0000
0000
FFE0
FFE0
E000
E000
E000
E000
E000
E000
E000
FFC0
FFC0
E000
E000
E000
E000
E000
E000
E000
FFF0
FFF0
ENDCHAR
STARTCHAR 0117
ENCODING 279
SWIDTH 576 0
DWIDTH 16 0
BBX 13 21 1 0
BITMAP
0380
0380
0380
0000
0000
0000
0FC0
3FE0
7870
7030
E038
E038
FFF8
FFF8
E000
E000
E000
7000
7808
3FF8
0FE0
ENDCHAR
STARTCHAR 0118
ENCODING 280
SWIDTH 540 0
DWIDTH 15 0
BBX 12 25 2 -5
BITMAP
FFE0
FFE0
E000
E000
E000
E000
E000
E000
E000
FFC0
FFC0
E000
E000
E000
E000
E000
E000
E000
FFF0
FFF0
0040
0080
0180
0180
00F0
ENDCHAR
STARTCHAR 0119
ENCODING 281
SWIDTH 576 0
DWIDTH 16 0
BBX 13 20 1 -5
BITMAP
0FC0
3FE0
7870
7030
E038
E038
FFF8
FFF8
E000
E000
E000
7000
7808
3FF8
0FE0
0080
0100
0300
0300
01E0
ENDCHAR
STARTCHAR 011A
ENCODING 282
SWIDTH 540 0
DWIDTH 15 0
BBX 12 26 2 0
BITMAP
3060
18C0
0F80
0700
0000
0000
FFE0
FFE0
E000
E000
E000
E000
E000
E000
E000
FFC0
FFC0
E000
E000
E000
E000
E000
E000
E000
FFF0
FFF0
ENDCHAR
STARTCHAR 011B
ENCODING 283
SWIDTH 576 0
DWIDTH 16 0
BBX 13 22 1 0
BITMAP
3060
18C0
0F80
0700
0000
0000
0000
0FC0
3FE0
7870
7030
E038
E038
FFF8
FFF8
E000
E000
E000
7000
7808
3FF8
0FE0
ENDCHAR
STARTCHAR 011C
ENCODING 284
SWIDTH 720 0
DWIDTH 20 0
BBX 16 26 1 0
BITMAP
00E0
01F0
0398
060C
0000
0000
03FC
0FFF
1E03
3800
7000
7000
E000
E000
E000
E000
E000
E007
E007
F007
7007
7807
3C07
1E07
0FFF
03FC
ENDCHAR
STARTCHAR 011D
ENCODING 285
SWIDTH 612 0
DWIDTH 17 0
BBX 13 27 1 -5
BITMAP
0380
07C0
0E60
1830
0000
0000
0000
1F38
3FF8
78F8
7038
F038
E038
E038
E038
E038
E038
E038
7078
70F8
3FB8
1F38
0038
0070
60F0
7FE0
3F80
ENDCHAR
STARTCHAR 011E
ENCODING 286
SWIDTH 720 0
DWIDTH 20 0
BBX 16 26 1 0
BITMAP
060C
071C
03F8
01F0
0000
0000
03FC
0FFF
1E03
3800
7000
7000
E000
E000
E000
E000
E000
E007
E007
F007
7007
7807
3C07
1E07
0FFF
03FC
ENDCHAR
STARTCHAR 011F
ENCODING 287
SWIDTH 612 0
DWIDTH 17 0
BBX 13 27 1 -5
BITMAP
3060
38E0
1FC0
0F80
0000
0000
0000
1F38
3FF8
78F8
7038
F038
E038
E038
E038
E038
E038
E038
7078
70F8
3FB8
1F38
0038
0070
60F0
7FE0
3F80
ENDCHAR
STARTCHAR 0120
ENCODING 288
SWIDTH 720 0
DWIDTH 20 0
BBX 16 25 1 0
BITMAP
00E0
00E0
00E0
0000
0000
03FC
0FFF
1E03
3800
7000
7000
E000
E000
E000
E000
E000
E007
E007
F007
7007
7807
3C07
1E07
0FFF
03FC
ENDCHAR
STARTCHAR 0121
ENCODING 289
SWIDTH 612 0
DWIDTH 17 0
BBX 13 26 1 -5
BITMAP
0700
0700
0700
0000
0000
0000
1F38
3FF8
78F8
7038
F038
E038
E038
E038
E038
E038
E038
7078
70F8
3FB8
1F38
0038
0070
60F0
7FE0
3F80
ENDCHAR
STARTCHAR 0122
ENCODING 290
SWIDTH 720 0
DWIDTH 20 0
BBX 16 30 1 -10
BITMAP
03FC
0FFF
1E03
3800
7000
7000
E000
E000
E000
E000
E000
E007
E007
F007
7007
7807
3C07
1E07
0FFF
03FC
0000
0000
0000
00E0
00E0
00E0
0060
0060
0040
0080
ENDCHAR
STARTCHAR 0123
ENCODING 291
SWIDTH 612 0
DWIDTH 17 0
BBX 13 29 1 -5
BITMAP
0100
0200
0600
0600
0700
0700
0700
0000
0000
1F38
3FF8
78F8
7038
F038
E038
E038
E038
E038
E038
E038
7078
70F8
3FB8
1F38
0038
0070
60F0
7FE0
3F80
ENDCHAR
STARTCHAR 0124
ENCODING 292
SWIDTH 756 0
DWIDTH 21 0
BBX 16 26 2 0
BITMAP
01C0
03E0
0730
0C18
0000
0000
E007
E007
E007
E007
E007
E007
E007
E007
E007
FFFF
FFFF
E007
E007
E007
E007
E007
E007
E007
E007
E007
ENDCHAR
STARTCHAR 0125
ENCODING 293
SWIDTH 612 0
DWIDTH 17 0
BBX 12 27 2 0
BITMAP
0700
0F80
1CC0
3060
0000
E000
E000
E000
E000
E000
E000
E000
E3C0
EFE0
F870
F070
E070
E070
E070
E070
E070
E070
E070
E070
E070
E070
E070
ENDCHAR
STARTCHAR 0126
ENCODING 294
SWIDTH 792 0
DWIDTH 22 0
BBX 22 20 0 0
BITMAP
1C00E0
1C00E0
1C00E0
1C00E0
FFFFFC
FFFFFC
1C00E0
1C00E0
1C00E0
1FFFE0
1FFFE0
1C00E0
1C00E0
1C00E0
1C00E0
1C00E0
1C00E0
1C00E0
1C00E0
1C00E0
ENDCHAR
STARTCHAR 0127
ENCODING 295
SWIDTH 612 0
DWIDTH 17 0
BBX 14 22 0 0
BITMAP
3800
3800
3800
FF80
FF80
3800
3800
38F0
3BF8
3E1C
3C1C
381C
381C
381C
381C
381C
381C
381C
381C
381C
381C
381C
ENDCHAR
STARTCHAR 0128
ENCODING 296
SWIDTH 288 0
DWIDTH 8 0
BBX 9 25 -1 0
BITMAP
7180
FF80
C700
0000
0000
1C00
1C00
1C00
1C00
1C00
1C00
1C00
1C00
1C00
1C00
1C00
1C00
1C00
1C00
1C00
1C00
1C00
1C00
1C00
1C00
ENDCHAR
STARTCHAR 0129
ENCODING 297
SWIDTH 288 0
DWIDTH 8 0
BBX 9 21 -1 0
BITMAP
7180
FF80
C700
0000
0000
0000
1C00
1C00
1C00
1C00
1C00
1C00
1C00
1C00
1C00
1C00
1C00
1C00
1C00
1C00
1C00
ENDCHAR
STARTCHAR 012A
ENCODING 298
SWIDTH 288 0
DWIDTH 8 0
BBX 9 24 -1 0
BITMAP
FF80
FF80
0000
0000
1C00
1C00
1C00
1C00
1C00
1C00
1C00
1C00
1C00
1C00
1C00
1C00
1C00
1C00
1C00
1C00
1C00
1C00
1C00
1C00
ENDCHAR
STARTCHAR 012B
ENCODING 299
SWIDTH 288 0
DWIDTH 8 0
BBX 9 20 -1 0
BITMAP
FF80
FF80
0000
0000
0000
1C00
1C00
1C00
1C00
1C00
1C00
1C00
1C00
1C00
1C00
1C00
1C00
1C00
1C00
1C00
ENDCHAR
STARTCHAR 012C
ENCODING 300
SWIDTH 288 0
DWIDTH 8 0
BBX 9 26 -1 0
BITMAP
C180
E380
7F00
3E00
0000
0000
1C00
1C00
1C00
1C00
1C00
1C00
1C00
1C00
1C00
1C00
1C00
1C00
1C00
1C00
1C00
1C00
1C00
1C00
1C00
1C00
ENDCHAR
STARTCHAR 012D
ENCODING 301
SWIDTH 288 0
DWIDTH 8 0
BBX 9 22 -1 0
BITMAP
C180
E380
7F00
3E00
0000
0000
0000
1C00
1C00
1C00
1C00
1C00
1C00
1C00
1C00
1C00
1C00
1C00
1C00
1C00
1C00
1C00
ENDCHAR
STARTCHAR 012E
ENCODING 302
SWIDTH 288 0
DWIDTH 8 0
BBX 5 25 1 -5
BITMAP
70
70
70
70
70
70
70
70
70
70
70
70
70
70
70
70
70
70
70
70
20
40
C0
C0
78
ENDCHAR
STARTCHAR 012F
ENCODING 303
SWIDTH 288 0
DWIDTH 8 0
BBX 5 25 1 -5
BITMAP
70
70
70
00
00
70
70
70
70
70
70
70
70
70
70
70
70
70
70
70
20
40
C0
C0
78
ENDCHAR
STARTCHAR 0130
ENCODING 304
SWIDTH 288 0
DWIDTH 8 0
BBX 3 25 2 0
BITMAP
E0
E0
E0
00
00
E0
E0
E0
E0
E0
E0
E0
E0
E0
E0
E0
E0
E0
E0
E0
E0
E0
E0
E0
E0
ENDCHAR
STARTCHAR 0131
ENCODING 305
SWIDTH 288 0
DWIDTH 8 0
BBX 3 15 2 0
BITMAP
E0
E0
E0
E0
E0
E0
E0
E0
E0
E0
E0
E0
E0
E0
E0
ENDCHAR
STARTCHAR 0132
ENCODING 306
SWIDTH 612 0
DWIDTH 17 0
BBX 12 24 2 -4
BITMAP
E070
E070
E070
E070
E070
E070
E070
E070
E070
E070
E070
E070
E070
E070
E070
E070
E070
E070
E070
E070
0070
10E0
1FC0
0F80
ENDCHAR
STARTCHAR 0133
ENCODING 307
SWIDTH 576 0
DWIDTH 16 0
BBX 11 25 2 -5
BITMAP
E0E0
E0E0
E0E0
0000
0000
E0E0
E0E0
E0E0
E0E0
E0E0
E0E0
E0E0
E0E0
E0E0
E0E0
E0E0
E0E0
E0E0
E0E0
E0E0
00E0
00E0
11C0
1FC0
0F80
ENDCHAR
STARTCHAR 0134
ENCODING 308
SWIDTH 324 0
DWIDTH 9 0
BBX 12 30 -3 -4
BITMAP
0380
07C0
0E60
1830
0000
0000
0380
0380
0380
0380
0380
0380
0380
0380
0380
0380
0380
0380
0380
0380
0380
0380
0380
0380
0380
0380
0380
8700
FE00
7C00
ENDCHAR
STARTCHAR 0135
ENCODING 309
SWIDTH 324 0
DWIDTH 9 0
BBX 11 27 -2 -5
BITMAP
0700
0F80
18C0
3060
0000
0000
0000
0700
0700
0700
0700
0700
0700
0700
0700
0700
0700
0700
0700
0700
0700
0700
0700
0700
8E00
FE00
7C00
ENDCHAR
STARTCHAR 0136
ENCODING 310
SWIDTH 648 0
DWIDTH 18 0
BBX 15 30 2 -10
BITMAP
E01C
E038
E070
E0E0
E0C0
E180
E300
E700
EE00
FC00
EC00
EE00
E700
E380
E1C0
E0E0
E070
E038
E01C
E00E
0000
0000
0000
0700
0700
0700
0300
0300
0200
0400
ENDCHAR
STARTCHAR 0137
ENCODING 311
SWIDTH 576 0
DWIDTH 16 0
BBX 13 32 2 -10
BITMAP
E000
E000
E000
E000
E000
E000
E000
E070
E0E0
E0C0
E180
E300
E600
EC00
FC00
EE00
E700
E380
E1C0
E0E0
E070
E038
0000
0000
0000
0700
0700
0700
0300
0300
0200
0400
ENDCHAR
STARTCHAR 0138
ENCODING 312
SWIDTH 576 0
DWIDTH 16 0
BBX 13 15 2 0
BITMAP
E070
E0E0
E0C0
E180
E300
E600
EC00
FC00
EE00
E700
E380
E1C0
E0E0
E070
E038
ENDCHAR
STARTCHAR 0139
ENCODING 313
SWIDTH 540 0
DWIDTH 15 0
BBX 12 26 2 0
BITMAP
1C00
3000
6000
C000
0000
0000
E000
E000
E000
E000
E000
E000
E000
E000
E000
E000
E000
E000
E000
E000
E000
E000
E000
E000
FFF0
FFF0
ENDCHAR
STARTCHAR 013A
ENCODING 314
SWIDTH 288 0
DWIDTH 8 0
BBX 6 27 2 0
BITMAP
1C
30
60
C0
00
E0
E0
E0
E0
E0
E0
E0
E0
E0
E0
E0
E0
E0
E0
E0
E0
E0
E0
E0
E0
E0
E0
ENDCHAR
STARTCHAR 013B
ENCODING 315
SWIDTH 540 0
DWIDTH 15 0
BBX 12 30 2 -10
BITMAP
E000
E000
E000
E000
E000
E000
E000
E000
E000
E000
E000
E000
E000
E000
E000
E000
E000
E000
FFF0
FFF0
0000
0000
0000
0E00
0E00
0E00
0600
0600
0400
0800
ENDCHAR
STARTCHAR 013C
ENCODING 316
SWIDTH 288 0
DWIDTH 8 0
BBX 3 32 2 -10
BITMAP
E0
E0
E0
E0
E0
E0
E0
E0
E0
E0
E0
E0
E0
E0
E0
E0
E0
E0
E0
E0
E0
E0
00
00
00
E0
E0
E0
60
60
40
80
ENDCHAR
STARTCHAR 013D
ENCODING 317
SWIDTH 540 0
DWIDTH 15 0
BBX 12 20 2 0
BITMAP
E380
E380
E380
E180
E180
E300
E000
E000
E000
E000
E000
E000
E000
E000
E000
E000
E000
E000
FFF0
FFF0
ENDCHAR
STARTCHAR 013E
ENCODING 318
SWIDTH 360 0
DWIDTH 10 0
BBX 7 22 2 0
BITMAP
EE
EE
EE
E6
E6
EC
E0
E0
E0
E0
E0
E0
E0
E0
E0
E0
E0
E0
E0
E0
E0
E0
ENDCHAR
STARTCHAR 013F
ENCODING 319
SWIDTH 540 0
DWIDTH 15 0
BBX 12 20 2 0
BITMAP
E000
E000
E000
E000
E000
E000
E000
E000
E0E0
E0E0
E0E0
E000
E000
E000
E000
E000
E000
E000
FFF0
FFF0
ENDCHAR
STARTCHAR 0140
ENCODING 320
SWIDTH 396 0
DWIDTH 11 0
BBX 9 22 2 0
BITMAP
E000
E000
E000
E000
E000
E000
E000
E000
E000
E380
E380
E380
E000
E000
E000
E000
E000
E000
E000
E000
E000
E000
ENDCHAR
STARTCHAR 0141
ENCODING 321
SWIDTH 540 0
DWIDTH 15 0
BBX 14 20 0 0
BITMAP
1C00
1C00
1C00
1C00
1C00
1C80
1F80
1F00
3E00
7C00
FC00
9C00
1C00
1C00
1C00
1C00
1C00
1C00
1FFC
1FFC
ENDCHAR
STARTCHAR 0142
ENCODING 322
SWIDTH 324 0
DWIDTH 9 0
BBX 9 22 0 0
BITMAP
1C00
1C00
1C00
1C00
1C00
1C00
1C00
1C80
1F80
1F00
3E00
7C00
FC00
9C00
1C00
1C00
1C00
1C00
1C00
1C00
1C00
1C00
ENDCHAR
STARTCHAR 0143
ENCODING 323
SWIDTH 756 0
DWIDTH 21 0
BBX 16 26 2 0
BITMAP
0070
00C0
0180
0300
0000
0000
E003
E003
F003
F803
DC03
DC03
CE03
C703
C303
C383
C1C3
C0C3
C0E3
C073
C03B
C03B
C01F
C00F
C007
C007
ENDCHAR
STARTCHAR 0144
ENCODING 324
SWIDTH 612 0
DWIDTH 17 0
BBX 12 22 2 0
BITMAP
01C0
0300
0600
0C00
0000
0000
0000
E3C0
EFE0
F870
F070
E070
E070
E070
E070
E070
E070
E070
E070
E070
E070
E070
ENDCHAR
STARTCHAR 0145
ENCODING 325
SWIDTH 756 0
DWIDTH 21 0
BBX 16 30 2 -10
BITMAP
E003
E003
F003
F803
DC03
DC03
CE03
C703
C303
C383
C1C3
C0C3
C0E3
C073
C03B
C03B
C01F
C00F
C007
C007
0000
0000
0000
01C0
01C0
01C0
00C0
00C0
0080
0100
ENDCHAR
STARTCHAR 0146
ENCODING 326
SWIDTH 612 0
DWIDTH 17 0
BBX 12 25 2 -10
BITMAP
E3C0
EFE0
F870
F070
E070
E070
E070
E070
E070
E070
E070
E070
E070
E070
E070
0000
0000
0000
0700
0700
0700
0300
0300
0200
0400
ENDCHAR
STARTCHAR 0147
ENCODING 327
SWIDTH 756 0
DWIDTH 21 0
BBX 16 26 2 0
BITMAP
0C18
0630
03E0
01C0
0000
0000
E003
E003
F003
F803
DC03
DC03
CE03
C703
C303
C383
C1C3
C0C3
C0E3
C073
C03B
C03B
C01F
C00F
C007
C007
ENDCHAR
STARTCHAR 0148
ENCODING 328
SWIDTH 612 0
DWIDTH 17 0
BBX 12 22 2 0
BITMAP
3060
18C0
0F80
0700
0000
0000
0000
E3C0
EFE0
F870
F070
E070
E070
E070
E070
E070
E070
E070
E070
E070
E070
E070
ENDCHAR
STARTCHAR 0149
ENCODING 329
SWIDTH 684 0
DWIDTH 19 0
BBX 17 22 -1 0
BITMAP
E00000
E00000
E00000
600000
600000
C00000
000000
071E00
077F00
07C380
078380
070380
070380
070380
070380
070380
070380
070380
070380
070380
070380
070380
ENDCHAR
STARTCHAR 014A
ENCODING 330
SWIDTH 756 0
DWIDTH 21 0
BBX 16 26 2 -6
BITMAP
E003
E003
F003
F803
DC03
DC03
CE03
C703
C703
C383
C1C3
C0E3
C0E3
C073
C03B
C03B
C01F
C00F
C007
C007
0003
0003
0003
0007
003E
003C
ENDCHAR
STARTCHAR 014B
ENCODING 331
SWIDTH 612 0
DWIDTH 17 0
BBX 12 21 2 -6
BITMAP
E3C0
EFE0
F870
F070
E070
E070
E070
E070
E070
E070
E070
E070
E070
E070
E070
0070
0070
0070
00F0
03E0
03C0
ENDCHAR
STARTCHAR 014C
ENCODING 332
SWIDTH 792 0
DWIDTH 22 0
BBX 19 24 1 0
BITMAP
07FC00
07FC00
000000
000000
03F800
0FFE00
1E0F00
380380
7001C0
7001C0
E000E0
E000E0
E000E0
E000E0
E000E0
E000E0
E000E0
E000E0
7001C0
7001C0
380380
1E0F00
0FFE00
03F800
ENDCHAR
STARTCHAR 014D
ENCODING 333
SWIDTH 612 0
DWIDTH 17 0
BBX 14 19 1 0
BITMAP
1FF0
1FF0
0000
0000
0FC0
3FF0
7870
7038
E01C
E01C
E01C
E01C
E01C
E01C
E01C
7038
7878
3FF0
0FC0
ENDCHAR
STARTCHAR 014E
ENCODING 334
SWIDTH 792 0
DWIDTH 22 0
BBX 19 26 1 0
BITMAP
060C00
071C00
03F800
01F000
000000
000000
03F800
0FFE00
1E0F00
380380
7001C0
7001C0
E000E0
E000E0
E000E0
E000E0
E000E0
E000E0
E000E0
E000E0
7001C0
7001C0
380380
1E0F00
0FFE00
03F800
ENDCHAR
STARTCHAR 014F
ENCODING 335
SWIDTH 612 0
DWIDTH 17 0
BBX 14 22 1 0
BITMAP
1830
1C70
0FE0
07C0
0000
0000
0000
0FC0
3FF0
7870
7038
E01C
E01C
E01C
E01C
E01C
E01C
E01C
7038
7878
3FF0
0FC0
ENDCHAR
STARTCHAR 0150
ENCODING 336
SWIDTH 792 0
DWIDTH 22 0
BBX 19 26 1 0
BITMAP
007380
00E700
01CE00
039C00
000000
000000
03F800
0FFE00
1E0F00
380380
7001C0
7001C0
E000E0
E000E0
E000E0
E000E0
E000E0
E000E0
E000E0
E000E0
7001C0
7001C0
380380
1E0F00
0FFE00
03F800
ENDCHAR
STARTCHAR 0151
ENCODING 337
SWIDTH 612 0
DWIDTH 17 0
BBX 14 21 1 0
BITMAP
039C
0738
0E70
1CE0
0000
0000
0FC0
3FF0
7870
7038
E01C
E01C
E01C
E01C
E01C
E01C
E01C
7038
7878
3FF0
0FC0
ENDCHAR
STARTCHAR 0152
ENCODING 338
SWIDTH 1008 0
DWIDTH 28 0
BBX 26 20 1 0
BITMAP
03F3FF80
0FFFFF80
1E0F8000
38078000
70078000
70038000
E0038000
E0038000
E0038000
E003FF00
E003FF00
E0038000
E0038000
E0038000
70038000
70078000
38078000
1E0F8000
0FFFFFC0
03F3FFC0
ENDCHAR
STARTCHAR 0153
ENCODING 339
SWIDTH 936 0
DWIDTH 26 0
BBX 23 15 1 0
BITMAP
0FC1F0
1FE7F8
387F1C
703E0C
F01C0E
E01C0E
E01FFE
E01FFE
E01C00
E01C00
F01C00
703E00
387702
1FE3FE
0FC1F8
ENDCHAR
STARTCHAR 0154
ENCODING 340
SWIDTH 648 0
DWIDTH 18 0
BBX 15 26 2 0
BITMAP
01C0
0300
0600
0C00
0000
0000
FF80
FFE0
E0F0
E070
E070
E070
E070
E0E0
E1E0
FF80
FF00
E380
E1C0
E0C0
E0E0
E070
E038
E038
E01C
E00E
ENDCHAR
STARTCHAR 0155
ENCODING 341
SWIDTH 396 0
DWIDTH 11 0
BBX 8 22 2 0
BITMAP
07
0C
18
30
00
00
00
E7
EF
F8
F0
E0
E0
E0
E0
E0
E0
E0
E0
E0
E0
E0
ENDCHAR
STARTCHAR 0156
ENCODING 342
SWIDTH 648 0
DWIDTH 18 0
BBX 15 30 2 -10
BITMAP
FF80
FFE0
E0F0
E070
E070
E070
E070
E0E0
E1E0
FF80
FF00
E380
E1C0
E0C0
E0E0
E070
E038
E038
E01C
E00E
0000
0000
0000
0700
0700
0700
0300
0300
0200
0400
ENDCHAR
STARTCHAR 0157
ENCODING 343
SWIDTH 396 0
DWIDTH 11 0
BBX 8 25 2 -10
BITMAP
E7
EF
F8
F0
E0
E0
E0
E0
E0
E0
E0
E0
E0
E0
E0
00
00
00
E0
E0
E0
60
60
40
80
ENDCHAR
STARTCHAR 0158
ENCODING 344
SWIDTH 648 0
DWIDTH 18 0
BBX 15 26 2 0
BITMAP
60C0
3180
1F00
0E00
0000
0000
FF80
FFE0
E0F0
E070
E070
E070
E070
E0E0
E1E0
FF80
FF00
E380
E1C0
E0C0
E0E0
E070
E038
E038
E01C
E00E
ENDCHAR
STARTCHAR 0159
ENCODING 345
SWIDTH 396 0
DWIDTH 11 0
BBX 9 22 2 0
BITMAP
C180
6300
3E00
1C00
0000
0000
0000
E700
EF00
F800
F000
E000
E000
E000
E000
E000
E000
E000
E000
E000
E000
E000
ENDCHAR
STARTCHAR 015A
ENCODING 346
SWIDTH 540 0
DWIDTH 15 0
BBX 12 26 1 0
BITMAP
00E0
0180
0300
0600
0000
0000
1F80
3FE0
7060
E000
E000
E000
F000
7800
3E00
1F80
07C0
03E0
00F0
0070
0070
0070
8070
E0E0
7FC0
1F00
ENDCHAR
STARTCHAR 015B
ENCODING 347
SWIDTH 504 0
DWIDTH 14 0
BBX 10 22 2 0
BITMAP
0380
0600
0C00
1800
0000
0000
0000
3F00
7F80
F080
E000
E000
F000
7C00
3F00
0F80
03C0
01C0
01C0
83C0
FF80
7E00
ENDCHAR
STARTCHAR 015C
ENCODING 348
SWIDTH 540 0
DWIDTH 15 0
BBX 12 26 1 0
BITMAP
0700
0F80
1CC0
3060
0000
0000
1F80
3FE0
7060
E000
E000
E000
F000
7800
3E00
1F80
07C0
03E0
00F0
0070
0070
0070
8070
E0E0
7FC0
1F00
ENDCHAR
STARTCHAR 015D
ENCODING 349
SWIDTH 504 0
DWIDTH 14 0
BBX 10 22 2 0
BITMAP
0E00
1F00
3980
60C0
0000
0000
0000
3F00
7F80
F080
E000
E000
F000
7C00
3F00
0F80
03C0
01C0
01C0
83C0
FF80
7E00
ENDCHAR
STARTCHAR 015E
ENCODING 350
SWIDTH 540 0
DWIDTH 15 0
BBX 12 26 1 -6
BITMAP
1F80
3FE0
7060
E000
E000
E000
F000
7800
3E00
1F80
07C0
03E0
00F0
0070
0070
0070
8070
E0E0
7FC0
1F00
0400
0F00
0380
0180
0180
0F00
ENDCHAR
STARTCHAR 015F
ENCODING 351
SWIDTH 504 0
DWIDTH 14 0
BBX 10 21 2 -6
BITMAP
3F00
7F80
F080
E000
E000
F000
7C00
3F00
0F80
03C0
01C0
01C0
83C0
FF80
7E00
0800
1E00
0700
0300
0300
1E00
ENDCHAR
STARTCHAR 0160
ENCODING 352
SWIDTH 540 0
DWIDTH 15 0
BBX 12 26 1 0
BITMAP
60C0
3180
1F00
0E00
0000
0000
1F80
3FE0
7060
E000
E000
E000
F000
7800
3E00
1F80
07C0
03E0
00F0
0070
0070
0070
8070
E0E0
7FC0
1F00
ENDCHAR
STARTCHAR 0161
ENCODING 353
SWIDTH 504 0
DWIDTH 14 0
BBX 10 22 2 0
BITMAP
60C0
3180
1F00
0E00
0000
0000
0000
3F00
7F80
F080
E000
E000
F000
7C00
3F00
0F80
03C0
01C0
01C0
83C0
FF80
7E00
ENDCHAR
STARTCHAR 0162
ENCODING 354
SWIDTH 648 0
DWIDTH 18 0
BBX 17 26 0 -6
BITMAP
FFFF80
FFFF80
01C000
01C000
01C000
01C000
01C000
01C000
01C000
01C000
01C000
01C000
01C000
01C000
01C000
01C000
01C000
01C000
01C000
01C000
008000
01E000
007000
003000
003000
01E000
ENDCHAR
STARTCHAR 0163
ENCODING 355
SWIDTH 360 0
DWIDTH 10 0
BBX 9 24 0 -6
BITMAP
3800
3800
3800
FF00
FF00
3800
3800
3800
3800
3800
3800
3800
3800
3800
3800
3C00
1F00
0F00
0400
0F00
0380
0180
0180
0F00
ENDCHAR
STARTCHAR 0164
ENCODING 356
SWIDTH 648 0
DWIDTH 18 0
BBX 17 26 0 0
BITMAP
0C1800
063000
03E000
01C000
000000
000000
FFFF80
FFFF80
01C000
01C000
01C000
01C000
01C000
01C000
01C000
01C000
01C000
01C000
01C000
01C000
01C000
01C000
01C000
01C000
01C000
01C000
ENDCHAR
STARTCHAR 0165
ENCODING 357
SWIDTH 396 0
DWIDTH 11 0
BBX 9 23 0 0
BITMAP
0380
0380
0380
0180
0180
3B00
3800
3800
FF00
FF00
3800
3800
3800
3800
3800
3800
3800
3800
3800
3800
3C00
1F00
0F00
ENDCHAR
STARTCHAR 0166
ENCODING 358
SWIDTH 648 0
DWIDTH 18 0
BBX 17 20 0 0
BITMAP
FFFF80
FFFF80
01C000
01C000
01C000
01C000
01C000
01C000
1FFC00
1FFC00
01C000
01C000
01C000
01C000
01C000
01C000
01C000
01C000
01C000
01C000
ENDCHAR
STARTCHAR 0167
ENCODING 359
SWIDTH 360 0
DWIDTH 10 0
BBX 8 18 0 0
BITMAP
38
38
38
FF
FF
38
38
38
FF
FF
38
38
38
38
38
3C
1F
0F
ENDCHAR
STARTCHAR 0168
ENCODING 360
SWIDTH 684 0
DWIDTH 19 0
BBX 14 25 2 0
BITMAP
0E30
1FF0
18E0
0000
0000
E00C
E00C
E00C
E00C
E00C
E00C
E00C
E00C
E00C
E00C
E00C
E00C
E00C
E00C
E00C
E00C
7018
7838
3FF0
0FC0
ENDCHAR
STARTCHAR 0169
ENCODING 361
SWIDTH 612 0
DWIDTH 17 0
BBX 12 21 2 0
BITMAP
1C60
3FE0
31C0
0000
0000
0000
E070
E070
E070
E070
E070
E070
E070
E070
E070
E070
E070
E0F0
E1F0
7F70
3C70
ENDCHAR
STARTCHAR 016A
ENCODING 362
SWIDTH 684 0
DWIDTH 19 0
BBX 14 24 2 0
BITMAP
1FF0
1FF0
0000
0000
E00C
E00C
E00C
E00C
E00C
E00C
E00C
E00C
E00C
E00C
E00C
E00C
E00C
E00C
E00C
E00C
7018
7838
3FF0
0FC0
ENDCHAR
STARTCHAR 016B
ENCODING 363
SWIDTH 612 0
DWIDTH 17 0
BBX 12 20 2 0
BITMAP
3FE0
3FE0
0000
0000
0000
E070
E070
E070
E070
E070
E070
E070
E070
E070
E070
E070
E0F0
E1F0
7F70
3C70
ENDCHAR
STARTCHAR 016C
ENCODING 364
SWIDTH 684 0
DWIDTH 19 0
BBX 14 26 2 0
BITMAP
1830
1C70
0FE0
07C0
0000
0000
E00C
E00C
E00C
E00C
E00C
E00C
E00C
E00C
E00C
E00C
E00C
E00C
E00C
E00C
E00C
E00C
7018
7838
3FF0
0FC0
ENDCHAR
STARTCHAR 016D
ENCODING 365
SWIDTH 612 0
DWIDTH 17 0
BBX 12 22 2 0
BITMAP
3060
38E0
1FC0
0F80
0000
0000
0000
E070
E070
E070
E070
E070
E070
E070
E070
E070
E070
E070
E0F0
E1F0
7F70
3C70
ENDCHAR
STARTCHAR 016E
ENCODING 366
SWIDTH 684 0
DWIDTH 19 0
BBX 14 28 2 0
BITMAP
0780
0CC0
0840
0840
0CC0
0780
0000
0000
E00C
E00C
E00C
E00C
E00C
E00C
E00C
E00C
E00C
E00C
E00C
E00C
E00C
E00C
E00C
E00C
7018
7838
3FF0
0FC0
ENDCHAR
STARTCHAR 016F
ENCODING 367
SWIDTH 612 0
DWIDTH 17 0
BBX 12 24 2 0
BITMAP
0F00
1980
1080
1080
1980
0F00
0000
0000
0000
E070
E070
E070
E070
E070
E070
E070
E070
E070
E070
E070
E0F0
E1F0
7F70
3C70
ENDCHAR
STARTCHAR 0170
ENCODING 368
SWIDTH 684 0
DWIDTH 19 0
BBX 15 26 2 0
BITMAP
01CE
039C
0738
0E70
0000
0000
E00C
E00C
E00C
E00C
E00C
E00C
E00C
E00C
E00C
E00C
E00C
E00C
E00C
E00C
E00C
E00C
7018
7838
3FF0
0FC0
ENDCHAR
STARTCHAR 0171
ENCODING 369
SWIDTH 612 0
DWIDTH 17 0
BBX 13 22 2 0
BITMAP
0738
0E70
1CE0
39C0
0000
0000
0000
E070
E070
E070
E070
E070
E070
E070
E070
E070
E070
E070
E0F0
E1F0
7F70
3C70
ENDCHAR
STARTCHAR 0172
ENCODING 370
SWIDTH 684 0
DWIDTH 19 0
BBX 14 25 2 -5
BITMAP
E00C
E00C
E00C
E00C
E00C
E00C
E00C
E00C
E00C
E00C
E00C
E00C
E00C
E00C
E00C
E00C
7018
7838
3FF0
0FC0
0040
0080
0180
0180
00F0
ENDCHAR
STARTCHAR 0173
ENCODING 371
SWIDTH 612 0
DWIDTH 17 0
BBX 12 20 2 -5
BITMAP
E070
E070
E070
E070
E070
E070
E070
E070
E070
E070
E070
E0F0
E1F0
7F70
3C70
0040
0080
0180
0180
00F0
ENDCHAR
STARTCHAR 0174
ENCODING 372
SWIDTH 864 0
DWIDTH 24 0
BBX 25 26 0 0
BITMAP
001C0000
003E0000
00730000
00C18000
00000000
00000000
E01C0180
F01E0380
701E0300
701E0300
70360300
38370700
38370600
38370600
38638E00
1C638C00
1C638C00
1C638C00
0EC1DC00
0EC1D800
0EC1D800
0EC0F800
0780F000
0780F000
0780F000
03807000
ENDCHAR
STARTCHAR 0175
ENCODING 373
SWIDTH 792 0
DWIDTH 22 0
BBX 21 22 0 0
BITMAP
007000
00F800
01CC00
030600
000000
000000
000000
E07818
E07838
707830
70D830
70DC30
38DC60
38DC60
39CC60
1D8EE0
1D8EC0
1D8EC0
1D86C0
0F0780
0F0780
0F0780
ENDCHAR
STARTCHAR 0176
ENCODING 374
SWIDTH 612 0
DWIDTH 17 0
BBX 17 26 0 0
BITMAP
00E000
01F000
039800
060C00
000000
000000
E00380
700300
380600
380E00
1C0C00
0E1800
0E1800
073000
077000
03E000
01C000
01C000
01C000
01C000
01C000
01C000
01C000
01C000
01C000
01C000
ENDCHAR
STARTCHAR 0177
ENCODING 375
SWIDTH 540 0
DWIDTH 15 0
BBX 14 27 0 -5
BITMAP
0380
07C0
0E60
1830
0000
0000
0000
E00C
E01C
7018
7018
3030
3830
3870
1C60
1C60
0CC0
0EC0
0FC0
0780
0780
0300
0300
0600
0600
0E00
0C00
ENDCHAR
STARTCHAR 0178
ENCODING 376
SWIDTH 612 0
DWIDTH 17 0
BBX 17 24 0 0
BITMAP
063000
063000
000000
000000
E00380
700300
380600
380E00
1C0C00
0E1800
0E1800
073000
077000
03E000
01C000
01C000
01C000
01C000
01C000
01C000
01C000
01C000
01C000
01C000
ENDCHAR
STARTCHAR 0179
ENCODING 377
SWIDTH 612 0
DWIDTH 17 0
BBX 14 26 1 0
BITMAP
0070
00C0
0180
0300
0000
0000
7FFC
7FFC
001C
0038
0070
0070
00E0
01C0
03C0
0380
0700
0F00
0E00
1C00
3800
3800
7000
E000
FFFC
FFFC
ENDCHAR
STARTCHAR 017A
ENCODING 378
SWIDTH 576 0
DWIDTH 16 0
BBX 13 22 1 0
BITMAP
00E0
0180
0300
0600
0000
0000
0000
FFF8
FFF8
0038
0070
00E0
01C0
0380
0700
0E00
1C00
3800
7000
E000
FFF8
FFF8
ENDCHAR
STARTCHAR 017B
ENCODING 379
SWIDTH 612 0
DWIDTH 17 0
BBX 14 25 1 0
BITMAP
0380
0380
0380
0000
0000
7FFC
7FFC
001C
0038
0070
0070
00E0
01C0
03C0
0380
0700
0F00
0E00
1C00
3800
3800
7000
E000
FFFC
FFFC
ENDCHAR
STARTCHAR 017C
ENCODING 380
SWIDTH 576 0
DWIDTH 16 0
BBX 13 21 1 0
BITMAP
0700
0700
0700
0000
0000
0000
FFF8
FFF8
0038
0070
00E0
01C0
0380
0700
0E00
1C00
3800
7000
E000
FFF8
FFF8
ENDCHAR
STARTCHAR 017D
ENCODING 381
SWIDTH 612 0
DWIDTH 17 0
BBX 14 26 1 0
BITMAP
1830
0C60
07C0
0380
0000
0000
7FFC
7FFC
001C
0038
0070
0070
00E0
01C0
03C0
0380
0700
0F00
0E00
1C00
3800
3800
7000
E000
FFFC
FFFC
ENDCHAR
STARTCHAR 017E
ENCODING 382
SWIDTH 576 0
DWIDTH 16 0
BBX 13 22 1 0
BITMAP
3060
18C0
0F80
0700
0000
0000
0000
FFF8
FFF8
0038
0070
00E0
01C0
0380
0700
0E00
1C00
3800
7000
E000
FFF8
FFF8
ENDCHAR
STARTCHAR 017F
ENCODING 383
SWIDTH 324 0
DWIDTH 9 0
BBX 10 22 1 0
BITMAP
0F80
1FC0
3C40
3800
3800
3800
3800
F800
F800
3800
3800
3800
3800
3800
3800
3800
3800
3800
3800
3800
3800
3800
ENDCHAR
STARTCHAR 0192
ENCODING 402
SWIDTH 648 0
DWIDTH 18 0
BBX 13 24 3 -4
BITMAP
00F0
03F8
0788
0700
0E00
0E00
0E00
1C00
1C00
FFC0
FFC0
1C00
3800
3800
3800
3800
3800
7000
7000
7000
7000
7000
E000
E000
ENDCHAR
STARTCHAR 01FA
ENCODING 506
SWIDTH 684 0
DWIDTH 19 0
BBX 19 33 0 0
BITMAP
001C00
003000
006000
00C000
000000
000000
000000
00F000
019800
010800
010800
019800
00F000
006000
00F000
00F000
01F000
01B800
01B800
031C00
031C00
061C00
060E00
0C0E00
0C0700
1FFF00
1FFF00
380380
300380
3001C0
6001C0
6001C0
C000E0
ENDCHAR
STARTCHAR 01FB
ENCODING 507
SWIDTH 540 0
DWIDTH 15 0
BBX 13 29 1 0
BITMAP
0380
0600
0C00
1800
0000
0000
0F00
1980
1080
1080
1980
0F00
0000
0000
1F80
7FC0
41E0
00E0
00E0
00E0
0FE0
3FE0
78E0
E0E0
E0E0
E0E0
F1E0
7F78
3C78
ENDCHAR
STARTCHAR 01FC
ENCODING 508
SWIDTH 900 0
DWIDTH 25 0
BBX 24 26 0 0
BITMAP
0000E0
000180
000300
000600
000000
000000
001FFE
001FFE
003E00
003E00
006E00
00EE00
00CE00
018E00
018E00
030FFC
070FFC
060E00
0FFE00
0FFE00
180E00
380E00
300E00
600E00
600FFF
C00FFF
ENDCHAR
STARTCHAR 01FD
ENCODING 509
SWIDTH 864 0
DWIDTH 24 0
BBX 21 22 1 0
BITMAP
000E00
001800
003000
006000
000000
000000
000000
1F87C0
7FFFE0
60F870
007030
007038
007038
0FFFF8
3FFFF8
787000
F07000
E07800
E07800
F1FC08
7F9FF8
3E07E0
ENDCHAR
STARTCHAR 01FE
ENCODING 510
SWIDTH 792 0
DWIDTH 22 0
BBX 19 26 1 0
BITMAP
001C00
003000
006000
00C000
000000
000000
03F8E0
0FFEC0
1E0F80
380380
7007C0
700FC0
E01CE0
E038E0
E030E0
E060E0
E0C0E0
E180E0
E380E0
E700E0
7E01C0
7C01C0
380380
3E0F00
6FFE00
E3F800
ENDCHAR
STARTCHAR 01FF
ENCODING 511
SWIDTH 612 0
DWIDTH 17 0
BBX 14 22 1 0
BITMAP
00E0
0180
0300
0600
0000
0000
0000
0FDC
3FF8
7870
7078
E0FC
E1DC
E19C
E31C
E61C
EE1C
EC1C
7838
7878
7FF0
EFC0
ENDCHAR
STARTCHAR 0218
ENCODING 536
SWIDTH 540 0
DWIDTH 15 0
BBX 12 30 1 -10
BITMAP
1F80
3FE0
7060
E000
E000
E000
F000
7800
3E00
1F80
07C0
03E0
00F0
0070
0070
0070
8070
E0E0
7FC0
1F00
0000
0000
0000
0700
0700
0700
0300
0300
0200
0400
ENDCHAR
STARTCHAR 0219
ENCODING 537
SWIDTH 504 0
DWIDTH 14 0
BBX 10 25 2 -10
BITMAP
3F00
7F80
F080
E000
E000
F000
7C00
3F00
0F80
03C0
01C0
01C0
83C0
FF80
7E00
0000
0000
0000
0E00
0E00
0E00
0600
0600
0400
0800
ENDCHAR
STARTCHAR 021A
ENCODING 538
SWIDTH 648 0
DWIDTH 18 0
BBX 17 30 0 -10
BITMAP
FFFF80
FFFF80
01C000
01C000
01C000
01C000
01C000
01C000
01C000
01C000
01C000
01C000
01C000
01C000
01C000
01C000
01C000
01C000
01C000
01C000
000000
000000
000000
01C000
01C000
01C000
00C000
00C000
008000
010000
ENDCHAR
STARTCHAR 021B
ENCODING 539
SWIDTH 360 0
DWIDTH 10 0
BBX 8 28 0 -10
BITMAP
38
38
38
FF
FF
38
38
38
38
38
38
38
38
38
38
3C
1F
0F
00
00
00
1C
1C
1C
0C
0C
08
10
ENDCHAR
STARTCHAR 0250
ENCODING 592
SWIDTH 540 0
DWIDTH 15 0
BBX 13 15 0 0
BITMAP
F1E0
FBF0
3C78
3838
3838
3838
38F0
3FE0
3F80
3800
3800
3800
3C10
1FF0
0FC0
ENDCHAR
STARTCHAR 0251
ENCODING 593
SWIDTH 612 0
DWIDTH 17 0
BBX 13 15 1 0
BITMAP
07F8
1FF8
3C38
3838
7038
7038
E038
E038
E038
E078
E078
E0F8
71B8
7F38
3C38
ENDCHAR
STARTCHAR 0252
ENCODING 594
SWIDTH 612 0
DWIDTH 17 0
BBX 13 15 2 0
BITMAP
E1E0
E7F0
EC70
F838
F038
F038
E038
E038
E038
E070
E070
E0E0
E1E0
FFC0
FF00
ENDCHAR
STARTCHAR 0253
ENCODING 595
SWIDTH 648 0
DWIDTH 18 0
BBX 14 22 2 0
BITMAP
0FC0
3FE0
7820
7000
7000
E000
E000
E3E0
EFF0
FC78
F038
E01C
E01C
E01C
E01C
E01C
E01C
E018
E038
F870
FFF0
E7C0
ENDCHAR
STARTCHAR 0254
ENCODING 596
SWIDTH 504 0
DWIDTH 14 0
BBX 11 15 1 0
BITMAP
7E00
FF80
83C0
01C0
00E0
00E0
00E0
00E0
00E0
00E0
01E0
01C0
83C0
FF80
7E00
ENDCHAR
STARTCHAR 0255
ENCODING 597
SWIDTH 576 0
DWIDTH 16 0
BBX 14 17 1 -2
BITMAP
07E0
1FF0
3C10
7000
F000
E000
E000
E000
E0F0
F3FC
770C
7E0C
3C1C
1FF8
3BE0
3000
3000
ENDCHAR
STARTCHAR 0256
ENCODING 598
SWIDTH 648 0
DWIDTH 18 0
BBX 18 27 1 -5
BITMAP
001C00
001C00
001C00
001C00
001C00
001C00
001C00
0F9C00
3FDC00
387C00
701C00
601C00
E01C00
E01C00
E01C00
E01C00
E01C00
E01C00
703C00
78FC00
3FDC00
1F1C00
001C00
001C00
001E00
000FC0
0007C0
ENDCHAR
STARTCHAR 0257
ENCODING 599
SWIDTH 648 0
DWIDTH 18 0
BBX 18 22 1 0
BITMAP
0007C0
000FC0
001E00
001C00
001C00
001C00
001C00
0F9C00
3FDC00
387C00
701C00
601C00
E01C00
E01C00
E01C00
E01C00
E01C00
E01C00
703C00
78FC00
3FDC00
1F1C00
ENDCHAR
STARTCHAR 0258
ENCODING 600
SWIDTH 576 0
DWIDTH 16 0
BBX 13 15 1 0
BITMAP
1F80
3FC0
70E0
7070
E038
E038
FFF8
FFF8
0038
0038
0070
0070
81E0
FFC0
3F00
ENDCHAR
STARTCHAR 0259
ENCODING 601
SWIDTH 576 0
DWIDTH 16 0
BBX 13 15 1 0
BITMAP
3F00
FFC0
81E0
0070
0070
0038
0038
FFF8
FFF8
E038
E038
6070
70E0
3FC0
1F80
ENDCHAR
STARTCHAR 025A
ENCODING 602
SWIDTH 792 0
DWIDTH 22 0
BBX 20 15 2 0
BITMAP
3E0000
FF8000
83C000
00E000
00E180
007F80
00FF80
0FF180
FF7180
F07180
E070F0
E0E0F0
71E000
3FC000
1F0000
ENDCHAR
STARTCHAR 025B
ENCODING 603
SWIDTH 468 0
DWIDTH 13 0
BBX 10 15 1 0
BITMAP
1F80
3FC0
7840
7000
7000
3800
1F00
3F00
7000
E000
E000
E000
7040
7FC0
1F80
ENDCHAR
STARTCHAR 025C
ENCODING 604
SWIDTH 468 0
DWIDTH 13 0
BBX 9 15 2 0
BITMAP
7C00
FE00
8F00
0700
0700
0E00
3C00
3E00
0700
0380
0380
0380
8780
FF00
7C00
ENDCHAR
STARTCHAR 025D
ENCODING 605
SWIDTH 648 0
DWIDTH 18 0
BBX 16 15 2 0
BITMAP
3C08
FF78
C7F8
0398
0398
0718
3E0F
3F07
0380
01C0
01C0
01C0
8380
FF80
7E00
ENDCHAR
STARTCHAR 025E
ENCODING 606
SWIDTH 576 0
DWIDTH 16 0
BBX 13 15 1 0
BITMAP
0FC0
1FF0
3878
7038
F038
E070
E3E0
E3F0
E070
E038
E038
7038
7870
3FF0
0FC0
ENDCHAR
STARTCHAR 025F
ENCODING 607
SWIDTH 396 0
DWIDTH 11 0
BBX 11 20 -1 -5
BITMAP
0700
0700
0700
0700
0700
0700
0700
0700
0700
0700
3FE0
3FE0
0700
0700
0700
0700
0700
8E00
FE00
7800
ENDCHAR
STARTCHAR 0260
ENCODING 608
SWIDTH 648 0
DWIDTH 18 0
BBX 18 27 1 -5
BITMAP
0007C0
000FC0
001E00
001C00
001C00
001C00
001C00
0F9C00
3FDC00
787C00
701C00
F01C00
E01C00
E01C00
E01C00
E01C00
E01C00
E01C00
703C00
787C00
3FDC00
1F9C00
001C00
003800
607800
7FF000
1FC000
ENDCHAR
STARTCHAR 0261
ENCODING 609
SWIDTH 612 0
DWIDTH 17 0
BBX 13 20 1 -5
BITMAP
07F8
1FF8
3C38
7838
7038
F038
E038
E038
E038
E078
E078
E0F8
71B8
7F38
3C38
0038
0070
60F0
7FE0
3F80
ENDCHAR
STARTCHAR 0262
ENCODING 610
SWIDTH 576 0
DWIDTH 16 0
BBX 13 15 1 0
BITMAP
07E0
1FF8
3C18
7000
F000
E000
E000
E000
E038
E038
F038
7038
7C38
1FF8
0FF0
ENDCHAR
STARTCHAR 0263
ENCODING 611
SWIDTH 540 0
DWIDTH 15 0
BBX 14 20 0 -5
BITMAP
601C
F01C
781C
3C38
1C38
1C30
0E70
0E60
07C0
07C0
0380
0780
07C0
0DC0
0CE0
18E0
1860
1860
0FC0
0780
ENDCHAR
STARTCHAR 0264
ENCODING 612
SWIDTH 576 0
DWIDTH 16 0
BBX 16 15 0 0
BITMAP
700E
FC1F
9E39
0670
0760
03C0
01C0
03C0
07E0
0660
0C30
0C30
0C30
07E0
03C0
ENDCHAR
STARTCHAR 0265
ENCODING 613
SWIDTH 612 0
DWIDTH 17 0
BBX 12 20 2 -5
BITMAP
E070
E070
E070
E070
E070
E070
E070
E070
E070
E070
E070
E0F0
E1F0
7F70
3C70
0070
0070
0070
0070
0070
ENDCHAR
STARTCHAR 0266
ENCODING 614
SWIDTH 612 0
DWIDTH 17 0
BBX 12 22 2 0
BITMAP
0F80
3FC0
7840
7000
E000
E000
E000
E3C0
EFE0
F8F0
F070
E070
E070
E070
E070
E070
E070
E070
E070
E070
E070
E070
ENDCHAR
STARTCHAR 0267
ENCODING 615
SWIDTH 612 0
DWIDTH 17 0
BBX 12 27 2 -5
BITMAP
0F80
3FC0
7840
7000
E000
E000
E000
E3C0
EFE0
F8F0
F070
E070
E070
E070
E070
E070
E070
E070
E070
E070
E070
E070
0070
0070
00F0
03E0
03C0
ENDCHAR
STARTCHAR 0268
ENCODING 616
SWIDTH 396 0
DWIDTH 11 0
BBX 9 20 1 0
BITMAP
1C00
1C00
1C00
0000
0000
1C00
1C00
1C00
1C00
1C00
FF80
FF80
1C00
1C00
1C00
1C00
1C00
1C00
1C00
1C00
ENDCHAR
STARTCHAR 0269
ENCODING 617
SWIDTH 360 0
DWIDTH 10 0
BBX 7 15 2 0
BITMAP
E0
E0
E0
E0
E0
E0
E0
E0
E0
E0
E0
E0
F2
7E
3C
ENDCHAR
STARTCHAR 026A
ENCODING 618
SWIDTH 396 0
DWIDTH 11 0
BBX 9 15 1 0
BITMAP
FF80
FF80
1C00
1C00
1C00
1C00
1C00
1C00
1C00
1C00
1C00
1C00
1C00
FF80
FF80
ENDCHAR
STARTCHAR 026B
ENCODING 619
SWIDTH 504 0
DWIDTH 14 0
BBX 13 22 0 0
BITMAP
0700
0700
0700
0700
0700
0700
0700
0700
0718
3F18
7F18
C7F0
C7E0
C700
0700
0700
0700
0700
0700
0700
0700
0700
ENDCHAR
STARTCHAR 026C
ENCODING 620
SWIDTH 468 0
DWIDTH 13 0
BBX 13 22 0 0
BITMAP
0380
0380
0380
0380
0380
0380
3F80
7F80
E380
C380
C380
C380
7398
7FF8
1FE0
0380
0380
0380
0380
0380
0380
0380
ENDCHAR
STARTCHAR 026D
ENCODING 621
SWIDTH 288 0
DWIDTH 8 0
BBX 7 27 2 -5
BITMAP
E0
E0
E0
E0
E0
E0
E0
E0
E0
E0
E0
E0
E0
E0
E0
E0
E0
E0
E0
E0
E0
E0
E0
E0
F0
7E
3E
ENDCHAR
STARTCHAR 026E
ENCODING 622
SWIDTH 648 0
DWIDTH 18 0
BBX 14 27 2 -5
BITMAP
E000
E000
E000
E000
E000
E000
E000
FFF8
FFF8
E038
E070
E0E0
E1C0
E380
E700
E7C0
E7F0
E0F8
E03C
E01C
E01C
E01C
001C
0038
0878
0FF0
07C0
ENDCHAR
STARTCHAR 026F
ENCODING 623
SWIDTH 936 0
DWIDTH 26 0
BBX 21 15 2 0
BITMAP
E07038
E07038
E07038
E07038
E07038
E07038
E07038
E07038
E07038
E07038
E07038
E0F078
F1F8F8
7F3FB8
3E1F38
ENDCHAR
STARTCHAR 0270
ENCODING 624
SWIDTH 936 0
DWIDTH 26 0
BBX 21 20 2 -5
BITMAP
E07038
E07038
E07038
E07038
E07038
E07038
E07038
E07038
E07038
E07038
E07038
E0F078
F1F8F8
7F3FB8
3E1F38
000038
000038
000038
000038
000038
ENDCHAR
STARTCHAR 0271
ENCODING 625
SWIDTH 936 0
DWIDTH 26 0
BBX 21 20 2 -5
BITMAP
E3C1E0
EFE7F0
F8FC78
F07838
E07038
E07038
E07038
E07038
E07038
E07038
E07038
E07038
E07038
E07038
E07038
000038
000038
000078
0001F0
0001E0
ENDCHAR
STARTCHAR 0272
ENCODING 626
SWIDTH 648 0
DWIDTH 18 0
BBX 16 20 -1 -5
BITMAP
0E3C
0EFE
0F8F
0F07
0E07
0E07
0E07
0E07
0E07
0E07
0E07
0E07
0E07
0E07
0E07
0E00
0E00
1E00
FC00
F800
ENDCHAR
STARTCHAR 0273
ENCODING 627
SWIDTH 648 0
DWIDTH 18 0
BBX 17 20 2 -5
BITMAP
E3E000
EFF000
FC7800
F03800
F03800
E03800
E03800
E03800
E03800
E03800
E03800
E03800
E03800
E03800
E03800
003800
003800
003C00
001F80
000F80
ENDCHAR
STARTCHAR 0274
ENCODING 628
SWIDTH 648 0
DWIDTH 18 0
BBX 13 15 2 0
BITMAP
C018
E018
F018
F818
F818
DC18
CE18
C718
C398
C1D8
C0F8
C0F8
C078
C038
C018
ENDCHAR
STARTCHAR 0275
ENCODING 629
SWIDTH 612 0
DWIDTH 17 0
BBX 14 15 1 0
BITMAP
0FC0
3FF0
7870
7038
E01C
E01C
FFFC
FFFC
E01C
E01C
E03C
7038
7878
3FF0
0FC0
ENDCHAR
STARTCHAR 0276
ENCODING 630
SWIDTH 828 0
DWIDTH 23 0
BBX 20 15 1 0
BITMAP
07DFF0
1FFFF0
383C00
701C00
F01C00
E01C00
E01FE0
E01FE0
E01C00
E01C00
701C00
701C00
383C00
1FFFF0
07DFF0
ENDCHAR
STARTCHAR 0277
ENCODING 631
SWIDTH 828 0
DWIDTH 23 0
BBX 19 15 2 0
BITMAP
03F800
0FFE00
3E0F80
780380
7001C0
F0E1E0
E0E0E0
E0E0E0
E0E0E0
E0E0E0
E040E0
F0E1E0
71F1C0
3FBF80
1E1F00
ENDCHAR
STARTCHAR 0278
ENCODING 632
SWIDTH 756 0
DWIDTH 21 0
BBX 19 27 1 -5
BITMAP
00E000
00E000
00E000
00E000
00E000
00E000
00E000
00E000
07FC00
1FFF00
3CE780
70E1C0
F0E1E0
E0E0E0
E0E0E0
E0E0E0
E0E0E0
F0E1E0
70E1C0
3CE780
1FFF00
07FC00
00E000
00E000
00E000
00E000
00E000
ENDCHAR
STARTCHAR 0279
ENCODING 633
SWIDTH 396 0
DWIDTH 11 0
BBX 8 15 0 0
BITMAP
07
07
07
07
07
07
07
07
07
07
07
0F
1F
F7
E7
ENDCHAR
STARTCHAR 027A
ENCODING 634
SWIDTH 396 0
DWIDTH 11 0
BBX 8 22 0 0
BITMAP
07
07
07
07
07
07
07
07
07
07
07
07
07
07
07
07
07
07
0F
1F
F7
E7
ENDCHAR
STARTCHAR 027B
ENCODING 635
SWIDTH 432 0
DWIDTH 12 0
BBX 12 20 0 -5
BITMAP
0700
0700
0700
0700
0700
0700
0700
0700
0700
0700
0700
0F00
1F00
F700
E700
0700
0700
0780
03F0
01F0
ENDCHAR
STARTCHAR 027C
ENCODING 636
SWIDTH 396 0
DWIDTH 11 0
BBX 8 20 2 -5
BITMAP
E7
EF
F8
F0
E0
E0
E0
E0
E0
E0
E0
E0
E0
E0
E0
E0
E0
E0
E0
E0
ENDCHAR
STARTCHAR 027D
ENCODING 637
SWIDTH 396 0
DWIDTH 11 0
BBX 8 20 2 -5
BITMAP
E7
EF
F8
F0
E0
E0
E0
E0
E0
E0
E0
E0
E0
E0
E0
E0
E0
F0
7C
3C
ENDCHAR
STARTCHAR 027E
ENCODING 638
SWIDTH 432 0
DWIDTH 12 0
BBX 8 15 2 0
BITMAP
1E
7F
71
E0
E0
E0
E0
E0
E0
E0
E0
E0
E0
E0
E0
ENDCHAR
STARTCHAR 027F
ENCODING 639
SWIDTH 432 0
DWIDTH 12 0
BBX 8 15 1 0
BITMAP
78
FC
8E
07
07
07
07
07
07
07
07
07
07
07
07
ENDCHAR
STARTCHAR 0280
ENCODING 640
SWIDTH 540 0
DWIDTH 15 0
BBX 12 15 2 0
BITMAP
FF00
FF80
E3C0
E1C0
E1C0
E1C0
E380
FF00
FF00
E700
E380
E1C0
E1C0
E0E0
E070
ENDCHAR
STARTCHAR 0281
ENCODING 641
SWIDTH 540 0
DWIDTH 15 0
BBX 12 15 2 0
BITMAP
E070
E0E0
E1C0
E1C0
E380
E700
FF00
FF00
E380
E1C0
E1C0
E1C0
E3C0
FF80
FF00
ENDCHAR
STARTCHAR 0282
ENCODING 642
SWIDTH 504 0
DWIDTH 14 0
BBX 10 20 2 -5
BITMAP
3F00
7F80
F080
E000
E000
F800
7E00
3F00
0F80
03C0
01C0
01C0
83C0
FF80
FE00
C000
C000
E000
7C00
3C00
ENDCHAR
STARTCHAR 0283
ENCODING 643
SWIDTH 432 0
DWIDTH 12 0
BBX 14 27 -1 -5
BITMAP
00F8
01FC
0384
0700
0700
0700
0700
0700
0700
0700
0700
0700
0700
0700
0700
0700
0700
0700
0700
0700
0700
0700
0700
0700
8E00
FE00
7800
ENDCHAR
STARTCHAR 0284
ENCODING 644
SWIDTH 432 0
DWIDTH 12 0
BBX 12 27 -1 -5
BITMAP
01F0
03F0
0780
0700
0700
0700
0700
0700
0700
0700
0700
0700
0700
0700
0700
0700
0700
3FF0
3FF0
0700
0700
0700
0700
0700
8E00
FE00
7800
ENDCHAR
STARTCHAR 0285
ENCODING 645
SWIDTH 504 0
DWIDTH 14 0
BBX 15 20 0 -5
BITMAP
7C00
FE00
8700
0380
0380
0380
0380
0380
0380
0380
0380
0380
0380
0380
0380
0380
0380
01C2
00FE
007C
ENDCHAR
STARTCHAR 0286
ENCODING 646
SWIDTH 540 0
DWIDTH 15 0
BBX 15 27 0 -5
BITMAP
003C
007E
00E2
01C0
01C0
01C0
01C0
01C0
01C0
01C0
01C0
01C0
01C0
01C0
01C0
01C0
01C0
01C0
01C0
1FF0
7FF8
F1C8
E1C0
E1C0
E380
7F80
3E00
ENDCHAR
STARTCHAR 0287
ENCODING 647
SWIDTH 360 0
DWIDTH 10 0
BBX 8 18 1 -3
BITMAP
F0
F8
3C
1C
1C
1C
1C
1C
1C
1C
1C
1C
1C
FF
FF
1C
1C
1C
ENDCHAR
STARTCHAR 0288
ENCODING 648
SWIDTH 360 0
DWIDTH 10 0
BBX 8 23 0 -5
BITMAP
38
38
38
FF
FF
38
38
38
38
38
38
38
38
38
38
38
38
38
38
38
3C
1F
0F
ENDCHAR
STARTCHAR 0289
ENCODING 649
SWIDTH 684 0
DWIDTH 19 0
BBX 19 15 0 0
BITMAP
1C0700
1C0700
1C0700
1C0700
1C0700
FFFFE0
FFFFE0
1C0700
1C0700
1C0700
1C0F00
1C1F00
1E3F00
0FF700
07C700
ENDCHAR
STARTCHAR 028A
ENCODING 650
SWIDTH 648 0
DWIDTH 18 0
BBX 16 15 1 0
BITMAP
FC3F
FC3F
1C38
381C
381C
700E
700E
700E
700E
700E
781E
381C
3C3C
1FF8
07E0
ENDCHAR
STARTCHAR 028B
ENCODING 651
SWIDTH 612 0
DWIDTH 17 0
BBX 13 15 1 0
BITMAP
E070
E038
7038
7038
7038
7038
7838
3830
3830
3870
3860
1CC0
1DC0
1F00
1C00
ENDCHAR
STARTCHAR 028C
ENCODING 652
SWIDTH 540 0
DWIDTH 15 0
BBX 15 15 0 0
BITMAP
0180
03C0
03C0
06E0
06E0
0EE0
0C70
1C70
1830
1838
3038
301C
601C
601C
C00E
ENDCHAR
STARTCHAR 028D
ENCODING 653
SWIDTH 792 0
DWIDTH 22 0
BBX 21 15 0 0
BITMAP
0F03C0
0F03C0
0F03C0
1B06C0
1B86E0
1B86E0
3B8CE0
318CE0
31CC70
31D870
61D870
60D870
60F030
E0F038
C0F038
ENDCHAR
STARTCHAR 028E
ENCODING 654
SWIDTH 540 0
DWIDTH 15 0
BBX 14 20 0 0
BITMAP
00C0
01C0
0180
0180
0300
0380
0780
0780
0FC0
0DC0
0CE0
18E0
18E0
3870
3070
3030
6038
6038
E01C
C01C
ENDCHAR
STARTCHAR 028F
ENCODING 655
SWIDTH 504 0
DWIDTH 14 0
BBX 13 15 0 0
BITMAP
E018
7030
7070
3860
1CC0
1CC0
0F80
0F80
0700
0700
0700
0700
0700
0700
0700
ENDCHAR
STARTCHAR 0290
ENCODING 656
SWIDTH 576 0
DWIDTH 16 0
BBX 16 20 1 -5
BITMAP
FFF8
FFF8
0038
0070
00E0
01C0
0380
0700
0E00
1C00
3800
7000
E000
FFF0
FFF0
0030
0030
0038
001F
000F
ENDCHAR
STARTCHAR 0291
ENCODING 657
SWIDTH 720 0
DWIDTH 20 0
BBX 18 19 1 -4
BITMAP
FFF800
FFF800
007800
007000
00E000
01C000
038000
070F00
0E1F80
1C38C0
3870C0
70E0C0
F1C380
FFFF00
FFFC00
030000
070000
060000
060000
ENDCHAR
STARTCHAR 0292
ENCODING 658
SWIDTH 504 0
DWIDTH 14 0
BBX 11 20 1 -5
BITMAP
FFC0
FFC0
0380
0700
0E00
1C00
3C00
7800
7C00
7F80
07C0
01C0
00E0
00E0
00E0
00E0
01E0
83C0
FF80
7E00
ENDCHAR
STARTCHAR 0293
ENCODING 659
SWIDTH 540 0
DWIDTH 15 0
BBX 12 22 1 -7
BITMAP
7FF0
7FF0
00E0
01C0
0380
0700
0E00
1C00
3F00
3FC0
03E0
00F0
0070
7870
FE70
C770
C3E0
E1C0
7FC0
3EE0
0060
0060
ENDCHAR
STARTCHAR 0294
ENCODING 660
SWIDTH 468 0
DWIDTH 13 0
BBX 11 22 1 0
BITMAP
7E00
FF80
83C0
01C0
00E0
00E0
00E0
00E0
00E0
01E0
01C0
0780
3F00
3E00
3800
3800
3800
3800
3800
3800
3800
3800
ENDCHAR
STARTCHAR 0295
ENCODING 661
SWIDTH 468 0
DWIDTH 13 0
BBX 11 22 1 0
BITMAP
0FC0
3FE0
7820
7000
E000
E000
E000
E000
E000
F000
7000
3C00
1F80
0F80
0380
0380
0380
0380
0380
0380
0380
0380
ENDCHAR
STARTCHAR 0296
ENCODING 662
SWIDTH 468 0
DWIDTH 13 0
BBX 11 22 1 0
BITMAP
3800
3800
3800
3800
3800
3800
3800
3800
3E00
3F00
0780
01C0
01E0
00E0
00E0
00E0
00E0
00E0
01C0
83C0
FF80
7E00
ENDCHAR
STARTCHAR 0297
ENCODING 663
SWIDTH 504 0
DWIDTH 14 0
BBX 12 20 1 -5
BITMAP
07E0
1FF0
3C10
3800
7000
7000
E000
E000
E000
E000
E000
E000
E000
E000
7000
7000
3800
3C10
1FF0
07E0
ENDCHAR
STARTCHAR 0298
ENCODING 664
SWIDTH 684 0
DWIDTH 19 0
BBX 16 15 1 0
BITMAP
07E0
1FF8
3FFC
7C3E
700E
F00F
E387
E387
E387
E00F
700E
7C3E
3FFC
1FF8
07E0
ENDCHAR
STARTCHAR 0299
ENCODING 665
SWIDTH 540 0
DWIDTH 15 0
BBX 11 15 2 0
BITMAP
FF00
FF80
E3C0
E1C0
E1C0
E380
FF00
FF80
E3C0
E0E0
E0E0
E0E0
E1E0
FFC0
FF80
ENDCHAR
STARTCHAR 029A
ENCODING 666
SWIDTH 576 0
DWIDTH 16 0
BBX 13 15 1 0
BITMAP
3F80
7FC0
F0E0
E070
E070
7038
3F38
7F38
7038
E038
E038
E070
70F0
7FE0
1F80
ENDCHAR
STARTCHAR 029B
ENCODING 667
SWIDTH 612 0
DWIDTH 17 0
BBX 17 22 1 0
BITMAP
000780
000F80
001C00
001800
001800
001800
001800
07F800
1FF800
3C1800
700000
F00000
E00000
E00000
E00000
E03800
E03800
F03800
703800
7C3800
1FF800
0FF000
ENDCHAR
STARTCHAR 029C
ENCODING 668
SWIDTH 612 0
DWIDTH 17 0
BBX 12 15 2 0
BITMAP
E070
E070
E070
E070
E070
E070
FFF0
FFF0
E070
E070
E070
E070
E070
E070
E070
ENDCHAR
STARTCHAR 029D
ENCODING 669
SWIDTH 504 0
DWIDTH 14 0
BBX 14 25 0 -5
BITMAP
01C0
01C0
01C0
0000
0000
01C0
01C0
01C0
01C0
01C0
01C0
01C0
01C0
01C0
01C0
01C0
01C0
1FF0
7FFC
F1CC
E1C0
E1C0
E380
7F80
3E00
ENDCHAR
STARTCHAR 029E
ENCODING 670
SWIDTH 576 0
DWIDTH 16 0
BBX 13 20 0 -5
BITMAP
E038
7038
3838
1C38
0E38
0738
03B8
01F8
01B8
0338
0638
0C38
1C38
3838
7038
0038
0038
0038
0038
0038
ENDCHAR
STARTCHAR 029F
ENCODING 671
SWIDTH 468 0
DWIDTH 13 0
BBX 10 15 2 0
BITMAP
E000
E000
E000
E000
E000
E000
E000
E000
E000
E000
E000
E000
E000
FFC0
FFC0
ENDCHAR
STARTCHAR 02A0
ENCODING 672
SWIDTH 648 0
DWIDTH 18 0
BBX 18 27 1 -5
BITMAP
0007C0
000FC0
001E00
001C00
001C00
001C00
001C00
0F9C00
3FDC00
787C00
701C00
E01C00
E01C00
E01C00
E01C00
E01C00
E01C00
E01C00
703C00
78FC00
3FDC00
1F9C00
001C00
001C00
001C00
001C00
001C00
ENDCHAR
STARTCHAR 02A1
ENCODING 673
SWIDTH 468 0
DWIDTH 13 0
BBX 11 22 1 0
BITMAP
7E00
FF80
83C0
01C0
00E0
00E0
00E0
00E0
00E0
01E0
01C0
0780
3F00
3E00
3800
3800
FFC0
FFC0
3800
3800
3800
3800
ENDCHAR
STARTCHAR 02A2
ENCODING 674
SWIDTH 468 0
DWIDTH 13 0
BBX 11 22 1 0
BITMAP
0FC0
3FE0
7820
7000
E000
E000
E000
E000
E000
F000
7000
3C00
1F80
0F80
0380
0380
7FE0
7FE0
0380
0380
0380
0380
ENDCHAR
STARTCHAR 02A3
ENCODING 675
SWIDTH 1044 0
DWIDTH 29 0
BBX 26 22 1 0
BITMAP
001C0000
001C0000
001C0000
001C0000
001C0000
001C0000
001C0000
0F9FFFC0
3FDFFFC0
387C01C0
701C0380
601C0700
E01C0700
E01C0E00
E01C1E00
E01C1C00
E01C3800
E01C3800
703C7000
78FCE000
3FDCFFC0
1F1CFFC0
ENDCHAR
STARTCHAR 02A4
ENCODING 676
SWIDTH 1008 0
DWIDTH 28 0
BBX 25 27 1 -5
BITMAP
001C0000
001C0000
001C0000
001C0000
001C0000
001C0000
001C0000
0F9FFF00
3FDFFF00
387C0700
701C0E00
601C1C00
E01C1C00
E01C3800
E01C7000
E01C7C00
E01C7E00
E01C0F00
703C0780
78FC0380
3FDC0380
1F1C0380
00000380
00000700
00010F00
0001FE00
0000F800
ENDCHAR
STARTCHAR 02A5
ENCODING 677
SWIDTH 1224 0
DWIDTH 34 0
BBX 33 26 1 -4
BITMAP
001C000000
001C000000
001C000000
001C000000
001C000000
001C000000
001C000000
0F9FFFC000
3FDFFFC000
387C01C000
701C038000
601C070000
E01C070000
E01C0E0000
E01C1E1E00
E01C1C3F00
E01C387180
E01C38E180
703C71C180
78FCE38700
3FDCFFFE00
1F1CFFF800
0000060000
00000E0000
00000C0000
00000C0000
ENDCHAR
STARTCHAR 02A6
ENCODING 678
SWIDTH 792 0
DWIDTH 22 0
BBX 20 18 0 0
BITMAP
380000
380000
380000
FFFFC0
FFFFE0
381C20
383800
383800
383E00
381F80
380FC0
3803E0
3800F0
380070
380070
3C20F0
1FBFE0
0F8F80
ENDCHAR
STARTCHAR 02A7
ENCODING 679
SWIDTH 720 0
DWIDTH 20 0
BBX 21 27 0 -5
BITMAP
0001F0
0003F8
000708
000E00
380E00
380E00
380E00
FFFE00
FFFE00
380E00
380E00
380E00
380E00
380E00
380E00
380E00
380E00
380E00
380E00
3C0E00
1F8E00
0F8E00
000E00
000E00
011C00
01FC00
00F000
ENDCHAR
STARTCHAR 02A8
ENCODING 680
SWIDTH 900 0
DWIDTH 25 0
BBX 24 20 0 -2
BITMAP
380000
380000
380000
FFFFF8
FFFFFC
380F04
380E00
381E00
381C00
381C00
381C00
381C3C
381CFE
380DC3
380F83
3C0787
1F87FE
0F8EF8
000C00
000C00
ENDCHAR
STARTCHAR 02B0
ENCODING 688
SWIDTH 396 0
DWIDTH 11 0
BBX 8 13 1 13
BITMAP
C0
C0
C0
C0
DE
E3
C3
C3
C3
C3
C3
C3
C3
ENDCHAR
STARTCHAR 02B1
ENCODING 689
SWIDTH 396 0
DWIDTH 11 0
BBX 8 13 1 13
BITMAP
3E
60
C0
C0
DE
E3
C3
C3
C3
C3
C3
C3
C3
ENDCHAR
STARTCHAR 02B2
ENCODING 690
SWIDTH 252 0
DWIDTH 7 0
BBX 5 17 0 9
BITMAP
18
18
00
00
18
18
18
18
18
18
18
18
18
18
18
98
70
ENDCHAR
STARTCHAR 02B3
ENCODING 691
SWIDTH 252 0
DWIDTH 7 0
BBX 5 9 2 13
BITMAP
D8
E0
C0
C0
C0
C0
C0
C0
C0
ENDCHAR
STARTCHAR 02B4
ENCODING 692
SWIDTH 252 0
DWIDTH 7 0
BBX 5 9 0 13
BITMAP
18
18
18
18
18
18
18
38
D8
ENDCHAR
STARTCHAR 02B5
ENCODING 693
SWIDTH 324 0
DWIDTH 9 0
BBX 9 13 0 9
BITMAP
0C00
0C00
0C00
0C00
0C00
0C00
0C00
1C00
EC00
0C00
0C00
0C00
0780
ENDCHAR
STARTCHAR 02B6
ENCODING 694
SWIDTH 360 0
DWIDTH 10 0
BBX 7 9 2 13
BITMAP
C6
CC
DC
D8
F8
CC
CC
CC
F8
ENDCHAR
STARTCHAR 02B7
ENCODING 695
SWIDTH 504 0
DWIDTH 14 0
BBX 13 9 0 13
BITMAP
C308
C308
6590
6590
6D90
69A0
39A0
30E0
30C0
ENDCHAR
STARTCHAR 02B8
ENCODING 696
SWIDTH 324 0
DWIDTH 9 0
BBX 9 13 0 9
BITMAP
C080
6100
6100
6100
3200
3200
3A00
1C00
1C00
0800
0800
0800
1000
ENDCHAR
STARTCHAR 02B9
ENCODING 697
SWIDTH 288 0
DWIDTH 8 0
BBX 6 8 2 14
BITMAP
1C
38
38
30
70
60
60
C0
ENDCHAR
STARTCHAR 02BA
ENCODING 698
SWIDTH 504 0
DWIDTH 14 0
BBX 12 8 2 14
BITMAP
1C70
38E0
38E0
30C0
71C0
6180
6180
C300
ENDCHAR
STARTCHAR 02BB
ENCODING 699
SWIDTH 324 0
DWIDTH 9 0
BBX 3 7 3 15
BITMAP
20
40
80
80
E0
E0
E0
ENDCHAR
STARTCHAR 02BC
ENCODING 700
SWIDTH 324 0
DWIDTH 9 0
BBX 3 7 3 15
BITMAP
E0
E0
E0
20
20
40
80
ENDCHAR
STARTCHAR 02BD
ENCODING 701
SWIDTH 324 0
DWIDTH 9 0
BBX 3 7 3 15
BITMAP
E0
E0
E0
80
80
40
20
ENDCHAR
STARTCHAR 02BE
ENCODING 702
SWIDTH 324 0
DWIDTH 9 0
BBX 5 8 2 14
BITMAP
E0
F0
38
18
18
38
F0
E0
ENDCHAR
STARTCHAR 02BF
ENCODING 703
SWIDTH 324 0
DWIDTH 9 0
BBX 5 8 2 14
BITMAP
38
78
E0
C0
C0
E0
78
38
ENDCHAR
STARTCHAR 02C0
ENCODING 704
SWIDTH 324 0
DWIDTH 9 0
BBX 7 9 1 13
BITMAP
78
86
06
06
0C
1C
18
38
30
ENDCHAR
STARTCHAR 02C1
ENCODING 705
SWIDTH 324 0
DWIDTH 9 0
BBX 7 9 1 13
BITMAP
7C
C2
C0
C0
60
70
30
18
18
ENDCHAR
STARTCHAR 02C2
ENCODING 706
SWIDTH 396 0
DWIDTH 11 0
BBX 8 9 1 13
BITMAP
01
07
1E
38
F0
38
1E
07
01
ENDCHAR
STARTCHAR 02C3
ENCODING 707
SWIDTH 396 0
DWIDTH 11 0
BBX 8 9 2 13
BITMAP
80
E0
78
1C
0F
1C
78
E0
80
ENDCHAR
STARTCHAR 02C4
ENCODING 708
SWIDTH 396 0
DWIDTH 11 0
BBX 9 9 1 13
BITMAP
0800
0800
1C00
1C00
3600
3600
6300
6300
C180
ENDCHAR
STARTCHAR 02C5
ENCODING 709
SWIDTH 396 0
DWIDTH 11 0
BBX 9 9 1 13
BITMAP
C180
6300
6300
3600
3600
1C00
1C00
0800
0800
ENDCHAR
STARTCHAR 02C6
ENCODING 710
SWIDTH 612 0
DWIDTH 17 0
BBX 9 4 4 18
BITMAP
1C00
3E00
7300
C180
ENDCHAR
STARTCHAR 02C7
ENCODING 711
SWIDTH 612 0
DWIDTH 17 0
BBX 9 4 4 18
BITMAP
C180
6300
3E00
1C00
ENDCHAR
STARTCHAR 02C8
ENCODING 712
SWIDTH 252 0
DWIDTH 7 0
BBX 2 8 2 14
BITMAP
C0
C0
C0
C0
C0
C0
C0
C0
ENDCHAR
STARTCHAR 02C9
ENCODING 713
SWIDTH 612 0
DWIDTH 17 0
BBX 9 2 4 18
BITMAP
FF80
FF80
ENDCHAR
STARTCHAR 02CA
ENCODING 714
SWIDTH 612 0
DWIDTH 17 0
BBX 6 4 5 18
BITMAP
1C
30
60
C0
ENDCHAR
STARTCHAR 02CB
ENCODING 715
SWIDTH 612 0
DWIDTH 17 0
BBX 6 4 5 18
BITMAP
E0
30
18
0C
ENDCHAR
STARTCHAR 02CC
ENCODING 716
SWIDTH 252 0
DWIDTH 7 0
BBX 2 7 2 -6
BITMAP
C0
C0
C0
C0
C0
C0
C0
ENDCHAR
STARTCHAR 02CD
ENCODING 717
SWIDTH 612 0
DWIDTH 17 0
BBX 9 2 4 -5
BITMAP
FF80
FF80
ENDCHAR
STARTCHAR 02CE
ENCODING 718
SWIDTH 612 0
DWIDTH 17 0
BBX 6 4 5 -7
BITMAP
E0
30
18
0C
ENDCHAR
STARTCHAR 02CF
ENCODING 719
SWIDTH 612 0
DWIDTH 17 0
BBX 6 4 5 -7
BITMAP
1C
30
60
C0
ENDCHAR
STARTCHAR 02D0
ENCODING 720
SWIDTH 396 0
DWIDTH 11 0
BBX 7 15 2 0
BITMAP
FE
7C
7C
38
10
10
00
00
00
10
10
38
7C
7C
FE
ENDCHAR
STARTCHAR 02D1
ENCODING 721
SWIDTH 396 0
DWIDTH 11 0
BBX 7 6 2 9
BITMAP
FE
7C
7C
38
10
10
ENDCHAR
STARTCHAR 02D2
ENCODING 722
SWIDTH 288 0
DWIDTH 8 0
BBX 5 8 2 4
BITMAP
E0
F0
38
18
18
38
F0
E0
ENDCHAR
STARTCHAR 02D3
ENCODING 723
SWIDTH 288 0
DWIDTH 8 0
BBX 5 8 2 4
BITMAP
38
78
E0
C0
C0
E0
78
38
ENDCHAR
STARTCHAR 02D4
ENCODING 724
SWIDTH 468 0
DWIDTH 13 0
BBX 10 6 1 6
BITMAP
0C00
0C00
0C00
0C00
FFC0
FFC0
ENDCHAR
STARTCHAR 02D5
ENCODING 725
SWIDTH 468 0
DWIDTH 13 0
BBX 10 6 1 6
BITMAP
FFC0
FFC0
0C00
0C00
0C00
0C00
ENDCHAR
STARTCHAR 02D6
ENCODING 726
SWIDTH 468 0
DWIDTH 13 0
BBX 10 10 1 3
BITMAP
0C00
0C00
0C00
0C00
FFC0
FFC0
0C00
0C00
0C00
0C00
ENDCHAR
STARTCHAR 02D7
ENCODING 727
SWIDTH 468 0
DWIDTH 13 0
BBX 9 6 2 5
BITMAP
C180
C180
FF80
FF80
C180
C180
ENDCHAR
STARTCHAR 02D8
ENCODING 728
SWIDTH 612 0
DWIDTH 17 0
BBX 9 4 4 18
BITMAP
C180
E380
7F00
3E00
ENDCHAR
STARTCHAR 02D9
ENCODING 729
SWIDTH 612 0
DWIDTH 17 0
BBX 3 3 7 18
BITMAP
E0
E0
E0
ENDCHAR
STARTCHAR 02DA
ENCODING 730
SWIDTH 612 0
DWIDTH 17 0
BBX 6 6 5 18
BITMAP
78
CC
84
84
CC
78
ENDCHAR
STARTCHAR 02DB
ENCODING 731
SWIDTH 612 0
DWIDTH 17 0
BBX 5 5 7 -5
BITMAP
20
40
C0
C0
78
ENDCHAR
STARTCHAR 02DC
ENCODING 732
SWIDTH 612 0
DWIDTH 17 0
BBX 9 3 4 18
BITMAP
7180
FF80
C700
ENDCHAR
STARTCHAR 02DD
ENCODING 733
SWIDTH 612 0
DWIDTH 17 0
BBX 11 4 3 18
BITMAP
1CE0
39C0
7380
E700
ENDCHAR
STARTCHAR 02DE
ENCODING 734
SWIDTH 216 0
DWIDTH 6 0
BBX 9 8 -3 3
BITMAP
3C00
CC00
0C00
0C00
0C00
0C00
0600
0380
ENDCHAR
STARTCHAR 02E0
ENCODING 736
SWIDTH 396 0
DWIDTH 11 0
BBX 10 14 0 8
BITMAP
60C0
F0C0
3980
3980
1F00
0F00
0E00
0E00
0E00
1B00
1B00
1B00
1F00
0E00
ENDCHAR
STARTCHAR 02E1
ENCODING 737
SWIDTH 180 0
DWIDTH 5 0
BBX 2 13 1 13
BITMAP
C0
C0
C0
C0
C0
C0
C0
C0
C0
C0
C0
C0
C0
ENDCHAR
STARTCHAR 02E2
ENCODING 738
SWIDTH 360 0
DWIDTH 10 0
BBX 6 9 2 13
BITMAP
70
C8
C0
E0
78
1C
0C
8C
78
ENDCHAR
STARTCHAR 02E3
ENCODING 739
SWIDTH 432 0
DWIDTH 12 0
BBX 8 9 2 13
BITMAP
C1
62
74
38
18
1C
2E
46
83
ENDCHAR
STARTCHAR 02E4
ENCODING 740
SWIDTH 324 0
DWIDTH 9 0
BBX 7 12 1 13
BITMAP
7E
C0
C0
C0
60
70
30
18
18
18
18
18
ENDCHAR
STARTCHAR 02E5
ENCODING 741
SWIDTH 432 0
DWIDTH 12 0
BBX 8 20 1 0
BITMAP
FF
FF
03
03
03
03
03
03
03
03
03
03
03
03
03
03
03
03
03
03
ENDCHAR
STARTCHAR 02E6
ENCODING 742
SWIDTH 432 0
DWIDTH 12 0
BBX 8 20 1 0
BITMAP
03
03
03
03
03
FF
FF
03
03
03
03
03
03
03
03
03
03
03
03
03
ENDCHAR
STARTCHAR 02E7
ENCODING 743
SWIDTH 432 0
DWIDTH 12 0
BBX 8 20 1 0
BITMAP
03
03
03
03
03
03
03
03
03
FF
FF
03
03
03
03
03
03
03
03
03
ENDCHAR
STARTCHAR 02E8
ENCODING 744
SWIDTH 432 0
DWIDTH 12 0
BBX 8 20 1 0
BITMAP
03
03
03
03
03
03
03
03
03
03
03
03
03
03
FF
FF
03
03
03
03
ENDCHAR
STARTCHAR 02E9
ENCODING 745
SWIDTH 432 0
DWIDTH 12 0
BBX 8 20 1 0
BITMAP
03
03
03
03
03
03
03
03
03
03
03
03
03
03
03
03
03
03
FF
FF
ENDCHAR
STARTCHAR 0300
ENCODING 768
SWIDTH 0 0
DWIDTH 0 0
BBX 6 4 -13 18
BITMAP
E0
30
18
0C
ENDCHAR
STARTCHAR 0301
ENCODING 769
SWIDTH 0 0
DWIDTH 0 0
BBX 6 4 -11 18
BITMAP
1C
30
60
C0
ENDCHAR
STARTCHAR 0302
ENCODING 770
SWIDTH 0 0
DWIDTH 0 0
BBX 9 4 -13 18
BITMAP
1C00
3E00
7300
C180
ENDCHAR
STARTCHAR 0303
ENCODING 771
SWIDTH 0 0
DWIDTH 0 0
BBX 9 3 -13 18
BITMAP
7180
FF80
C700
ENDCHAR
STARTCHAR 0304
ENCODING 772
SWIDTH 0 0
DWIDTH 0 0
BBX 9 2 -13 18
BITMAP
FF80
FF80
ENDCHAR
STARTCHAR 0305
ENCODING 773
SWIDTH 0 0
DWIDTH 0 0
BBX 17 2 -17 22
BITMAP
FFFF80
FFFF80
ENDCHAR
STARTCHAR 0306
ENCODING 774
SWIDTH 0 0
DWIDTH 0 0
BBX 9 4 -13 18
BITMAP
C180
E380
7F00
3E00
ENDCHAR
STARTCHAR 0307
ENCODING 775
SWIDTH 0 0
DWIDTH 0 0
BBX 3 3 -10 18
BITMAP
E0
E0
E0
ENDCHAR
STARTCHAR 0308
ENCODING 776
SWIDTH 0 0
DWIDTH 0 0
BBX 7 2 -12 18
BITMAP
C6
C6
ENDCHAR
STARTCHAR 0309
ENCODING 777
SWIDTH 0 0
DWIDTH 0 0
BBX 5 6 -11 18
BITMAP
F0
18
18
30
60
60
ENDCHAR
STARTCHAR 030A
ENCODING 778
SWIDTH 0 0
DWIDTH 0 0
BBX 6 6 -12 18
BITMAP
78
CC
84
84
CC
78
ENDCHAR
STARTCHAR 030B
ENCODING 779
SWIDTH 0 0
DWIDTH 0 0
BBX 11 4 -13 18
BITMAP
1CE0
39C0
7380
E700
ENDCHAR
STARTCHAR 030C
ENCODING 780
SWIDTH 0 0
DWIDTH 0 0
BBX 9 4 -13 18
BITMAP
C180
6300
3E00
1C00
ENDCHAR
STARTCHAR 030D
ENCODING 781
SWIDTH 0 0
DWIDTH 0 0
BBX 2 5 -10 18
BITMAP
C0
C0
C0
C0
C0
ENDCHAR
STARTCHAR 030E
ENCODING 782
SWIDTH 0 0
DWIDTH 0 0
BBX 7 5 -12 18
BITMAP
C6
C6
C6
C6
C6
ENDCHAR
STARTCHAR 030F
ENCODING 783
SWIDTH 0 0
DWIDTH 0 0
BBX 11 4 -15 18
BITMAP
E700
7380
39C0
1CE0
ENDCHAR
STARTCHAR 0310
ENCODING 784
SWIDTH 0 0
DWIDTH 0 0
BBX 9 8 -13 18
BITMAP
1C00
1C00
1C00
0000
C180
E380
7F00
3E00
ENDCHAR
STARTCHAR 0311
ENCODING 785
SWIDTH 0 0
DWIDTH 0 0
BBX 9 4 -13 18
BITMAP
3E00
7F00
E380
C180
ENDCHAR
STARTCHAR 0312
ENCODING 786
SWIDTH 0 0
DWIDTH 0 0
BBX 3 7 -10 18
BITMAP
20
40
C0
C0
E0
E0
E0
ENDCHAR
STARTCHAR 0313
ENCODING 787
SWIDTH 0 0
DWIDTH 0 0
BBX 3 7 -10 17
BITMAP
E0
E0
E0
60
60
40
80
ENDCHAR
STARTCHAR 0314
ENCODING 788
SWIDTH 0 0
DWIDTH 0 0
BBX 3 7 -10 17
BITMAP
E0
E0
E0
C0
C0
40
20
ENDCHAR
STARTCHAR 0315
ENCODING 789
SWIDTH 0 0
DWIDTH 0 0
BBX 3 7 -3 17
BITMAP
E0
E0
E0
60
60
40
80
ENDCHAR
STARTCHAR 0316
ENCODING 790
SWIDTH 0 0
DWIDTH 0 0
BBX 6 4 -11 -7
BITMAP
E0
30
18
0C
ENDCHAR
STARTCHAR 0317
ENCODING 791
SWIDTH 0 0
DWIDTH 0 0
BBX 6 4 -12 -7
BITMAP
1C
30
60
C0
ENDCHAR
STARTCHAR 0318
ENCODING 792
SWIDTH 0 0
DWIDTH 0 0
BBX 5 8 -11 -10
BITMAP
18
18
18
F8
F8
18
18
18
ENDCHAR
STARTCHAR 0319
ENCODING 793
SWIDTH 0 0
DWIDTH 0 0
BBX 5 8 -11 -10
BITMAP
C0
C0
C0
F8
F8
C0
C0
C0
ENDCHAR
STARTCHAR 031A
ENCODING 794
SWIDTH 0 0
DWIDTH 0 0
BBX 7 7 -7 15
BITMAP
FE
FE
06
06
06
06
06
ENDCHAR
STARTCHAR 031B
ENCODING 795
SWIDTH 72 0
DWIDTH 2 0
BBX 4 6 -2 10
BITMAP
30
30
30
30
60
C0
ENDCHAR
STARTCHAR 031C
ENCODING 796
SWIDTH 0 0
DWIDTH 0 0
BBX 4 6 -10 -9
BITMAP
70
F0
C0
C0
F0
70
ENDCHAR
STARTCHAR 031D
ENCODING 797
SWIDTH 0 0
DWIDTH 0 0
BBX 8 5 -12 -8
BITMAP
18
18
18
FF
FF
ENDCHAR
STARTCHAR 031E
ENCODING 798
SWIDTH 0 0
DWIDTH 0 0
BBX 8 5 -12 -8
BITMAP
FF
FF
18
18
18
ENDCHAR
STARTCHAR 031F
ENCODING 799
SWIDTH 0 0
DWIDTH 0 0
BBX 8 8 -12 -10
BITMAP
18
18
18
FF
FF
18
18
18
ENDCHAR
STARTCHAR 0320
ENCODING 800
SWIDTH 0 0
DWIDTH 0 0
BBX 7 6 -12 -8
BITMAP
C6
C6
FE
FE
C6
C6
ENDCHAR
STARTCHAR 0321
ENCODING 801
SWIDTH 0 0
DWIDTH 0 0
BBX 7 6 -7 -6
BITMAP
0E
0E
0E
0E
1C
F8
ENDCHAR
STARTCHAR 0322
ENCODING 802
SWIDTH 0 0
DWIDTH 0 0
BBX 7 6 -7 -6
BITMAP
E0
E0
E0
E0
70
3E
ENDCHAR
STARTCHAR 0323
ENCODING 803
SWIDTH 0 0
DWIDTH 0 0
BBX 3 3 -10 -6
BITMAP
E0
E0
E0
ENDCHAR
STARTCHAR 0324
ENCODING 804
SWIDTH 0 0
DWIDTH 0 0
BBX 7 2 -12 -5
BITMAP
C6
C6
ENDCHAR
STARTCHAR 0325
ENCODING 805
SWIDTH 0 0
DWIDTH 0 0
BBX 6 6 -12 -9
BITMAP
78
CC
84
84
CC
78
ENDCHAR
STARTCHAR 0326
ENCODING 806
SWIDTH 612 0
DWIDTH 17 0
BBX 3 7 7 -10
BITMAP
E0
E0
E0
60
60
40
80
ENDCHAR
STARTCHAR 0327
ENCODING 807
SWIDTH 0 0
DWIDTH 0 0
BBX 5 6 -10 -6
BITMAP
40
F0
38
18
18
F0
ENDCHAR
STARTCHAR 0328
ENCODING 808
SWIDTH 0 0
DWIDTH 0 0
BBX 5 5 -10 -5
BITMAP
20
40
C0
C0
78
ENDCHAR
STARTCHAR 0329
ENCODING 809
SWIDTH 0 0
DWIDTH 0 0
BBX 2 5 -10 -8
BITMAP
C0
C0
C0
C0
C0
ENDCHAR
STARTCHAR 032A
ENCODING 810
SWIDTH 0 0
DWIDTH 0 0
BBX 7 4 -12 -7
BITMAP
FE
FE
C6
C6
ENDCHAR
STARTCHAR 032B
ENCODING 811
SWIDTH 0 0
DWIDTH 0 0
BBX 12 4 -15 -7
BITMAP
C630
E670
7FE0
39C0
ENDCHAR
STARTCHAR 032C
ENCODING 812
SWIDTH 0 0
DWIDTH 0 0
BBX 9 4 -13 -7
BITMAP
C180
6300
3E00
1C00
ENDCHAR
STARTCHAR 032D
ENCODING 813
SWIDTH 0 0
DWIDTH 0 0
BBX 9 4 -13 -7
BITMAP
1C00
3E00
7300
C180
ENDCHAR
STARTCHAR 032E
ENCODING 814
SWIDTH 0 0
DWIDTH 0 0
BBX 9 4 -13 -7
BITMAP
C180
E380
7F00
3E00
ENDCHAR
STARTCHAR 032F
ENCODING 815
SWIDTH 0 0
DWIDTH 0 0
BBX 9 4 -13 -7
BITMAP
3E00
7F00
E380
C180
ENDCHAR
STARTCHAR 0330
ENCODING 816
SWIDTH 0 0
DWIDTH 0 0
BBX 9 3 -13 -6
BITMAP
7180
FF80
C700
ENDCHAR
STARTCHAR 0331
ENCODING 817
SWIDTH 0 0
DWIDTH 0 0
BBX 9 2 -13 -5
BITMAP
FF80
FF80
ENDCHAR
STARTCHAR 0332
ENCODING 818
SWIDTH 0 0
DWIDTH 0 0
BBX 17 2 -17 -8
BITMAP
FFFF80
FFFF80
ENDCHAR
STARTCHAR 0333
ENCODING 819
SWIDTH 0 0
DWIDTH 0 0
BBX 17 7 -17 -13
BITMAP
FFFF80
FFFF80
000000
000000
000000
FFFF80
FFFF80
ENDCHAR
STARTCHAR 0334
ENCODING 820
SWIDTH 0 0
DWIDTH 0 0
BBX 14 5 -16 6
BITMAP
3C00
7E0C
C78C
C1F8
00F0
ENDCHAR
STARTCHAR 0335
ENCODING 821
SWIDTH 0 0
DWIDTH 0 0
BBX 14 2 -16 7
BITMAP
FFFC
FFFC
ENDCHAR
STARTCHAR 0336
ENCODING 822
SWIDTH 0 0
DWIDTH 0 0
BBX 17 2 -17 7
BITMAP
FFFF80
FFFF80
ENDCHAR
STARTCHAR 0337
ENCODING 823
SWIDTH 0 0
DWIDTH 0 0
BBX 17 15 -17 0
BITMAP
000380
000700
000E00
001C00
003800
007000
00E000
01C000
038000
070000
0E0000
1C0000
380000
700000
E00000
ENDCHAR
STARTCHAR 0338
ENCODING 824
SWIDTH 0 0
DWIDTH 0 0
BBX 15 26 -16 -3
BITMAP
0006
000E
000C
0018
0018
0030
0030
0060
0060
00C0
00C0
0180
0180
0300
0300
0600
0600
0C00
0C00
1800
1800
3000
3000
6000
E000
C000
ENDCHAR
STARTCHAR 0339
ENCODING 825
SWIDTH 0 0
DWIDTH 0 0
BBX 4 6 -11 -9
BITMAP
E0
F0
30
30
F0
E0
ENDCHAR
STARTCHAR 033A
ENCODING 826
SWIDTH 0 0
DWIDTH 0 0
BBX 7 4 -12 -7
BITMAP
C6
C6
FE
FE
ENDCHAR
STARTCHAR 033B
ENCODING 827
SWIDTH 0 0
DWIDTH 0 0
BBX 7 6 -12 -9
BITMAP
FE
FE
C6
C6
FE
FE
ENDCHAR
STARTCHAR 033C
ENCODING 828
SWIDTH 0 0
DWIDTH 0 0
BBX 12 4 -14 -7
BITMAP
39C0
7FE0
E670
C630
ENDCHAR
STARTCHAR 033D
ENCODING 829
SWIDTH 0 0
DWIDTH 0 0
BBX 7 5 -12 17
BITMAP
EE
7C
38
7C
EE
ENDCHAR
STARTCHAR 033E
ENCODING 830
SWIDTH 0 0
DWIDTH 0 0
BBX 4 5 -11 18
BITMAP
60
C0
60
30
60
ENDCHAR
STARTCHAR 033F
ENCODING 831
SWIDTH 0 0
DWIDTH 0 0
BBX 17 6 -17 22
BITMAP
FFFF80
FFFF80
000000
000000
FFFF80
FFFF80
ENDCHAR
STARTCHAR 0340
ENCODING 832
SWIDTH 0 0
DWIDTH 0 0
BBX 6 4 -17 22
BITMAP
E0
30
18
0C
ENDCHAR
STARTCHAR 0341
ENCODING 833
SWIDTH 0 0
DWIDTH 0 0
BBX 6 4 -6 22
BITMAP
1C
30
60
C0
ENDCHAR
STARTCHAR 0342
ENCODING 834
SWIDTH 0 0
DWIDTH 0 0
BBX 9 3 -13 18
BITMAP
7180
FF80
C700
ENDCHAR
STARTCHAR 0343
ENCODING 835
SWIDTH 0 0
DWIDTH 0 0
BBX 3 7 -10 17
BITMAP
E0
E0
E0
60
60
40
80
ENDCHAR
STARTCHAR 0344
ENCODING 836
SWIDTH 0 0
DWIDTH 0 0
BBX 11 4 -14 18
BITMAP
0E00
0E00
CE60
CE60
ENDCHAR
STARTCHAR 0345
ENCODING 837
SWIDTH 0 0
DWIDTH 0 0
BBX 4 4 -9 -6
BITMAP
C0
C0
F0
70
ENDCHAR
STARTCHAR 0374
ENCODING 884
SWIDTH 288 0
DWIDTH 8 0
BBX 6 8 2 14
BITMAP
1C
38
38
30
70
60
60
C0
ENDCHAR
STARTCHAR 0375
ENCODING 885
SWIDTH 288 0
DWIDTH 8 0
BBX 6 8 2 -5
BITMAP
1C
38
38
30
70
60
60
C0
ENDCHAR
STARTCHAR 037A
ENCODING 890
SWIDTH 612 0
DWIDTH 17 0
BBX 4 5 7 -6
BITMAP
C0
C0
C0
F0
70
ENDCHAR
STARTCHAR 037E
ENCODING 894
SWIDTH 324 0
DWIDTH 9 0
BBX 3 19 3 -4
BITMAP
E0
E0
E0
00
00
00
00
00
00
00
00
00
E0
E0
E0
60
60
40
80
ENDCHAR
STARTCHAR 0384
ENCODING 900
SWIDTH 612 0
DWIDTH 17 0
BBX 3 4 7 18
BITMAP
E0
E0
E0
E0
ENDCHAR
STARTCHAR 0385
ENCODING 901
SWIDTH 612 0
DWIDTH 17 0
BBX 11 4 3 18
BITMAP
0E00
0E00
C460
C460
ENDCHAR
STARTCHAR 0386
ENCODING 902
SWIDTH 684 0
DWIDTH 19 0
BBX 19 20 0 0
BITMAP
E06000
E0F000
E0F000
E1F000
01B800
01B800
031C00
031C00
061C00
060E00
0C0E00
0C0700
1FFF00
1FFF00
380380
300380
3001C0
6001C0
6001C0
C000E0
ENDCHAR
STARTCHAR 0387
ENCODING 903
SWIDTH 324 0
DWIDTH 9 0
BBX 3 3 3 7
BITMAP
E0
E0
E0
ENDCHAR
STARTCHAR 0388
ENCODING 904
SWIDTH 648 0
DWIDTH 18 0
BBX 17 20 0 0
BITMAP
E7FF00
E7FF00
E70000
E70000
070000
070000
070000
070000
070000
07FE00
07FE00
070000
070000
070000
070000
070000
070000
070000
07FF80
07FF80
ENDCHAR
STARTCHAR 0389
ENCODING 905
SWIDTH 864 0
DWIDTH 24 0
BBX 21 20 0 0
BITMAP
E70038
E70038
E70038
E70038
070038
070038
070038
070038
070038
07FFF8
07FFF8
070038
070038
070038
070038
070038
070038
070038
070038
070038
ENDCHAR
STARTCHAR 038A
ENCODING 906
SWIDTH 396 0
DWIDTH 11 0
BBX 8 20 0 0
BITMAP
E7
E7
E7
E7
07
07
07
07
07
07
07
07
07
07
07
07
07
07
07
07
ENDCHAR
STARTCHAR 038C
ENCODING 908
SWIDTH 864 0
DWIDTH 24 0
BBX 23 20 -1 0
BITMAP
E03F80
E0FFE0
E1E0F0
E38038
07001C
07001C
0E000E
0E000E
0E000E
0E000E
0E000E
0E000E
0E000E
0E000E
07001C
07001C
038038
01E0F0
00FFE0
003F80
ENDCHAR
STARTCHAR 038E
ENCODING 910
SWIDTH 792 0
DWIDTH 22 0
BBX 22 20 0 0
BITMAP
E7000C
E7C03C
E1E078
E070E0
0071C0
003980
001B80
001B00
001F00
000E00
000E00
000E00
000E00
000E00
000E00
000E00
000E00
000E00
000E00
000E00
ENDCHAR
STARTCHAR 038F
ENCODING 911
SWIDTH 864 0
DWIDTH 24 0
BBX 24 20 -1 0
BITMAP
E03F80
E0FFE0
E1E0F0
E38038
07001C
07001C
0E000E
0E000E
0E000E
0E000E
0E000E
0E000E
06001C
07001C
030018
038038
01C070
00E0C0
1FF1FF
1FF1FF
ENDCHAR
STARTCHAR 0390
ENCODING 912
SWIDTH 360 0
DWIDTH 10 0
BBX 11 22 -2 0
BITMAP
0E00
0E00
C460
C460
0000
0000
0000
0E00
0E00
0E00
0E00
0E00
0E00
0E00
0E00
0E00
0E00
0E00
0E00
0F20
07E0
03C0
ENDCHAR
STARTCHAR 0391
ENCODING 913
SWIDTH 684 0
DWIDTH 19 0
BBX 19 20 0 0
BITMAP
006000
00F000
00F000
01F000
01B800
01B800
031C00
031C00
061C00
060E00
0C0E00
0C0700
1FFF00
1FFF00
380380
300380
3001C0
6001C0
6001C0
C000E0
ENDCHAR
STARTCHAR 0392
ENCODING 914
SWIDTH 576 0
DWIDTH 16 0
BBX 12 20 2 0
BITMAP
FF00
FFC0
E1E0
E0E0
E0E0
E0E0
E0E0
E1C0
E380
FF00
FF80
E3C0
E0E0
E070
E070
E070
E070
E0E0
FFE0
FF80
ENDCHAR
STARTCHAR 0393
ENCODING 915
SWIDTH 504 0
DWIDTH 14 0
BBX 12 20 2 0
BITMAP
FFF0
FFF0
E000
E000
E000
E000
E000
E000
E000
E000
E000
E000
E000
E000
E000
E000
E000
E000
E000
E000
ENDCHAR
STARTCHAR 0394
ENCODING 916
SWIDTH 720 0
DWIDTH 20 0
BBX 18 20 1 0
BITMAP
00C000
01E000
01E000
037000
037000
063800
063800
0E1C00
0C1C00
1C1C00
180E00
380E00
300700
300700
600380
600380
C001C0
FFFFC0
FFFFC0
FFFFC0
ENDCHAR
STARTCHAR 0395
ENCODING 917
SWIDTH 540 0
DWIDTH 15 0
BBX 12 20 2 0
BITMAP
FFE0
FFE0
E000
E000
E000
E000
E000
E000
E000
FFC0
FFC0
E000
E000
E000
E000
E000
E000
E000
FFF0
FFF0
ENDCHAR
STARTCHAR 0396
ENCODING 918
SWIDTH 612 0
DWIDTH 17 0
BBX 14 20 1 0
BITMAP
7FFC
7FFC
001C
0038
0070
0070
00E0
01C0
03C0
0380
0700
0F00
0E00
1C00
3800
3800
7000
E000
FFFC
FFFC
ENDCHAR
STARTCHAR 0397
ENCODING 919
SWIDTH 756 0
DWIDTH 21 0
BBX 16 20 2 0
BITMAP
E007
E007
E007
E007
E007
E007
E007
E007
E007
FFFF
FFFF
E007
E007
E007
E007
E007
E007
E007
E007
E007
ENDCHAR
STARTCHAR 0398
ENCODING 920
SWIDTH 792 0
DWIDTH 22 0
BBX 19 20 1 0
BITMAP
03F800
0FFE00
1E0F00
380380
7001C0
7001C0
E000E0
E000E0
E000E0
E3F8E0
E3F8E0
E000E0
E000E0
E000E0
7001C0
7001C0
380380
1E0F00
0FFE00
03F800
ENDCHAR
STARTCHAR 0399
ENCODING 921
SWIDTH 288 0
DWIDTH 8 0
BBX 3 20 2 0
BITMAP
E0
E0
E0
E0
E0
E0
E0
E0
E0
E0
E0
E0
E0
E0
E0
E0
E0
E0
E0
E0
ENDCHAR
STARTCHAR 039A
ENCODING 922
SWIDTH 648 0
DWIDTH 18 0
BBX 15 20 2 0
BITMAP
E01C
E038
E070
E0E0
E0C0
E180
E300
E700
EE00
FC00
EC00
EE00
E700
E380
E1C0
E0E0
E070
E038
E01C
E00E
ENDCHAR
STARTCHAR 039B
ENCODING 923
SWIDTH 648 0
DWIDTH 18 0
BBX 18 20 0 0
BITMAP
01C000
01E000
01E000
036000
037000
037000
063800
063800
0E3800
0C1C00
0C1C00
180E00
180E00
380E00
300700
300700
600300
600380
600380
C001C0
ENDCHAR
STARTCHAR 039C
ENCODING 924
SWIDTH 864 0
DWIDTH 24 0
BBX 19 20 2 0
BITMAP
F001E0
F001E0
F003E0
F803E0
F803E0
DC06E0
DC06E0
DC06E0
CE0CE0
CE0CE0
C61CE0
C718E0
C718E0
C3B0E0
C3B0E0
C1B0E0
C1E0E0
C1E0E0
C0C0E0
C000E0
ENDCHAR
STARTCHAR 039D
ENCODING 925
SWIDTH 756 0
DWIDTH 21 0
BBX 16 20 2 0
BITMAP
E003
E003
F003
F803
DC03
DC03
CE03
C703
C303
C383
C1C3
C0C3
C0E3
C073
C03B
C03B
C01F
C00F
C007
C007
ENDCHAR
STARTCHAR 039E
ENCODING 926
SWIDTH 612 0
DWIDTH 17 0
BBX 15 20 1 0
BITMAP
7FFC
7FFC
7FFC
0000
0000
0000
0000
0000
3FF8
3FF8
3FF8
0000
0000
0000
0000
0000
0000
FFFE
FFFE
FFFE
ENDCHAR
STARTCHAR 039F
ENCODING 927
SWIDTH 792 0
DWIDTH 22 0
BBX 19 20 1 0
BITMAP
03F800
0FFE00
1E0F00
380380
7001C0
7001C0
E000E0
E000E0
E000E0
E000E0
E000E0
E000E0
E000E0
E000E0
7001C0
7001C0
380380
1E0F00
0FFE00
03F800
ENDCHAR
STARTCHAR 03A0
ENCODING 928
SWIDTH 756 0
DWIDTH 21 0
BBX 16 20 2 0
BITMAP
FFFF
FFFF
E007
E007
E007
E007
E007
E007
E007
E007
E007
E007
E007
E007
E007
E007
E007
E007
E007
E007
ENDCHAR
STARTCHAR 03A1
ENCODING 929
SWIDTH 540 0
DWIDTH 15 0
BBX 12 20 2 0
BITMAP
FF80
FFE0
E0E0
E070
E070
E070
E070
E070
E0E0
E1E0
FFC0
FF00
E000
E000
E000
E000
E000
E000
E000
E000
ENDCHAR
STARTCHAR 03A3
ENCODING 931
SWIDTH 612 0
DWIDTH 17 0
BBX 15 20 1 0
BITMAP
FFFE
FFFE
7000
3800
1C00
0E00
0780
03C0
01E0
0070
00E0
01C0
0380
0700
0E00
1800
3000
6000
FFFE
FFFE
ENDCHAR
STARTCHAR 03A4
ENCODING 932
SWIDTH 648 0
DWIDTH 18 0
BBX 17 20 0 0
BITMAP
FFFF80
FFFF80
01C000
01C000
01C000
01C000
01C000
01C000
01C000
01C000
01C000
01C000
01C000
01C000
01C000
01C000
01C000
01C000
01C000
01C000
ENDCHAR
STARTCHAR 03A5
ENCODING 933
SWIDTH 648 0
DWIDTH 18 0
BBX 17 20 0 0
BITMAP
E00180
F80780
3C0F00
0E1C00
0E3800
073000
037000
036000
03E000
01C000
01C000
01C000
01C000
01C000
01C000
01C000
01C000
01C000
01C000
01C000
ENDCHAR
STARTCHAR 03A6
ENCODING 934
SWIDTH 720 0
DWIDTH 20 0
BBX 18 20 1 0
BITMAP
00C000
00C000
00C000
07F800
1FFE00
38C700
70C380
E0C1C0
E0C1C0
E0C1C0
E0C1C0
E0C1C0
E0C1C0
70C380
38C700
1FFE00
07F800
00C000
00C000
00C000
ENDCHAR
STARTCHAR 03A7
ENCODING 935
SWIDTH 648 0
DWIDTH 18 0
BBX 17 20 0 0
BITMAP
E00180
700300
380600
380E00
1C0C00
0E1800
0F3000
077000
03E000
01C000
01C000
03E000
077000
067800
0C3800
181C00
380E00
300E00
600700
C00380
ENDCHAR
STARTCHAR 03A8
ENCODING 936
SWIDTH 720 0
DWIDTH 20 0
BBX 19 20 0 0
BITMAP
E0E0E0
F0E1E0
30E180
30E180
18E300
18E300
18E300
18E300
1CE600
0FFE00
03F800
00E000
00E000
00E000
00E000
00E000
00E000
00E000
00E000
00E000
ENDCHAR
STARTCHAR 03A9
ENCODING 937
SWIDTH 792 0
DWIDTH 22 0
BBX 21 20 0 0
BITMAP
01FC00
07FF00
0F0780
1C01C0
3800E0
3800E0
700070
700070
700070
700070
700070
700070
3000E0
3800E0
1800C0
1C01C0
0E0380
070600
FF8FF8
FF8FF8
ENDCHAR
STARTCHAR 03AA
ENCODING 938
SWIDTH 288 0
DWIDTH 8 0
BBX 7 24 0 0
BITMAP
C6
C6
00
00
38
38
38
38
38
38
38
38
38
38
38
38
38
38
38
38
38
38
38
38
ENDCHAR
STARTCHAR 03AB
ENCODING 939
SWIDTH 648 0
DWIDTH 18 0
BBX 17 24 0 0
BITMAP
031800
031800
000000
000000
E00180
F80780
3C0F00
0E1C00
0E3800
073000
037000
036000
03E000
01C000
01C000
01C000
01C000
01C000
01C000
01C000
01C000
01C000
01C000
01C000
ENDCHAR
STARTCHAR 03AC
ENCODING 940
SWIDTH 684 0
DWIDTH 19 0
BBX 17 22 1 0
BITMAP
038000
038000
038000
038000
000000
000000
000000
0F8380
1FE380
38E300
707700
707E00
E03E00
E03C00
E01C00
E01C00
E01E00
E03E00
707600
78E700
3FC700
1F8380
ENDCHAR
STARTCHAR 03AD
ENCODING 941
SWIDTH 540 0
DWIDTH 15 0
BBX 12 22 1 0
BITMAP
0380
0380
0380
0380
0000
0000
0000
0FE0
1FF0
3810
7000
E000
E000
FFE0
FFE0
E000
E000
F000
7000
3810
1FF0
0FE0
ENDCHAR
STARTCHAR 03AE
ENCODING 942
SWIDTH 612 0
DWIDTH 17 0
BBX 13 27 1 -5
BITMAP
0380
0380
0380
0380
0000
0000
0000
E3E0
77F0
7C38
7838
7038
7038
7038
7038
7038
7038
7038
7038
7038
7038
7038
0038
0038
0038
0038
0038
ENDCHAR
STARTCHAR 03AF
ENCODING 943
SWIDTH 360 0
DWIDTH 10 0
BBX 7 22 2 0
BITMAP
E0
E0
E0
E0
00
00
00
E0
E0
E0
E0
E0
E0
E0
E0
E0
E0
E0
E0
F2
7E
3C
ENDCHAR
STARTCHAR 03B0
ENCODING 944
SWIDTH 612 0
DWIDTH 17 0
BBX 12 22 2 0
BITMAP
0E00
0E00
C460
C460
0000
0000
0000
E1C0
E0E0
E0E0
E0E0
E070
E070
E070
E070
E070
E070
E070
E0E0
71E0
3FC0
1F00
ENDCHAR
STARTCHAR 03B1
ENCODING 945
SWIDTH 684 0
DWIDTH 19 0
BBX 17 15 1 0
BITMAP
0F8380
1FE380
38E300
707700
707E00
E03E00
E03C00
E01C00
E01C00
E01E00
E03E00
707600
78E700
3FC700
1F8380
ENDCHAR
STARTCHAR 03B2
ENCODING 946
SWIDTH 612 0
DWIDTH 17 0
BBX 13 27 2 -5
BITMAP
1F00
3FC0
71E0
70E0
E0E0
E0E0
E0E0
E1C0
E380
EF00
EFC0
E1E0
E070
E078
E038
E038
E038
E038
E070
F0F0
FFE0
FF80
E000
E000
E000
E000
E000
ENDCHAR
STARTCHAR 03B3
ENCODING 947
SWIDTH 576 0
DWIDTH 16 0
BBX 16 20 -1 -5
BITMAP
E007
7006
380C
380C
1C18
0C38
0E30
0630
0760
0360
03C0
01C0
0180
0180
01C0
03C0
03C0
03C0
03C0
0180
ENDCHAR
STARTCHAR 03B4
ENCODING 948
SWIDTH 612 0
DWIDTH 17 0
BBX 14 22 1 0
BITMAP
0FC0
3FE0
7820
7000
7800
3E00
0F00
07C0
07E0
1FF0
3C78
7038
F01C
E01C
E01C
E01C
E01C
E03C
7038
7870
3FF0
0FC0
ENDCHAR
STARTCHAR 03B5
ENCODING 949
SWIDTH 540 0
DWIDTH 15 0
BBX 12 15 1 0
BITMAP
0FE0
1FF0
3810
7000
E000
E000
FFE0
FFE0
E000
E000
F000
7000
3810
1FF0
0FE0
ENDCHAR
STARTCHAR 03B6
ENCODING 950
SWIDTH 648 0
DWIDTH 18 0
BBX 18 27 0 -5
BITMAP
000380
000FC0
803F80
E0FF00
7FFC00
3FE000
030000
060000
0E0000
0C0000
1C0000
180000
380000
380000
380000
380000
380000
3C0000
1E0000
1FFF00
0FFF80
03FFC0
0000C0
0000C0
0001C0
003F80
003E00
ENDCHAR
STARTCHAR 03B7
ENCODING 951
SWIDTH 612 0
DWIDTH 17 0
BBX 13 20 1 -5
BITMAP
E3E0
77F0
7C38
7838
7038
7038
7038
7038
7038
7038
7038
7038
7038
7038
7038
0038
0038
0038
0038
0038
ENDCHAR
STARTCHAR 03B8
ENCODING 952
SWIDTH 612 0
DWIDTH 17 0
BBX 14 22 1 0
BITMAP
0F80
1FE0
3CF0
7878
7038
7038
E01C
E01C
E01C
E01C
FFFC
FFFC
E01C
E01C
E01C
E01C
7038
7038
7878
38F0
1FE0
0FC0
ENDCHAR
STARTCHAR 03B9
ENCODING 953
SWIDTH 360 0
DWIDTH 10 0
BBX 7 15 2 0
BITMAP
E0
E0
E0
E0
E0
E0
E0
E0
E0
E0
E0
E0
F2
7E
3C
ENDCHAR
STARTCHAR 03BA
ENCODING 954
SWIDTH 540 0
DWIDTH 15 0
BBX 12 15 2 0
BITMAP
E060
E0E0
E180
E300
E600
EC00
FC00
FC00
EE00
E700
E380
E380
E1C0
E0E0
E070
ENDCHAR
STARTCHAR 03BB
ENCODING 955
SWIDTH 576 0
DWIDTH 16 0
BBX 15 22 1 0
BITMAP
7000
7C00
1C00
0E00
0E00
0700
0700
0700
0380
0780
07C0
0FC0
0DC0
0CE0
18E0
1870
3070
3078
7038
603C
601C
C01E
ENDCHAR
STARTCHAR 03BC
ENCODING 956
SWIDTH 648 0
DWIDTH 18 0
BBX 13 20 2 -5
BITMAP
E070
E070
E070
E070
E070
E070
E070
E070
E070
E070
E070
E0F0
F1F0
FF70
FC38
E000
E000
E000
E000
E000
ENDCHAR
STARTCHAR 03BD
ENCODING 957
SWIDTH 540 0
DWIDTH 15 0
BBX 14 15 0 0
BITMAP
E01C
701C
701C
381C
3818
3818
1C38
1C30
1C30
0E60
0E60
0EC0
07C0
0780
0780
ENDCHAR
STARTCHAR 03BE
ENCODING 958
SWIDTH 576 0
DWIDTH 16 0
BBX 16 27 0 -5
BITMAP
C0FC
FFFC
7FF0
0E00
1C00
1C00
1C00
1C00
0E00
0780
01FC
07FC
0F00
1C00
3800
3800
3800
3800
3C00
1FFC
0FFE
03FF
0003
0003
0007
00FE
00F8
ENDCHAR
STARTCHAR 03BF
ENCODING 959
SWIDTH 612 0
DWIDTH 17 0
BBX 14 15 1 0
BITMAP
0FC0
3FF0
7870
7038
E01C
E01C
E01C
E01C
E01C
E01C
E01C
7038
7878
3FF0
0FC0
ENDCHAR
STARTCHAR 03C0
ENCODING 960
SWIDTH 792 0
DWIDTH 22 0
BBX 20 15 1 0
BITMAP
FFFFF0
FFFFF0
8E0380
0E0380
0E0380
0E0380
0E0380
0E0380
0E0380
0E0380
0E0380
0E0380
0E0380
0E0380
0E01C0
ENDCHAR
STARTCHAR 03C1
ENCODING 961
SWIDTH 612 0
DWIDTH 17 0
BBX 13 20 2 -5
BITMAP
0FC0
3FE0
38F0
7078
6038
E038
E038
E038
E038
E038
E070
E070
F0E0
FFC0
FF00
E000
E000
E000
E000
E000
ENDCHAR
STARTCHAR 03C2
ENCODING 962
SWIDTH 576 0
DWIDTH 16 0
BBX 15 20 1 -5
BITMAP
01F8
0FF8
1E00
3800
7000
6000
E000
E000
E000
E000
F000
7800
7FF8
3FFC
0FFE
0006
0006
000E
01FC
01F0
ENDCHAR
STARTCHAR 03C3
ENCODING 963
SWIDTH 684 0
DWIDTH 19 0
BBX 19 15 1 0
BITMAP
0FFFE0
1FFFE0
383C00
701C00
E01E00
E00E00
E00E00
E00E00
E00E00
E00E00
E01C00
701C00
383800
1FF000
0FC000
ENDCHAR
STARTCHAR 03C4
ENCODING 964
SWIDTH 540 0
DWIDTH 15 0
BBX 15 15 0 0
BITMAP
7FFE
FFFE
8380
0380
0380
0380
0380
0380
0380
0380
0380
0380
0380
0380
01C0
ENDCHAR
STARTCHAR 03C5
ENCODING 965
SWIDTH 612 0
DWIDTH 17 0
BBX 12 15 2 0
BITMAP
E1C0
E0E0
E0E0
E0E0
E070
E070
E070
E070
E070
E070
E070
E0E0
71E0
3FC0
1F00
ENDCHAR
STARTCHAR 03C6
ENCODING 966
SWIDTH 828 0
DWIDTH 23 0
BBX 19 20 1 -5
BITMAP
1C1F00
3C7F80
7071C0
F0F1C0
E0E0E0
E0E0E0
E0E0E0
E0E0E0
E0E0E0
E0E0E0
70E1C0
70E1C0
38E780
1FFF00
07F800
00E000
00E000
00E000
00E000
00E000
ENDCHAR
STARTCHAR 03C7
ENCODING 967
SWIDTH 540 0
DWIDTH 15 0
BBX 15 20 0 -5
BITMAP
E01C
7018
3838
3830
1C60
1C60
0EC0
07C0
0780
0380
0380
07C0
0FC0
0CE0
1870
1870
3038
7038
601C
E00E
ENDCHAR
STARTCHAR 03C8
ENCODING 968
SWIDTH 792 0
DWIDTH 22 0
BBX 20 23 0 -5
BITMAP
007000
007000
007000
E070E0
707060
707070
707070
707070
707070
707070
707070
707070
7070F0
3870E0
3871E0
1E73C0
0FFF80
03FE00
007000
007000
007000
007000
007000
ENDCHAR
STARTCHAR 03C9
ENCODING 969
SWIDTH 900 0
DWIDTH 25 0
BBX 22 15 1 0
BITMAP
1C00E0
387070
707838
707838
707838
E0781C
E0781C
E0301C
E0301C
E0301C
E0783C
706838
78EC78
3FC7F0
0F83E0
ENDCHAR
STARTCHAR 03CA
ENCODING 970
SWIDTH 360 0
DWIDTH 10 0
BBX 9 20 0 0
BITMAP
C600
C600
0000
0000
0000
3800
3800
3800
3800
3800
3800
3800
3800
3800
3800
3800
3800
3C80
1F80
0F00
ENDCHAR
STARTCHAR 03CB
ENCODING 971
SWIDTH 612 0
DWIDTH 17 0
BBX 12 20 2 0
BITMAP
3180
3180
0000
0000
0000
E1C0
E0E0
E0E0
E0E0
E070
E070
E070
E070
E070
E070
E070
E0E0
71E0
3FC0
1F00
ENDCHAR
STARTCHAR 03CC
ENCODING 972
SWIDTH 612 0
DWIDTH 17 0
BBX 14 22 1 0
BITMAP
0380
0380
0380
0380
0000
0000
0000
0FC0
3FF0
7870
7038
E01C
E01C
E01C
E01C
E01C
E01C
E01C
7038
7878
3FF0
0FC0
ENDCHAR
STARTCHAR 03CD
ENCODING 973
SWIDTH 612 0
DWIDTH 17 0
BBX 12 22 2 0
BITMAP
0E00
0E00
0E00
0E00
0000
0000
0000
E1C0
E0E0
E0E0
E0E0
E070
E070
E070
E070
E070
E070
E070
E0E0
71E0
3FC0
1F00
ENDCHAR
STARTCHAR 03CE
ENCODING 974
SWIDTH 900 0
DWIDTH 25 0
BBX 22 22 1 0
BITMAP
003800
003800
003800
003800
000000
000000
000000
1C00E0
387070
707838
707838
707838
E0781C
E0781C
E0301C
E0301C
E0301C
E0783C
706838
78EC78
3FC7F0
0F83E0
ENDCHAR
STARTCHAR 03D0
ENCODING 976
SWIDTH 540 0
DWIDTH 15 0
BBX 13 22 1 0
BITMAP
03E0
0FF0
1C78
3838
3838
7038
7870
7FE0
E7C0
E000
E000
E000
E3C0
EFF0
F870
F038
7038
7038
7838
3C70
1FE0
0FC0
ENDCHAR
STARTCHAR 03D1
ENCODING 977
SWIDTH 612 0
DWIDTH 17 0
BBX 15 22 1 0
BITMAP
0F00
3F80
71C0
60E0
C0E0
C060
C070
C070
E070
7FFE
1FFE
0070
0070
0070
0070
0070
E0E0
70E0
70C0
71C0
3F80
1F00
ENDCHAR
STARTCHAR 03D2
ENCODING 978
SWIDTH 648 0
DWIDTH 18 0
BBX 17 20 1 0
BITMAP
E00780
701F80
383C00
1C7000
1C7000
0EE000
0EC000
07C000
07C000
038000
038000
038000
038000
038000
038000
038000
038000
038000
038000
038000
ENDCHAR
STARTCHAR 03D3
ENCODING 979
SWIDTH 756 0
DWIDTH 21 0
BBX 21 20 1 0
BITMAP
EE0078
E701F8
E383C0
E1C700
01C700
00EE00
00EC00
007C00
007C00
003800
003800
003800
003800
003800
003800
003800
003800
003800
003800
003800
ENDCHAR
STARTCHAR 03D4
ENCODING 980
SWIDTH 648 0
DWIDTH 18 0
BBX 17 24 1 0
BITMAP
063000
063000
000000
000000
E00780
701F80
383C00
1C7000
1C7000
0EE000
0EC000
07C000
07C000
038000
038000
038000
038000
038000
038000
038000
038000
038000
038000
038000
ENDCHAR
STARTCHAR 03D5
ENCODING 981
SWIDTH 792 0
DWIDTH 22 0
BBX 19 27 1 -5
BITMAP
00E000
00E000
00E000
00E000
00E000
00E000
00E000
07FC00
1FFF00
3CE780
70E1C0
70E1C0
E0E0E0
E0E0E0
E0E0E0
E0E0E0
E0E0E0
70E1C0
70E1C0
3CE780
1FFF00
07FC00
00E000
00E000
00E000
00E000
00E000
ENDCHAR
STARTCHAR 03D6
ENCODING 982
SWIDTH 900 0
DWIDTH 25 0
BBX 23 15 1 0
BITMAP
7FFFFE
FFFFFE
9C0038
1C0038
38181C
383C1C
383C1C
383C1C
383C1C
38181C
38181C
1C3C38
1E7E78
0FE7F0
07C3E0
ENDCHAR
STARTCHAR 03DA
ENCODING 986
SWIDTH 684 0
DWIDTH 19 0
BBX 16 25 1 -5
BITMAP
00FC
03FE
0F02
1E00
3C00
3800
7000
7000
E000
E000
E000
E000
E000
E000
F000
7000
7C00
3FFC
1FFE
07FF
0007
0003
0007
01FE
01F8
ENDCHAR
STARTCHAR 03DC
ENCODING 988
SWIDTH 540 0
DWIDTH 15 0
BBX 11 20 2 0
BITMAP
FFE0
FFE0
E000
E000
E000
E000
E000
E000
E000
FFC0
FFC0
E000
E000
E000
E000
E000
E000
E000
E000
E000
ENDCHAR
STARTCHAR 03DE
ENCODING 990
SWIDTH 540 0
DWIDTH 15 0
BBX 13 20 0 0
BITMAP
0C00
1800
1800
1800
3000
3000
3000
6000
7FF8
7FF8
FFF0
0030
0070
0060
0060
00E0
00C0
00C0
01C0
0180
ENDCHAR
STARTCHAR 03E0
ENCODING 992
SWIDTH 648 0
DWIDTH 18 0
BBX 17 20 0 0
BITMAP
F00000
FE0000
078000
00E000
00F000
01F800
078C00
0E0E00
3C0600
700F00
001F00
007900
00E180
03C180
070180
020180
000180
000180
000380
000100
ENDCHAR
STARTCHAR 03E2
ENCODING 994
SWIDTH 900 0
DWIDTH 25 0
BBX 22 25 1 -5
BITMAP
380070
700038
703038
707838
607818
E0781C
E0781C
E0781C
E0781C
E0781C
E0301C
E0301C
E0301C
E0701C
F0783C
70783C
78FC7C
7FCFFC
3F87D8
0F0398
000038
000030
0000F0
001FE0
001F80
ENDCHAR
STARTCHAR 03E3
ENCODING 995
SWIDTH 900 0
DWIDTH 25 0
BBX 22 20 1 -5
BITMAP
1C00E0
387070
707838
707838
707838
E0781C
E0781C
E0301C
E0301C
E0301C
E0783C
70783C
78CC7C
3F87F8
0F03D8
000038
000030
0000F0
001FE0
001F80
ENDCHAR
STARTCHAR 03E4
ENCODING 996
SWIDTH 648 0
DWIDTH 18 0
BBX 14 20 1 0
BITMAP
701C
701C
E01C
E01C
E01C
E01C
E01C
E01C
E01C
F03C
787C
3FFC
1F9C
001C
001C
001C
001C
001C
001C
001C
ENDCHAR
STARTCHAR 03E5
ENCODING 997
SWIDTH 612 0
DWIDTH 17 0
BBX 13 20 1 -5
BITMAP
3838
7038
7038
7038
6038
E038
E038
E038
E038
E038
E078
E0F8
71B8
3FB8
1E38
0038
0038
0038
0038
0038
ENDCHAR
STARTCHAR 03E6
ENCODING 998
SWIDTH 684 0
DWIDTH 19 0
BBX 15 25 2 -5
BITMAP
E000
E000
E000
E000
E3E0
E7F8
EFFC
FC3C
F01C
E00E
E00E
E00E
E00E
E00E
E00E
E00E
E00E
E00E
E01C
E01C
001C
0038
00F0
1FE0
1F80
ENDCHAR
STARTCHAR 03E7
ENCODING 999
SWIDTH 612 0
DWIDTH 17 0
BBX 13 20 2 -5
BITMAP
E000
E000
E000
E3C0
E7E0
EFF0
F870
F078
E038
E038
E038
E038
E038
E038
E070
0070
00E0
01E0
1FC0
1F00
ENDCHAR
STARTCHAR 03E8
ENCODING 1000
SWIDTH 576 0
DWIDTH 16 0
BBX 14 20 1 0
BITMAP
1FE0
7FF8
607C
001C
001C
001C
003C
0038
00F0
03E0
0F80
3E00
F800
E000
F000
7800
3E00
0FFC
07FC
00FC
ENDCHAR
STARTCHAR 03E9
ENCODING 1001
SWIDTH 468 0
DWIDTH 13 0
BBX 11 20 0 -5
BITMAP
3F00
7FC0
41E0
00E0
00E0
00E0
00E0
01C0
03C0
0780
0E00
3C00
F000
C000
E000
7000
3C00
1FE0
0FE0
03E0
ENDCHAR
STARTCHAR 03EA
ENCODING 1002
SWIDTH 648 0
DWIDTH 18 0
BBX 16 20 1 0
BITMAP
F00E
FC0C
1E18
0E30
0770
07E0
03C0
01C0
03C0
03E0
0670
0C70
1C38
181C
301C
600E
E007
FFFF
FFFF
FFFF
ENDCHAR
STARTCHAR 03EB
ENCODING 1003
SWIDTH 612 0
DWIDTH 17 0
BBX 15 15 1 0
BITMAP
781C
7C38
1E70
0EE0
07C0
0380
03C0
06E0
0CE0
1C70
3838
701C
E00E
FFFE
FFFE
ENDCHAR
STARTCHAR 03EC
ENCODING 1004
SWIDTH 720 0
DWIDTH 20 0
BBX 17 20 1 0
BITMAP
01FF00
0FFF00
1E0300
380000
300000
73F000
6FFC00
FC1E00
F80700
F00700
E00380
E00380
E00380
E00380
E00380
700700
780700
3C1E00
1FFC00
07F000
ENDCHAR
STARTCHAR 03ED
ENCODING 1005
SWIDTH 612 0
DWIDTH 17 0
BBX 14 22 1 0
BITMAP
03F0
0FF8
1E08
3800
3800
7000
7000
6000
E7C0
FFF0
F878
F038
E01C
E01C
E01C
E01C
E01C
601C
7038
3878
1FF0
0FC0
ENDCHAR
STARTCHAR 03EE
ENCODING 1006
SWIDTH 648 0
DWIDTH 18 0
BBX 17 20 0 0
BITMAP
01C000
01C000
01C000
01C000
FFFF80
FFFF80
01C000
01C000
01C000
01C000
01C000
01C000
01C000
01C000
01C000
01C000
01C000
01C000
01C000
01C000
ENDCHAR
STARTCHAR 03EF
ENCODING 1007
SWIDTH 540 0
DWIDTH 15 0
BBX 13 27 1 -5
BITMAP
0700
0700
0700
0700
0700
0700
0700
FFF8
FFF8
0700
0700
0700
0700
0700
0700
0700
0700
0700
0700
0700
0700
0700
0700
0700
0700
0700
0700
ENDCHAR
STARTCHAR 03F0
ENCODING 1008
SWIDTH 540 0
DWIDTH 15 0
BBX 13 15 1 0
BITMAP
E010
F038
3870
1870
18E0
18C0
1BC0
1FC0
1EC0
38C0
38C0
78C0
70E0
E078
4038
ENDCHAR
STARTCHAR 03F1
ENCODING 1009
SWIDTH 612 0
DWIDTH 17 0
BBX 13 20 2 -5
BITMAP
0FC0
3FE0
78F0
7078
E038
E038
E038
E038
E038
E070
E070
F0E0
FFC0
FF00
6000
7000
7000
3800
1FF8
07F8
ENDCHAR
STARTCHAR 03F2
ENCODING 1010
SWIDTH 504 0
DWIDTH 14 0
BBX 11 15 1 0
BITMAP
0FC0
3FE0
7820
7000
E000
E000
E000
E000
E000
E000
E000
7000
7820
3FE0
0FC0
ENDCHAR
STARTCHAR 03F3
ENCODING 1011
SWIDTH 324 0
DWIDTH 9 0
BBX 8 25 -2 -5
BITMAP
07
07
07
00
00
07
07
07
07
07
07
07
07
07
07
07
07
07
07
07
07
07
8E
FE
7C
ENDCHAR
STARTCHAR 0401
ENCODING 1025
SWIDTH 540 0
DWIDTH 15 0
BBX 12 24 2 0
BITMAP
18C0
18C0
0000
0000
FFE0
FFE0
E000
E000
E000
E000
E000
E000
E000
FFC0
FFC0
E000
E000
E000
E000
E000
E000
E000
FFF0
FFF0
ENDCHAR
STARTCHAR 0402
ENCODING 1026
SWIDTH 792 0
DWIDTH 22 0
BBX 21 20 0 0
BITMAP
FFFF80
FFFF80
01C000
01C000
01C000
01C000
01C000
01CF80
01FFE0
01F0F0
01E070
01C038
01C038
01C038
01C038
01C038
01C070
01C0F0
01C7E0
01C780
ENDCHAR
STARTCHAR 0403
ENCODING 1027
SWIDTH 504 0
DWIDTH 14 0
BBX 12 26 2 0
BITMAP
01C0
0300
0600
0C00
0000
0000
FFF0
FFF0
E000
E000
E000
E000
E000
E000
E000
E000
E000
E000
E000
E000
E000
E000
E000
E000
E000
E000
ENDCHAR
STARTCHAR 0404
ENCODING 1028
SWIDTH 684 0
DWIDTH 19 0
BBX 16 20 1 0
BITMAP
03FC
0FFF
1E03
3800
7800
7000
F000
E000
E000
FFF8
FFF8
E000
E000
E000
7000
7000
3801
1E07
0FFE
03F8
ENDCHAR
STARTCHAR 0405
ENCODING 1029
SWIDTH 540 0
DWIDTH 15 0
BBX 12 20 1 0
BITMAP
1F80
3FE0
7060
E000
E000
E000
F000
7800
3E00
1F80
07C0
03E0
00F0
0070
0070
0070
8070
E0E0
7FC0
1F00
ENDCHAR
STARTCHAR 0406
ENCODING 1030
SWIDTH 288 0
DWIDTH 8 0
BBX 3 20 2 0
BITMAP
E0
E0
E0
E0
E0
E0
E0
E0
E0
E0
E0
E0
E0
E0
E0
E0
E0
E0
E0
E0
ENDCHAR
STARTCHAR 0407
ENCODING 1031
SWIDTH 288 0
DWIDTH 8 0
BBX 7 24 0 0
BITMAP
C6
C6
00
00
38
38
38
38
38
38
38
38
38
38
38
38
38
38
38
38
38
38
38
38
ENDCHAR
STARTCHAR 0408
ENCODING 1032
SWIDTH 324 0
DWIDTH 9 0
BBX 6 24 0 -4
BITMAP
1C
1C
1C
1C
1C
1C
1C
1C
1C
1C
1C
1C
1C
1C
1C
1C
1C
1C
1C
1C
1C
1C
F8
F0
ENDCHAR
STARTCHAR 0409
ENCODING 1033
SWIDTH 972 0
DWIDTH 27 0
BBX 25 20 1 0
BITMAP
0FFF0000
0FFF0000
0C070000
0C070000
0C070000
0C070000
0C070000
0C070000
0C070000
0C07F800
0C07FE00
0C070F00
0C070780
0C070380
18070380
18070380
18070780
30070F00
F007FE00
C007F800
ENDCHAR
STARTCHAR 040A
ENCODING 1034
SWIDTH 972 0
DWIDTH 27 0
BBX 24 20 2 0
BITMAP
E01C00
E01C00
E01C00
E01C00
E01C00
E01C00
E01C00
E01C00
E01C00
FFFFF0
FFFFFC
E01C1E
E01C0F
E01C07
E01C07
E01C07
E01C0F
E01C1E
E01FFC
E01FF0
ENDCHAR
STARTCHAR 040B
ENCODING 1035
SWIDTH 792 0
DWIDTH 22 0
BBX 21 20 0 0
BITMAP
FFFE00
FFFE00
038000
038000
038000
038000
038000
039FC0
03BFE0
03E0F0
03C078
038038
038038
038038
038038
038038
038038
038038
038038
038038
ENDCHAR
STARTCHAR 040C
ENCODING 1036
SWIDTH 648 0
DWIDTH 18 0
BBX 15 26 2 0
BITMAP
00E0
0180
0300
0600
0000
0000
E01C
E038
E030
E060
E0E0
E0C0
E1C0
E380
E700
FE00
FF80
E3C0
E1E0
E0F0
E070
E038
E038
E01C
E01C
E00E
ENDCHAR
STARTCHAR 040E
ENCODING 1038
SWIDTH 648 0
DWIDTH 18 0
BBX 17 26 1 0
BITMAP
060C00
060C00
031800
01F000
000000
000000
E00380
700300
700700
380600
380C00
1C0C00
1C1800
0E1800
0E3000
077000
076000
03E000
03C000
018000
018000
030000
070000
0E0000
7C0000
780000
ENDCHAR
STARTCHAR 040F
ENCODING 1039
SWIDTH 756 0
DWIDTH 21 0
BBX 17 24 2 -4
BITMAP
E00380
E00380
E00380
E00380
E00380
E00380
E00380
E00380
E00380
E00380
E00380
E00380
E00380
E00380
E00380
E00380
E00380
E00380
FFFF80
FFFF80
01C000
01C000
01C000
01C000
ENDCHAR
STARTCHAR 0410
ENCODING 1040
SWIDTH 684 0
DWIDTH 19 0
BBX 19 20 0 0
BITMAP
006000
00F000
00F000
01F000
01B800
01B800
031C00
031C00
061C00
060E00
0C0E00
0C0700
1FFF00
1FFF00
380380
300380
3001C0
6001C0
6001C0
C000E0
ENDCHAR
STARTCHAR 0411
ENCODING 1041
SWIDTH 576 0
DWIDTH 16 0
BBX 13 20 2 0
BITMAP
FFF0
FFF0
E000
E000
E000
E000
E000
E000
E000
FF80
FFE0
E0F0
E078
E038
E038
E038
E078
E0F0
FFE0
FF80
ENDCHAR
STARTCHAR 0412
ENCODING 1042
SWIDTH 576 0
DWIDTH 16 0
BBX 12 20 2 0
BITMAP
FF00
FFC0
E1E0
E0E0
E0E0
E0E0
E0E0
E1C0
E380
FF00
FF80
E3C0
E0E0
E070
E070
E070
E070
E0E0
FFE0
FF80
ENDCHAR
STARTCHAR 0413
ENCODING 1043
SWIDTH 504 0
DWIDTH 14 0
BBX 12 20 2 0
BITMAP
FFF0
FFF0
E000
E000
E000
E000
E000
E000
E000
E000
E000
E000
E000
E000
E000
E000
E000
E000
E000
E000
ENDCHAR
STARTCHAR 0414
ENCODING 1044
SWIDTH 756 0
DWIDTH 21 0
BBX 19 24 1 -4
BITMAP
03FF00
03FF00
038700
038700
038700
038700
038700
038700
070700
070700
070700
070700
0E0700
0E0700
0E0700
1C0700
1C0700
380700
FFFFE0
FFFFE0
E000E0
E000E0
E000E0
E000E0
ENDCHAR
STARTCHAR 0415
ENCODING 1045
SWIDTH 540 0
DWIDTH 15 0
BBX 12 20 2 0
BITMAP
FFE0
FFE0
E000
E000
E000
E000
E000
E000
E000
FFC0
FFC0
E000
E000
E000
E000
E000
E000
E000
FFF0
FFF0
ENDCHAR
STARTCHAR 0416
ENCODING 1046
SWIDTH 828 0
DWIDTH 23 0
BBX 21 20 1 0
BITMAP
607030
707070
3870E0
1870C0
0C7180
0C7180
067300
067300
037600
03FE00
07FF00
0E7380
1C71C0
1C71C0
3870C0
3870E0
3870E0
707070
707070
E07038
ENDCHAR
STARTCHAR 0417
ENCODING 1047
SWIDTH 540 0
DWIDTH 15 0
BBX 13 20 1 0
BITMAP
3F80
FFE0
C1E0
0070
0070
0070
0070
00E0
03C0
1F00
1FE0
01F0
0078
0038
0038
0038
0070
C0F0
FFE0
3F80
ENDCHAR
STARTCHAR 0418
ENCODING 1048
SWIDTH 756 0
DWIDTH 21 0
BBX 16 20 2 0
BITMAP
E007
E00F
E01F
E01F
E037
E037
E067
E0E7
E0C7
E187
E187
E307
E707
E607
EC07
EC07
F807
F807
F007
E007
ENDCHAR
STARTCHAR 0419
ENCODING 1049
SWIDTH 756 0
DWIDTH 21 0
BBX 16 26 2 0
BITMAP
0C18
0C18
0630
03E0
0000
0000
E007
E00F
E01F
E01F
E037
E037
E067
E0E7
E0C7
E187
E187
E307
E707
E607
EC07
EC07
F807
F807
F007
E007
ENDCHAR
STARTCHAR 041A
ENCODING 1050
SWIDTH 648 0
DWIDTH 18 0
BBX 15 20 2 0
BITMAP
E01C
E038
E030
E060
E0E0
E0C0
E1C0
E380
E700
FE00
FF80
E3C0
E1E0
E0F0
E070
E038
E038
E01C
E01C
E00E
ENDCHAR
STARTCHAR 041B
ENCODING 1051
SWIDTH 720 0
DWIDTH 20 0
BBX 17 20 0 0
BITMAP
07FF80
07FF80
060380
060380
060380
060380
060380
060380
060380
060380
060380
060380
060380
0E0380
0C0380
0C0380
1C0380
380380
F00380
C00380
ENDCHAR
STARTCHAR 041C
ENCODING 1052
SWIDTH 864 0
DWIDTH 24 0
BBX 19 20 2 0
BITMAP
F001E0
F001E0
F003E0
F803E0
F803E0
DC06E0
DC06E0
DC06E0
CE0CE0
CE0CE0
C61CE0
C718E0
C718E0
C3B0E0
C3B0E0
C1B0E0
C1E0E0
C1E0E0
C0C0E0
C000E0
ENDCHAR
STARTCHAR 041D
ENCODING 1053
SWIDTH 756 0
DWIDTH 21 0
BBX 16 20 2 0
BITMAP
E007
E007
E007
E007
E007
E007
E007
E007
E007
FFFF
FFFF
E007
E007
E007
E007
E007
E007
E007
E007
E007
ENDCHAR
STARTCHAR 041E
ENCODING 1054
SWIDTH 792 0
DWIDTH 22 0
BBX 19 20 1 0
BITMAP
03F800
0FFE00
1E0F00
380380
7001C0
7001C0
E000E0
E000E0
E000E0
E000E0
E000E0
E000E0
E000E0
E000E0
7001C0
7001C0
380380
1E0F00
0FFE00
03F800
ENDCHAR
STARTCHAR 041F
ENCODING 1055
SWIDTH 756 0
DWIDTH 21 0
BBX 16 20 2 0
BITMAP
FFFF
FFFF
E007
E007
E007
E007
E007
E007
E007
E007
E007
E007
E007
E007
E007
E007
E007
E007
E007
E007
ENDCHAR
STARTCHAR 0420
ENCODING 1056
SWIDTH 540 0
DWIDTH 15 0
BBX 12 20 2 0
BITMAP
FF80
FFE0
E0E0
E070
E070
E070
E070
E070
E0E0
E1E0
FFC0
FF00
E000
E000
E000
E000
E000
E000
E000
E000
ENDCHAR
STARTCHAR 0421
ENCODING 1057
SWIDTH 684 0
DWIDTH 19 0
BBX 16 20 1 0
BITMAP
03FC
0FFF
1E03
3800
7000
7000
E000
E000
E000
E000
E000
E000
E000
F000
7000
7800
3801
1E07
0FFE
03F8
ENDCHAR
STARTCHAR 0422
ENCODING 1058
SWIDTH 648 0
DWIDTH 18 0
BBX 17 20 0 0
BITMAP
FFFF80
FFFF80
01C000
01C000
01C000
01C000
01C000
01C000
01C000
01C000
01C000
01C000
01C000
01C000
01C000
01C000
01C000
01C000
01C000
01C000
ENDCHAR
STARTCHAR 0423
ENCODING 1059
SWIDTH 648 0
DWIDTH 18 0
BBX 17 20 1 0
BITMAP
E00380
700300
700700
380600
380C00
1C0C00
1C1800
0E1800
0E3000
077000
076000
03E000
03C000
018000
018000
030000
070000
0E0000
7C0000
780000
ENDCHAR
STARTCHAR 0424
ENCODING 1060
SWIDTH 684 0
DWIDTH 19 0
BBX 17 20 1 0
BITMAP
01C000
01C000
01C000
0FF800
1FFC00
39CE00
71C700
E1C380
E1C380
E1C380
E1C380
E1C380
E1C380
71C700
39CE00
1FFC00
0FF800
01C000
01C000
01C000
ENDCHAR
STARTCHAR 0425
ENCODING 1061
SWIDTH 648 0
DWIDTH 18 0
BBX 17 20 0 0
BITMAP
E00180
700300
380600
380E00
1C0C00
0E1800
0F3000
077000
03E000
01C000
01C000
03E000
077000
067800
0C3800
181C00
380E00
300E00
600700
C00380
ENDCHAR
STARTCHAR 0426
ENCODING 1062
SWIDTH 792 0
DWIDTH 22 0
BBX 19 24 2 -4
BITMAP
E00700
E00700
E00700
E00700
E00700
E00700
E00700
E00700
E00700
E00700
E00700
E00700
E00700
E00700
E00700
E00700
E00700
E00700
FFFFE0
FFFFE0
0000E0
0000E0
0000E0
0000E0
ENDCHAR
STARTCHAR 0427
ENCODING 1063
SWIDTH 648 0
DWIDTH 18 0
BBX 14 20 1 0
BITMAP
E01C
E01C
E01C
E01C
E01C
E01C
E01C
E01C
E01C
E01C
703C
7FFC
1FDC
001C
001C
001C
001C
001C
001C
001C
ENDCHAR
STARTCHAR 0428
ENCODING 1064
SWIDTH 972 0
DWIDTH 27 0
BBX 21 20 2 0
BITMAP
E07038
E07038
E07038
E07038
E07038
E07038
E07038
E07038
E07038
E07038
E07038
E07038
E07038
E07038
E07038
E07038
E07038
E07038
FFFFF8
FFFFF8
ENDCHAR
STARTCHAR 0429
ENCODING 1065
SWIDTH 1008 0
DWIDTH 28 0
BBX 24 24 2 -4
BITMAP
E07038
E07038
E07038
E07038
E07038
E07038
E07038
E07038
E07038
E07038
E07038
E07038
E07038
E07038
E07038
E07038
E07038
E07038
FFFFFF
FFFFFF
000007
000007
000007
000007
ENDCHAR
STARTCHAR 042A
ENCODING 1066
SWIDTH 684 0
DWIDTH 19 0
BBX 18 20 0 0
BITMAP
FF8000
FF8000
038000
038000
038000
038000
038000
038000
038000
03FE00
03FF00
038780
0383C0
0381C0
0381C0
0381C0
0383C0
038780
03FF00
03FE00
ENDCHAR
STARTCHAR 042B
ENCODING 1067
SWIDTH 828 0
DWIDTH 23 0
BBX 18 20 2 0
BITMAP
E001C0
E001C0
E001C0
E001C0
E001C0
E001C0
E001C0
E001C0
E001C0
FF81C0
FFE1C0
E0F1C0
E079C0
E039C0
E039C0
E039C0
E079C0
E0F1C0
FFE1C0
FF81C0
ENDCHAR
STARTCHAR 042C
ENCODING 1068
SWIDTH 576 0
DWIDTH 16 0
BBX 13 20 2 0
BITMAP
E000
E000
E000
E000
E000
E000
E000
E000
E000
FF80
FFE0
E0F0
E078
E038
E038
E038
E078
E0F0
FFE0
FF80
ENDCHAR
STARTCHAR 042D
ENCODING 1069
SWIDTH 684 0
DWIDTH 19 0
BBX 15 20 2 0
BITMAP
3F80
FFE0
C0F0
0038
003C
001C
001E
000E
000E
1FFE
1FFE
000E
000E
000E
001C
001C
8038
E0F8
7FE0
1F80
ENDCHAR
STARTCHAR 042E
ENCODING 1070
SWIDTH 972 0
DWIDTH 27 0
BBX 23 20 2 0
BITMAP
E00FC0
E03FE0
E0F078
E0E038
E1C01C
E1C01C
E3800E
E3800E
E3800E
FF800E
FF800E
E3800E
E3800E
E3800E
E1C01C
E1C01C
E0E038
E0F078
E07FE0
E01FC0
ENDCHAR
STARTCHAR 042F
ENCODING 1071
SWIDTH 612 0
DWIDTH 17 0
BBX 14 20 0 0
BITMAP
07FC
0FFC
1E1C
381C
381C
381C
381C
3C1C
1E1C
0FFC
01FC
039C
071C
0F1C
0E1C
1C1C
381C
381C
701C
F01C
ENDCHAR
STARTCHAR 0430
ENCODING 1072
SWIDTH 540 0
DWIDTH 15 0
BBX 13 15 1 0
BITMAP
1F80
7FC0
41E0
00E0
00E0
00E0
0FE0
3FE0
78E0
E0E0
E0E0
E0E0
F1E0
7F78
3C78
ENDCHAR
STARTCHAR 0431
ENCODING 1073
SWIDTH 612 0
DWIDTH 17 0
BBX 14 23 1 0
BITMAP
0010
07F0
1FE0
3C00
7800
7000
7000
E000
E3E0
EFF0
FC78
F038
E01C
E01C
E01C
E01C
E01C
E01C
7038
7038
3870
1FE0
0FC0
ENDCHAR
STARTCHAR 0432
ENCODING 1074
SWIDTH 540 0
DWIDTH 15 0
BBX 11 15 2 0
BITMAP
FF00
FF80
E3C0
E1C0
E1C0
E380
FF00
FF80
E3C0
E0E0
E0E0
E0E0
E1E0
FFC0
FF80
ENDCHAR
STARTCHAR 0433
ENCODING 1075
SWIDTH 504 0
DWIDTH 14 0
BBX 11 15 2 0
BITMAP
FFE0
FFE0
E000
E000
E000
E000
E000
E000
E000
E000
E000
E000
E000
E000
E000
ENDCHAR
STARTCHAR 0434
ENCODING 1076
SWIDTH 684 0
DWIDTH 19 0
BBX 17 18 1 -3
BITMAP
0FFC00
0FFC00
0E1C00
0E1C00
0E1C00
0E1C00
0E1C00
1C1C00
1C1C00
1C1C00
381C00
381C00
701C00
FFFF80
FFFF80
E00380
E00380
E00380
ENDCHAR
STARTCHAR 0435
ENCODING 1077
SWIDTH 576 0
DWIDTH 16 0
BBX 13 15 1 0
BITMAP
0FC0
3FE0
7870
7030
E038
E038
FFF8
FFF8
E000
E000
E000
7000
7808
3FF8
0FE0
ENDCHAR
STARTCHAR 0436
ENCODING 1078
SWIDTH 720 0
DWIDTH 20 0
BBX 19 15 0 0
BITMAP
60E0C0
70E1C0
30E180
18E300
18E300
0CE600
0FFE00
07FC00
0EEE00
1CE700
3CE780
38E380
70E1C0
70E1C0
E0E0E0
ENDCHAR
STARTCHAR 0437
ENCODING 1079
SWIDTH 468 0
DWIDTH 13 0
BBX 10 15 1 0
BITMAP
7F00
FF80
83C0
01C0
01C0
0380
1F00
1F00
0380
01C0
01C0
01C0
8380
FF80
7E00
ENDCHAR
STARTCHAR 0438
ENCODING 1080
SWIDTH 648 0
DWIDTH 18 0
BBX 13 15 2 0
BITMAP
E038
E078
E0F8
E0F8
E1B8
E1B8
E338
E738
E638
EC38
EC38
F838
F838
F038
E038
ENDCHAR
STARTCHAR 0439
ENCODING 1081
SWIDTH 648 0
DWIDTH 18 0
BBX 13 22 2 0
BITMAP
3060
3060
18C0
0F80
0000
0000
0000
E038
E078
E0F8
E0F8
E1B8
E1B8
E338
E738
E638
EC38
EC38
F838
F838
F038
E038
ENDCHAR
STARTCHAR 043A
ENCODING 1082
SWIDTH 576 0
DWIDTH 16 0
BBX 13 15 2 0
BITMAP
E030
E070
E0E0
E1C0
E380
E700
FC00
FF80
E380
E1C0
E1C0
E0E0
E070
E070
E038
ENDCHAR
STARTCHAR 043B
ENCODING 1083
SWIDTH 576 0
DWIDTH 16 0
BBX 13 15 1 0
BITMAP
1FF8
1FF8
1C38
1C38
1C38
1C38
1C38
1C38
1C38
1838
3838
3838
7038
F038
C038
ENDCHAR
STARTCHAR 043C
ENCODING 1084
SWIDTH 720 0
DWIDTH 20 0
BBX 16 15 2 0
BITMAP
E00F
F00F
F01F
F01F
F83F
F837
DC37
DC67
CE67
CEE7
C7C7
C7C7
C387
C387
C007
ENDCHAR
STARTCHAR 043D
ENCODING 1085
SWIDTH 648 0
DWIDTH 18 0
BBX 13 15 2 0
BITMAP
E038
E038
E038
E038
E038
E038
FFF8
FFF8
E038
E038
E038
E038
E038
E038
E038
ENDCHAR
STARTCHAR 043E
ENCODING 1086
SWIDTH 612 0
DWIDTH 17 0
BBX 14 15 1 0
BITMAP
0FC0
3FF0
7870
7038
E01C
E01C
E01C
E01C
E01C
E01C
E01C
7038
7878
3FF0
0FC0
ENDCHAR
STARTCHAR 043F
ENCODING 1087
SWIDTH 648 0
DWIDTH 18 0
BBX 13 15 2 0
BITMAP
FFF8
FFF8
E038
E038
E038
E038
E038
E038
E038
E038
E038
E038
E038
E038
E038
ENDCHAR
STARTCHAR 0440
ENCODING 1088
SWIDTH 648 0
DWIDTH 18 0
BBX 14 20 2 -5
BITMAP
E3E0
EFF0
F878
F038
E01C
E01C
E01C
E01C
E01C
E01C
E018
E038
F870
FFF0
E7C0
E000
E000
E000
E000
E000
ENDCHAR
STARTCHAR 0441
ENCODING 1089
SWIDTH 504 0
DWIDTH 14 0
BBX 11 15 1 0
BITMAP
0FC0
3FE0
7820
7000
E000
E000
E000
E000
E000
E000
E000
7000
7820
3FE0
0FC0
ENDCHAR
STARTCHAR 0442
ENCODING 1090
SWIDTH 504 0
DWIDTH 14 0
BBX 13 15 0 0
BITMAP
FFF8
FFF8
0700
0700
0700
0700
0700
0700
0700
0700
0700
0700
0700
0700
0700
ENDCHAR
STARTCHAR 0443
ENCODING 1091
SWIDTH 540 0
DWIDTH 15 0
BBX 15 20 0 -5
BITMAP
C006
600C
600C
3018
3018
1838
1830
1C70
0C60
0C60
06C0
06C0
0380
0380
0300
0300
0600
0E00
7C00
7800
ENDCHAR
STARTCHAR 0444
ENCODING 1092
SWIDTH 792 0
DWIDTH 22 0
BBX 21 27 1 -5
BITMAP
007000
007000
007000
007000
007000
007000
007000
0F7780
3FFFE0
7870F0
707070
F07078
E07038
E07038
E07038
E07038
E07038
E07078
707070
7870F0
3FFFE0
0F7780
007000
007000
007000
007000
007000
ENDCHAR
STARTCHAR 0445
ENCODING 1093
SWIDTH 612 0
DWIDTH 17 0
BBX 14 15 1 0
BITMAP
E00C
7018
3830
3870
1C60
0EC0
07C0
0780
0780
0DC0
1CE0
3870
3070
6038
C01C
ENDCHAR
STARTCHAR 0446
ENCODING 1094
SWIDTH 648 0
DWIDTH 18 0
BBX 15 18 2 -3
BITMAP
E070
E070
E070
E070
E070
E070
E070
E070
E070
E070
E070
E070
E070
FFFE
FFFE
000E
000E
000E
ENDCHAR
STARTCHAR 0447
ENCODING 1095
SWIDTH 540 0
DWIDTH 15 0
BBX 11 15 1 0
BITMAP
E0E0
E0E0
E0E0
E0E0
E0E0
E0E0
E0E0
71E0
7FE0
3EE0
00E0
00E0
00E0
00E0
00E0
ENDCHAR
STARTCHAR 0448
ENCODING 1096
SWIDTH 864 0
DWIDTH 24 0
BBX 19 15 2 0
BITMAP
E0E0E0
E0E0E0
E0E0E0
E0E0E0
E0E0E0
E0E0E0
E0E0E0
E0E0E0
E0E0E0
E0E0E0
E0E0E0
E0E0E0
E0E0E0
FFFFE0
FFFFE0
ENDCHAR
STARTCHAR 0449
ENCODING 1097
SWIDTH 864 0
DWIDTH 24 0
BBX 22 18 2 -3
BITMAP
E0E0E0
E0E0E0
E0E0E0
E0E0E0
E0E0E0
E0E0E0
E0E0E0
E0E0E0
E0E0E0
E0E0E0
E0E0E0
E0E0E0
E0E0E0
FFFFFC
FFFFFC
00001C
00001C
00001C
ENDCHAR
STARTCHAR 044A
ENCODING 1098
SWIDTH 576 0
DWIDTH 16 0
BBX 15 15 0 0
BITMAP
FE00
FE00
0E00
0E00
0E00
0E00
0FF0
0FFC
0E1E
0E0E
0E0E
0E0E
0E1E
0FFC
0FF0
ENDCHAR
STARTCHAR 044B
ENCODING 1099
SWIDTH 720 0
DWIDTH 20 0
BBX 15 15 2 0
BITMAP
E00E
E00E
E00E
E00E
E00E
E00E
FE0E
FF8E
E3CE
E1CE
E1CE
E1CE
E3CE
FF8E
FE0E
ENDCHAR
STARTCHAR 044C
ENCODING 1100
SWIDTH 504 0
DWIDTH 14 0
BBX 11 15 2 0
BITMAP
E000
E000
E000
E000
E000
E000
FF00
FFC0
E1E0
E0E0
E0E0
E0E0
E1E0
FFC0
FF00
ENDCHAR
STARTCHAR 044D
ENCODING 1101
SWIDTH 504 0
DWIDTH 14 0
BBX 11 15 1 0
BITMAP
7E00
FF80
83C0
01C0
00E0
00E0
1FE0
1FE0
00E0
00E0
01E0
01C0
83C0
FF80
7E00
ENDCHAR
STARTCHAR 044E
ENCODING 1102
SWIDTH 828 0
DWIDTH 23 0
BBX 19 15 2 0
BITMAP
E03E00
E0FF80
E1E3C0
E1C1C0
E380E0
E380E0
FF80E0
FF80E0
E380E0
E380E0
E380E0
E1C1C0
E1E3C0
E0FF80
E03E00
ENDCHAR
STARTCHAR 044F
ENCODING 1103
SWIDTH 540 0
DWIDTH 15 0
BBX 11 15 1 0
BITMAP
1FE0
3FE0
78E0
70E0
70E0
78E0
3FE0
0FE0
1CE0
1CE0
38E0
38E0
70E0
70E0
E0E0
ENDCHAR
STARTCHAR 0451
ENCODING 1105
SWIDTH 576 0
DWIDTH 16 0
BBX 13 20 1 0
BITMAP
0C60
0C60
0000
0000
0000
0FC0
3FE0
7870
7030
E038
E038
FFF8
FFF8
E000
E000
E000
7000
7808
3FF8
0FE0
ENDCHAR
STARTCHAR 0452
ENCODING 1106
SWIDTH 648 0
DWIDTH 18 0
BBX 15 28 1 -6
BITMAP
3800
3800
3800
3800
FFC0
FFC0
3800
3800
3800
38F8
3BFC
3F1E
3C0E
3C0E
380E
380E
380E
380E
380E
380E
380E
380E
000E
000E
000E
001E
00FC
00F8
ENDCHAR
STARTCHAR 0453
ENCODING 1107
SWIDTH 504 0
DWIDTH 14 0
BBX 11 22 2 0
BITMAP
0380
0600
0C00
1800
0000
0000
0000
FFE0
FFE0
E000
E000
E000
E000
E000
E000
E000
E000
E000
E000
E000
E000
E000
ENDCHAR
STARTCHAR 0454
ENCODING 1108
SWIDTH 504 0
DWIDTH 14 0
BBX 12 15 1 0
BITMAP
0FE0
1FF0
3810
7000
E000
E000
FF80
FF80
E000
E000
F000
7000
3C10
1FF0
0FE0
ENDCHAR
STARTCHAR 0455
ENCODING 1109
SWIDTH 504 0
DWIDTH 14 0
BBX 10 15 2 0
BITMAP
3F00
7F80
F080
E000
E000
F000
7C00
3F00
0F80
03C0
01C0
01C0
83C0
FF80
7E00
ENDCHAR
STARTCHAR 0456
ENCODING 1110
SWIDTH 288 0
DWIDTH 8 0
BBX 3 20 2 0
BITMAP
E0
E0
E0
00
00
E0
E0
E0
E0
E0
E0
E0
E0
E0
E0
E0
E0
E0
E0
E0
ENDCHAR
STARTCHAR 0457
ENCODING 1111
SWIDTH 288 0
DWIDTH 8 0
BBX 7 20 0 0
BITMAP
C6
C6
00
00
00
38
38
38
38
38
38
38
38
38
38
38
38
38
38
38
ENDCHAR
STARTCHAR 0458
ENCODING 1112
SWIDTH 324 0
DWIDTH 9 0
BBX 6 26 0 -6
BITMAP
1C
1C
1C
00
00
1C
1C
1C
1C
1C
1C
1C
1C
1C
1C
1C
1C
1C
1C
1C
1C
1C
1C
1C
F8
F0
ENDCHAR
STARTCHAR 0459
ENCODING 1113
SWIDTH 792 0
DWIDTH 22 0
BBX 20 15 1 0
BITMAP
1FF800
1FF800
1C3800
1C3800
1C3800
1C3800
1C3F80
1C3FE0
1C38F0
183870
383870
383870
7038F0
F03FE0
C03F80
ENDCHAR
STARTCHAR 045A
ENCODING 1114
SWIDTH 828 0
DWIDTH 23 0
BBX 20 15 2 0
BITMAP
E03800
E03800
E03800
E03800
E03800
E03800
FFFF80
FFFFE0
E038F0
E03870
E03870
E03870
E038F0
E03FE0
E03F80
ENDCHAR
STARTCHAR 045B
ENCODING 1115
SWIDTH 648 0
DWIDTH 18 0
BBX 14 22 1 0
BITMAP
3800
3800
3800
3800
FFC0
FFC0
3800
3800
3800
38F0
3BF8
3E3C
3C1C
381C
381C
381C
381C
381C
381C
381C
381C
381C
ENDCHAR
STARTCHAR 045C
ENCODING 1116
SWIDTH 576 0
DWIDTH 16 0
BBX 13 22 2 0
BITMAP
01C0
0300
0600
0C00
0000
0000
0000
E030
E070
E0E0
E1C0
E380
E700
FC00
FF80
E380
E1C0
E1C0
E0E0
E070
E070
E038
ENDCHAR
STARTCHAR 045E
ENCODING 1118
SWIDTH 540 0
DWIDTH 15 0
BBX 15 27 0 -5
BITMAP
1830
1830
0C60
07C0
0000
0000
0000
C006
600C
600C
3018
3018
1838
1830
1C70
0C60
0C60
06C0
06C0
0380
0380
0300
0300
0600
0E00
7C00
7800
ENDCHAR
STARTCHAR 045F
ENCODING 1119
SWIDTH 648 0
DWIDTH 18 0
BBX 13 18 2 -3
BITMAP
E038
E038
E038
E038
E038
E038
E038
E038
E038
E038
E038
E038
E038
FFF8
FFF8
0700
0700
0700
ENDCHAR
STARTCHAR 0460
ENCODING 1120
SWIDTH 900 0
DWIDTH 25 0
BBX 22 20 1 0
BITMAP
380070
700038
703038
703038
707838
E0781C
E0781C
E0781C
E0781C
E0781C
E0301C
E0301C
E0301C
E0301C
E0781C
707838
705838
78CC78
3F87F0
0F03C0
ENDCHAR
STARTCHAR 0461
ENCODING 1121
SWIDTH 684 0
DWIDTH 19 0
BBX 16 15 2 0
BITMAP
738E
E387
E387
E387
E387
E387
E387
E387
E386
63CE
76CE
76CC
7C7C
3C78
3838
ENDCHAR
STARTCHAR 0462
ENCODING 1122
SWIDTH 684 0
DWIDTH 19 0
BBX 18 20 0 0
BITMAP
070000
070000
070000
FFF800
FFF800
070000
070000
070000
070000
07FC00
07FF00
070780
0703C0
0701C0
0701C0
0701C0
0703C0
070780
07FF00
07FC00
ENDCHAR
STARTCHAR 0463
ENCODING 1123
SWIDTH 576 0
DWIDTH 16 0
BBX 14 22 1 0
BITMAP
0E00
0E00
0E00
0E00
0E00
0E00
0E00
FFE0
FFE0
0E00
0E00
0E00
0E00
0FE0
0FF8
0E3C
0E1C
0E1C
0E1C
0E3C
0FF8
0FE0
ENDCHAR
STARTCHAR 0464
ENCODING 1124
SWIDTH 756 0
DWIDTH 21 0
BBX 18 20 2 0
BITMAP
C07F00
C1FFC0
C3C0C0
C78000
C70000
C70000
CE0000
CE0000
CE0000
FFFE00
FFFE00
CE0000
CE0000
CE0000
C70000
C70000
C78000
C3C0C0
C1FFC0
C07F00
ENDCHAR
STARTCHAR 0465
ENCODING 1125
SWIDTH 720 0
DWIDTH 20 0
BBX 17 15 2 0
BITMAP
E07F00
E1FF80
E3C180
E38000
E70000
E70000
FFFC00
FFFC00
E70000
E70000
E38000
E38000
E1C080
E0FF80
E07F00
ENDCHAR
STARTCHAR 0466
ENCODING 1126
SWIDTH 648 0
DWIDTH 18 0
BBX 16 20 0 0
BITMAP
0180
0180
03C0
03C0
03C0
0660
0660
0C30
0C30
1818
1818
300C
3FFC
3FFC
6186
6186
6186
C187
C187
C187
ENDCHAR
STARTCHAR 0467
ENCODING 1127
SWIDTH 612 0
DWIDTH 17 0
BBX 15 15 1 0
BITMAP
0380
0380
07C0
07C0
0EE0
0EE0
1C70
1C70
3838
7FF8
7FFC
739C
E38E
E38E
E38E
ENDCHAR
STARTCHAR 0468
ENCODING 1128
SWIDTH 900 0
DWIDTH 25 0
BBX 23 20 1 0
BITMAP
C00600
C00600
C00F00
C00F00
C01F00
C01980
C01980
C031C0
C030C0
C060E0
C06060
C0C070
FFFFF8
FFFFF8
C1861C
C3060C
C3060C
C6060E
C6060E
C6060E
ENDCHAR
STARTCHAR 0469
ENCODING 1129
SWIDTH 792 0
DWIDTH 22 0
BBX 19 15 2 0
BITMAP
E03800
E03800
E07C00
E07C00
E0EE00
E0CE00
E1C700
E38300
FFFF80
FFFF80
E739C0
E638C0
EE38E0
EE38E0
EE38E0
ENDCHAR
STARTCHAR 046A
ENCODING 1130
SWIDTH 828 0
DWIDTH 23 0
BBX 21 20 1 0
BITMAP
7FFFF0
7FFFF0
600030
300060
1800C0
0C0180
060300
030600
038E00
01FC00
07FF00
0E7380
1C7180
1C71C0
3870C0
3870E0
3870E0
707070
707070
E07038
ENDCHAR
STARTCHAR 046B
ENCODING 1131
SWIDTH 720 0
DWIDTH 20 0
BBX 19 15 0 0
BITMAP
7FFFC0
7FFFC0
3001C0
180380
0C0600
060C00
031800
01F000
07FC00
0EEE00
1CE700
38E380
38E380
70E1C0
E0E0E0
ENDCHAR
STARTCHAR 046C
ENCODING 1132
SWIDTH 1044 0
DWIDTH 29 0
BBX 25 20 2 0
BITMAP
C1FFFF00
C1FFFF00
C1C00700
C0E00600
C0600C00
C0301800
C0183800
C01C3000
C00C6000
FFFFF000
FFFFF800
C03BB800
C0339C00
C0739C00
C0E38C00
C0E38E00
C0C38600
C1C38700
C1C38700
C3838380
ENDCHAR
STARTCHAR 046D
ENCODING 1133
SWIDTH 936 0
DWIDTH 26 0
BBX 23 15 2 0
BITMAP
E7FFFC
E7FFFC
E30018
E18030
E0C060
E060C0
E031C0
FFFF80
FFFFE0
E1CE70
E1CE70
E38E38
E38E38
E70E1C
EE0E0E
ENDCHAR
STARTCHAR 046E
ENCODING 1134
SWIDTH 612 0
DWIDTH 17 0
BBX 15 29 0 -5
BITMAP
0C38
0670
03E0
01C0
0FE0
3FF8
3038
001C
001C
001C
001C
0038
00F0
1FC0
1FF0
007C
001C
000E
000E
000E
000E
001C
3FF8
FFE0
C000
C000
E000
7F80
3F80
ENDCHAR
STARTCHAR 046F
ENCODING 1135
SWIDTH 540 0
DWIDTH 15 0
BBX 12 24 1 -5
BITMAP
30E0
19C0
0F80
0700
7FC0
7FE0
00F0
0070
0070
00E0
3FC0
3FC0
01E0
0070
0070
0070
00F0
3FE0
7FC0
E000
E000
F000
7F80
3F80
ENDCHAR
STARTCHAR 0470
ENCODING 1136
SWIDTH 720 0
DWIDTH 20 0
BBX 20 20 0 0
BITMAP
C0E030
C0E070
C0E0E0
60E0C0
60E0C0
60E0C0
60E1C0
60E180
30E180
30E180
30E180
30E300
38E300
1FFE00
07FC00
00E000
00E000
00E000
00E000
00E000
ENDCHAR
STARTCHAR 0471
ENCODING 1137
SWIDTH 720 0
DWIDTH 20 0
BBX 20 23 0 -5
BITMAP
00E000
00E000
00E000
C0E030
C0E070
C0E0E0
60E0C0
60E0C0
60E0C0
60E1C0
60E180
30E180
30E180
30E180
30E300
38E300
1FFF00
0FFC00
00E000
00E000
00E000
00E000
00E000
ENDCHAR
STARTCHAR 0472
ENCODING 1138
SWIDTH 792 0
DWIDTH 22 0
BBX 19 20 1 0
BITMAP
03F800
0FFE00
1E0F00
380380
7001C0
7001C0
E001E0
E000E0
EF00E0
FFE1E0
F0FFE0
E01EE0
E000E0
E000E0
7001C0
7001C0
380380
1E0F00
0FFE00
03F800
ENDCHAR
STARTCHAR 0473
ENCODING 1139
SWIDTH 612 0
DWIDTH 17 0
BBX 14 15 1 0
BITMAP
0FC0
3FF0
7870
7038
E03C
E01C
FE1C
FFFC
E1FC
E01C
E01C
7038
7878
3FF0
0FC0
ENDCHAR
STARTCHAR 0474
ENCODING 1140
SWIDTH 720 0
DWIDTH 20 0
BBX 20 20 0 0
BITMAP
E00030
700070
7000E0
7000C0
380180
380180
1C0300
1C0300
1C0600
0E0600
0E0C00
070C00
071C00
071800
03B800
03B000
03F000
01E000
01E000
00C000
ENDCHAR
STARTCHAR 0475
ENCODING 1141
SWIDTH 576 0
DWIDTH 16 0
BBX 15 15 1 0
BITMAP
E006
700E
7018
7018
3838
3830
1830
1C60
1C60
0EE0
0EC0
0EC0
0780
0780
0300
ENDCHAR
STARTCHAR 0476
ENCODING 1142
SWIDTH 720 0
DWIDTH 20 0
BBX 20 26 0 0
BITMAP
048000
024000
024000
012000
000000
000000
E00030
700070
7000E0
7000C0
380180
380180
1C0300
1C0300
1C0600
0E0600
0E0C00
070C00
071C00
071800
03B800
03B000
03F000
01E000
01E000
00C000
ENDCHAR
STARTCHAR 0477
ENCODING 1143
SWIDTH 576 0
DWIDTH 16 0
BBX 15 22 1 0
BITMAP
2400
1200
1200
0900
0000
0000
0000
E006
700E
7018
7018
3838
3830
1830
1C60
1C60
0EE0
0EC0
0EC0
0780
0780
0300
ENDCHAR
STARTCHAR 0478
ENCODING 1144
SWIDTH 1224 0
DWIDTH 34 0
BBX 33 25 1 -5
BITMAP
03F0000000
0FFC000000
1E1E000000
3807000000
7003800000
70039C0380
F0038E0780
E001CE0E00
E001CE0E00
E001C71C00
E001C71C00
E001C73800
E001C3B800
E003C3B800
700383F000
700381F000
380701E000
1E1E01E000
0FFC00E000
03F001C000
000001C000
0000038000
0000038000
0000038000
0000070000
ENDCHAR
STARTCHAR 0479
ENCODING 1145
SWIDTH 1080 0
DWIDTH 30 0
BBX 29 20 1 -5
BITMAP
0FC1C038
3FF0E078
7870E0E0
7038E0E0
E01C71C0
E01C71C0
E01C7380
E01C3B80
E01C3B80
E01C3F00
E01C1F00
70381E00
78781E00
3FF00E00
0FC01C00
00001C00
00003800
00003800
00003800
00007000
ENDCHAR
STARTCHAR 047A
ENCODING 1146
SWIDTH 792 0
DWIDTH 22 0
BBX 19 24 1 -2
BITMAP
00E000
00E000
03F800
0FFE00
1CE700
38E380
7001C0
7001C0
E000E0
E000E0
E000E0
E000E0
E000E0
E000E0
E000E0
E000E0
7001C0
7001C0
38E380
1CE700
0FFE00
03F800
00E000
00E000
ENDCHAR
STARTCHAR 047B
ENCODING 1147
SWIDTH 612 0
DWIDTH 17 0
BBX 15 19 1 -2
BITMAP
0380
0380
0FE0
3FF8
7BBC
739C
E00E
E00E
E00E
E00E
E00E
E00E
E00E
739C
7BBC
3FF8
0FE0
0380
0380
ENDCHAR
STARTCHAR 047C
ENCODING 1148
SWIDTH 900 0
DWIDTH 25 0
BBX 22 29 1 0
BITMAP
0001C0
0001C0
0001C0
01FFC0
01C000
01C000
01C000
000000
000000
380070
700038
703038
703038
707838
E0781C
E0781C
E0781C
E0781C
E0781C
E0301C
E0301C
E0301C
E0301C
E0781C
707838
705838
78CC78
3F87F0
0F03C0
ENDCHAR
STARTCHAR 047D
ENCODING 1149
SWIDTH 684 0
DWIDTH 19 0
BBX 16 25 2 0
BITMAP
001C
001C
001C
1FFC
1C00
1C00
1C00
0000
0000
0000
738E
E387
E387
E387
E387
E387
E387
E387
E386
63CE
76CE
76CC
7C7C
3C78
3838
ENDCHAR
STARTCHAR 047E
ENCODING 1150
SWIDTH 900 0
DWIDTH 25 0
BBX 22 27 1 0
BITMAP
01FF00
01FF00
011100
011100
011100
000000
000000
380070
700038
703038
703038
707838
E0781C
E0781C
E0781C
E0781C
E0781C
E0301C
E0301C
E0301C
E0301C
E0781C
707838
705838
78CC78
3F87F0
0F03C0
ENDCHAR
STARTCHAR 047F
ENCODING 1151
SWIDTH 684 0
DWIDTH 19 0
BBX 16 23 2 0
BITMAP
1FF0
1FF0
1110
1110
1110
0000
0000
0000
738E
E387
E387
E387
E387
E387
E387
E387
E386
63CE
76CE
76CC
7C7C
3C78
3838
ENDCHAR
STARTCHAR 0480
ENCODING 1152
SWIDTH 684 0
DWIDTH 19 0
BBX 16 20 1 0
BITMAP
03FC
0FFF
3E03
7800
7000
F000
E000
E000
E000
E000
E000
7000
7800
3E03
1FFF
03FF
0007
0007
0007
0007
ENDCHAR
STARTCHAR 0481
ENCODING 1153
SWIDTH 504 0
DWIDTH 14 0
BBX 11 15 1 0
BITMAP
0FC0
3FE0
7820
7000
E000
E000
E000
E000
F000
7820
3FE0
0FE0
00E0
00E0
00E0
ENDCHAR
STARTCHAR 0482
ENCODING 1154
SWIDTH 648 0
DWIDTH 18 0
BBX 16 20 1 0
BITMAP
0002
0007
0006
060C
0798
01F8
00F0
007C
00CF
01C3
C380
F300
3E00
0F00
1F80
19E0
3060
6000
E000
4000
ENDCHAR
STARTCHAR 0483
ENCODING 1155
SWIDTH 612 0
DWIDTH 17 0
BBX 11 7 4 18
BITMAP
00E0
00E0
00E0
FFE0
E000
E000
E000
ENDCHAR
STARTCHAR 0484
ENCODING 1156
SWIDTH 612 0
DWIDTH 17 0
BBX 9 3 4 18
BITMAP
1F00
F180
8180
ENDCHAR
STARTCHAR 0485
ENCODING 1157
SWIDTH 612 0
DWIDTH 17 0
BBX 10 7 4 18
BITMAP
E000
E000
E000
FFC0
E000
E000
E000
ENDCHAR
STARTCHAR 0486
ENCODING 1158
SWIDTH 612 0
DWIDTH 17 0
BBX 10 7 4 18
BITMAP
01C0
01C0
01C0
FFC0
01C0
01C0
01C0
ENDCHAR
STARTCHAR 0490
ENCODING 1168
SWIDTH 504 0
DWIDTH 14 0
BBX 12 24 2 0
BITMAP
0070
0070
0070
0070
FFF0
FFF0
E000
E000
E000
E000
E000
E000
E000
E000
E000
E000
E000
E000
E000
E000
E000
E000
E000
E000
ENDCHAR
STARTCHAR 0491
ENCODING 1169
SWIDTH 504 0
DWIDTH 14 0
BBX 12 18 2 0
BITMAP
0070
0070
0070
FFF0
FFF0
E000
E000
E000
E000
E000
E000
E000
E000
E000
E000
E000
E000
E000
ENDCHAR
STARTCHAR 0492
ENCODING 1170
SWIDTH 576 0
DWIDTH 16 0
BBX 15 20 0 0
BITMAP
1FFE
1FFE
1C00
1C00
1C00
1C00
1C00
1C00
1C00
FFF0
FFF0
1C00
1C00
1C00
1C00
1C00
1C00
1C00
1C00
1C00
ENDCHAR
STARTCHAR 0493
ENCODING 1171
SWIDTH 504 0
DWIDTH 14 0
BBX 12 15 1 0
BITMAP
3FF0
3FF0
3800
3800
3800
3800
FF80
FF80
3800
3800
3800
3800
3800
3800
3800
ENDCHAR
STARTCHAR 0494
ENCODING 1172
SWIDTH 648 0
DWIDTH 18 0
BBX 15 24 2 -4
BITMAP
FFF8
FFF8
E000
E000
E000
E000
E000
E000
E000
E7E0
FFF8
F83C
E01C
E00E
E00E
E00E
E00E
E00E
E00E
E01C
001C
0078
03F0
03C0
ENDCHAR
STARTCHAR 0495
ENCODING 1173
SWIDTH 540 0
DWIDTH 15 0
BBX 12 19 2 -4
BITMAP
FFE0
FFE0
E000
E000
E000
E000
EF80
FFC0
F0E0
E0F0
E070
E070
E070
E070
E070
00E0
01E0
07C0
0700
ENDCHAR
STARTCHAR 0496
ENCODING 1174
SWIDTH 864 0
DWIDTH 24 0
BBX 23 24 0 -4
BITMAP
607030
707070
3870E0
1870C0
0C7180
0C7180
067300
067300
037600
03FE00
07FF00
0E7780
1C7380
1C71C0
3871C0
3870E0
3870E0
707070
70707E
E0703E
00000E
00000E
00000E
00000E
ENDCHAR
STARTCHAR 0497
ENCODING 1175
SWIDTH 792 0
DWIDTH 22 0
BBX 20 18 1 -3
BITMAP
60E0C0
70E1C0
30E180
18E300
1CE700
0CE600
07FC00
0FFE00
1CE700
1CE700
38E380
38E380
70E1C0
70E1F0
E0E0F0
000070
000070
000070
ENDCHAR
STARTCHAR 0498
ENCODING 1176
SWIDTH 540 0
DWIDTH 15 0
BBX 13 26 1 -6
BITMAP
3F80
FFE0
C1E0
0070
0070
0070
0070
00E0
03C0
1F00
1FE0
01F0
0078
0038
0038
0038
0070
C0F0
FFE0
3F80
0400
0F00
0380
0180
0180
0F00
ENDCHAR
STARTCHAR 0499
ENCODING 1177
SWIDTH 468 0
DWIDTH 13 0
BBX 10 21 1 -6
BITMAP
7F00
FF80
83C0
01C0
01C0
0380
1F00
1F00
0380
01C0
01C0
01C0
8380
FF80
7E00
0800
1E00
0700
0300
0300
1E00
ENDCHAR
STARTCHAR 049A
ENCODING 1178
SWIDTH 684 0
DWIDTH 19 0
BBX 16 24 2 -4
BITMAP
E01C
E03C
E030
E060
E060
E0C0
E0C0
E180
E300
FE00
FF80
E3C0
E1E0
E0E0
E070
E070
E038
E038
E01F
E01F
0007
0007
0007
0007
ENDCHAR
STARTCHAR 049B
ENCODING 1179
SWIDTH 612 0
DWIDTH 17 0
BBX 14 18 2 -3
BITMAP
E070
E0F0
E0C0
E180
E380
E700
FE00
FF80
E380
E1C0
E1C0
E0E0
E0E0
E07C
E07C
001C
001C
001C
ENDCHAR
STARTCHAR 049C
ENCODING 1180
SWIDTH 756 0
DWIDTH 21 0
BBX 18 20 2 0
BITMAP
E00380
E00780
E00E00
E60C00
E61800
E63800
E67000
E6E000
FFC000
FFF000
E67800
E63800
E61C00
E61C00
E60E00
E60F00
E00700
E00380
E00380
E001C0
ENDCHAR
STARTCHAR 049D
ENCODING 1181
SWIDTH 648 0
DWIDTH 18 0
BBX 15 15 2 0
BITMAP
E01C
E03C
E630
E630
E660
E6E0
FF80
FFE0
E6F0
E670
E638
E638
E61C
E01C
E00E
ENDCHAR
STARTCHAR 049E
ENCODING 1182
SWIDTH 648 0
DWIDTH 18 0
BBX 17 20 0 0
BITMAP
1C0700
1C0F00
FF8C00
FF9800
1C1800
1C3000
1C3000
1C6000
1CE000
1FC000
1FF000
1C7000
1C3800
1C3C00
1C1C00
1C0E00
1C0E00
1C0700
1C0700
1C0380
ENDCHAR
STARTCHAR 049F
ENCODING 1183
SWIDTH 576 0
DWIDTH 16 0
BBX 15 22 0 0
BITMAP
1C00
1C00
1C00
1C00
FFE0
FFE0
1C00
1C1C
1C3C
1C30
1C60
1CE0
1CC0
1F80
1FE0
1CE0
1C70
1C70
1C38
1C1C
1C1C
1C0E
ENDCHAR
STARTCHAR 04A0
ENCODING 1184
SWIDTH 756 0
DWIDTH 21 0
BBX 20 20 0 0
BITMAP
FF00E0
FF01E0
070180
070300
070300
070600
070600
070C00
071800
07F000
07FC00
071E00
070F00
070780
070380
0701C0
0701C0
0700E0
0700E0
070070
ENDCHAR
STARTCHAR 04A1
ENCODING 1185
SWIDTH 648 0
DWIDTH 18 0
BBX 17 15 0 0
BITMAP
FE0700
FE0F00
0E0C00
0E1800
0E3800
0E7000
0FE000
0FF800
0E3800
0E1C00
0E1C00
0E0E00
0E0700
0E0700
0E0380
ENDCHAR
STARTCHAR 04A2
ENCODING 1186
SWIDTH 792 0
DWIDTH 22 0
BBX 19 24 2 -4
BITMAP
E00700
E00700
E00700
E00700
E00700
E00700
E00700
E00700
E00700
FFFF00
FFFF00
E00700
E00700
E00700
E00700
E00700
E00700
E00700
E007E0
E007E0
0000E0
0000E0
0000E0
0000E0
ENDCHAR
STARTCHAR 04A3
ENCODING 1187
SWIDTH 648 0
DWIDTH 18 0
BBX 15 18 2 -3
BITMAP
E070
E070
E070
E070
E070
E070
FFF0
FFF0
E070
E070
E070
E070
E070
E07E
E07E
000E
000E
000E
ENDCHAR
STARTCHAR 04A4
ENCODING 1188
SWIDTH 864 0
DWIDTH 24 0
BBX 22 20 2 0
BITMAP
E003FC
E003FC
E00380
E00380
E00380
E00380
E00380
E00380
E00380
FFFF80
FFFF80
E00380
E00380
E00380
E00380
E00380
E00380
E00380
E00380
E00380
ENDCHAR
STARTCHAR 04A5
ENCODING 1189
SWIDTH 720 0
DWIDTH 20 0
BBX 18 15 2 0
BITMAP
E03FC0
E03FC0
E03800
E03800
E03800
E03800
FFF800
FFF800
E03800
E03800
E03800
E03800
E03800
E03800
E03800
ENDCHAR
STARTCHAR 04A6
ENCODING 1190
SWIDTH 1044 0
DWIDTH 29 0
BBX 26 24 2 -4
BITMAP
FFFE0000
FFFE0000
E00E0000
E00E0000
E00E0000
E00E0000
E00E0000
E00E0000
E00E0000
E00E7C00
E00FFF00
E00F8780
E00E0380
E00E01C0
E00E01C0
E00E01C0
E00E01C0
E00E01C0
E00E01C0
E00E0380
00000380
00000F00
00007E00
00007800
ENDCHAR
STARTCHAR 04A7
ENCODING 1191
SWIDTH 900 0
DWIDTH 25 0
BBX 22 19 2 -4
BITMAP
FFF800
FFF800
E03800
E03800
E03800
E03800
E03BE0
E03FF0
E03C38
E0383C
E0381C
E0381C
E0381C
E0381C
E0381C
000038
000078
0001F0
0001C0
ENDCHAR
STARTCHAR 04A8
ENCODING 1192
SWIDTH 792 0
DWIDTH 22 0
BBX 20 23 1 -3
BITMAP
03F000
0FF800
1E0800
380000
701F00
703F80
E071C0
E060E0
E0C0E0
E0C0E0
E0C0E0
E0C0E0
E0C0E0
E0E1C0
7061C0
707380
383380
1E3F00
0FFC00
03FE00
000780
0001F0
000070
ENDCHAR
STARTCHAR 04A9
ENCODING 1193
SWIDTH 612 0
DWIDTH 17 0
BBX 16 19 1 -4
BITMAP
07E0
1FE0
3C00
70F8
F1FC
E3CE
E38E
E38E
E38E
E38E
E39C
71DC
39F8
3FF0
0FF0
0038
001C
000F
0003
ENDCHAR
STARTCHAR 04AA
ENCODING 1194
SWIDTH 684 0
DWIDTH 19 0
BBX 16 26 1 -6
BITMAP
03FC
0FFF
1E03
3800
7000
7000
E000
E000
E000
E000
E000
E000
E000
F000
7000
7800
3801
1E07
0FFE
03F8
0040
00F0
0038
0018
0018
00F0
ENDCHAR
STARTCHAR 04AB
ENCODING 1195
SWIDTH 504 0
DWIDTH 14 0
BBX 11 21 1 -6
BITMAP
0FC0
3FE0
7820
7000
E000
E000
E000
E000
E000
E000
E000
7000
7820
3FE0
0FC0
0100
03C0
00E0
0060
0060
03C0
ENDCHAR
STARTCHAR 04AC
ENCODING 1196
SWIDTH 648 0
DWIDTH 18 0
BBX 17 24 0 -4
BITMAP
FFFF80
FFFF80
01C000
01C000
01C000
01C000
01C000
01C000
01C000
01C000
01C000
01C000
01C000
01C000
01C000
01C000
01C000
01C000
01F800
01F800
003800
003800
003800
003800
ENDCHAR
STARTCHAR 04AD
ENCODING 1197
SWIDTH 504 0
DWIDTH 14 0
BBX 13 18 0 -3
BITMAP
FFF8
FFF8
0700
0700
0700
0700
0700
0700
0700
0700
0700
0700
0700
07E0
07E0
00E0
00E0
00E0
ENDCHAR
STARTCHAR 04AE
ENCODING 1198
SWIDTH 612 0
DWIDTH 17 0
BBX 17 20 0 0
BITMAP
E00380
700300
380600
380E00
1C0C00
1E1800
0E1800
073000
077000
03E000
01C000
01C000
01C000
01C000
01C000
01C000
01C000
01C000
01C000
01C000
ENDCHAR
STARTCHAR 04AF
ENCODING 1199
SWIDTH 504 0
DWIDTH 14 0
BBX 13 15 0 0
BITMAP
E018
7030
7860
3860
1CC0
1DC0
0F80
0F00
0700
0700
0700
0700
0700
0700
0700
ENDCHAR
STARTCHAR 04B0
ENCODING 1200
SWIDTH 612 0
DWIDTH 17 0
BBX 17 20 0 0
BITMAP
E00180
700300
380600
380600
1C0C00
0E1800
0E1800
073000
077000
03E000
01C000
01C000
01C000
3FFE00
3FFE00
01C000
01C000
01C000
01C000
01C000
ENDCHAR
STARTCHAR 04B1
ENCODING 1201
SWIDTH 504 0
DWIDTH 14 0
BBX 13 15 0 0
BITMAP
E018
7030
3860
3860
1CC0
1DC0
0F80
0700
0700
7FF0
7FF0
0700
0700
0700
0700
ENDCHAR
STARTCHAR 04B2
ENCODING 1202
SWIDTH 684 0
DWIDTH 19 0
BBX 18 24 0 -4
BITMAP
E00380
700300
380600
380C00
1C1C00
0E1800
073000
076000
03E000
01C000
01C000
03E000
077000
063800
0C3800
1C1C00
180E00
300FC0
6007C0
E003C0
0001C0
0001C0
0001C0
0001C0
ENDCHAR
STARTCHAR 04B3
ENCODING 1203
SWIDTH 648 0
DWIDTH 18 0
BBX 16 19 1 -4
BITMAP
E006
700C
3818
1C30
1C60
0EC0
0780
0380
03C0
07C0
0CE0
1870
3038
603F
C01F
0007
0007
0007
0007
ENDCHAR
STARTCHAR 04B4
ENCODING 1204
SWIDTH 900 0
DWIDTH 25 0
BBX 24 24 0 -4
BITMAP
FFFE38
FFFE38
038038
038038
038038
038038
038038
038038
038038
038038
038038
038038
038038
038038
038038
038038
038038
038038
03FFFF
03FFFF
000007
000007
000007
000007
ENDCHAR
STARTCHAR 04B5
ENCODING 1205
SWIDTH 720 0
DWIDTH 20 0
BBX 19 18 0 -3
BITMAP
FFE700
FFE700
0E0700
0E0700
0E0700
0E0700
0E0700
0E0700
0E0700
0E0700
0E0700
0E0700
0E0700
0FFFE0
0FFFE0
0000E0
0000E0
0000E0
ENDCHAR
STARTCHAR 04B6
ENCODING 1206
SWIDTH 684 0
DWIDTH 19 0
BBX 17 24 1 -4
BITMAP
E01C00
E01C00
E01C00
E01C00
E01C00
E01C00
E01C00
E01C00
E01C00
E01C00
703C00
7FFC00
1FDC00
001C00
001C00
001C00
001C00
001C00
001F80
001F80
000380
000380
000380
000380
ENDCHAR
STARTCHAR 04B7
ENCODING 1207
SWIDTH 576 0
DWIDTH 16 0
BBX 14 18 1 -3
BITMAP
E0E0
E0E0
E0E0
E0E0
E0E0
E0E0
E0E0
71E0
7FE0
3EE0
00E0
00E0
00E0
00FC
00FC
001C
001C
001C
ENDCHAR
STARTCHAR 04B8
ENCODING 1208
SWIDTH 648 0
DWIDTH 18 0
BBX 14 20 1 0
BITMAP
E01C
E01C
E01C
E01C
E01C
E01C
E31C
E31C
E31C
E31C
733C
7FFC
1FDC
031C
031C
031C
031C
031C
001C
001C
ENDCHAR
STARTCHAR 04B9
ENCODING 1209
SWIDTH 576 0
DWIDTH 16 0
BBX 12 15 1 0
BITMAP
E070
E070
E070
E070
E670
E670
E670
76F0
7FF0
1F70
0670
0670
0670
0070
0070
ENDCHAR
STARTCHAR 04BA
ENCODING 1210
SWIDTH 648 0
DWIDTH 18 0
BBX 15 20 2 0
BITMAP
E000
E000
E000
E000
E000
E000
E000
E3F0
EFF8
F83C
F01E
E00E
E00E
E00E
E00E
E00E
E00E
E00E
E00E
E00E
ENDCHAR
STARTCHAR 04BB
ENCODING 1211
SWIDTH 540 0
DWIDTH 15 0
BBX 12 15 2 0
BITMAP
E000
E000
E000
E000
E000
EF80
FFE0
F0E0
E070
E070
E070
E070
E070
E070
E070
ENDCHAR
STARTCHAR 04BC
ENCODING 1212
SWIDTH 828 0
DWIDTH 23 0
BBX 21 20 0 0
BITMAP
001F80
007FC0
00F0E0
01C070
E38070
E38038
E78038
E70038
7FFFF8
3FFFF8
070000
070000
070000
078000
038000
03C000
01E008
00F038
007FF0
001FC0
ENDCHAR
STARTCHAR 04BD
ENCODING 1213
SWIDTH 720 0
DWIDTH 20 0
BBX 18 15 0 0
BITMAP
007E00
00FF00
E1C380
E38380
E701C0
E701C0
7FFFC0
3FFFC0
070000
070000
038000
038000
01E0C0
00FFC0
003F80
ENDCHAR
STARTCHAR 04BE
ENCODING 1214
SWIDTH 828 0
DWIDTH 23 0
BBX 21 25 0 -5
BITMAP
001F80
007FC0
00F0E0
01C070
E38070
E38038
E78038
E70038
7FFFF8
3FFFF8
070000
070000
070000
078000
038000
03C000
01E008
00F038
007FF0
001DC0
000600
000C00
000C00
000C00
000780
ENDCHAR
STARTCHAR 04BF
ENCODING 1215
SWIDTH 720 0
DWIDTH 20 0
BBX 18 20 0 -5
BITMAP
007E00
00FF00
E1C380
E38380
E701C0
E701C0
7FFFC0
3FFFC0
070000
070000
038000
038000
01E0C0
00FFC0
003F80
001800
003000
003000
003000
001E00
ENDCHAR
STARTCHAR 04C0
ENCODING 1216
SWIDTH 288 0
DWIDTH 8 0
BBX 3 20 2 0
BITMAP
E0
E0
E0
E0
E0
E0
E0
E0
E0
E0
E0
E0
E0
E0
E0
E0
E0
E0
E0
E0
ENDCHAR
STARTCHAR 04C1
ENCODING 1217
SWIDTH 828 0
DWIDTH 23 0
BBX 21 26 1 0
BITMAP
030600
030600
018C00
00F800
000000
000000
607030
707070
3870E0
1870C0
0C7180
0C7180
067300
067300
037600
03FE00
07FF00
0E7380
1C71C0
1C71C0
3870C0
3870E0
3870E0
707070
707070
E07038
ENDCHAR
STARTCHAR 04C2
ENCODING 1218
SWIDTH 720 0
DWIDTH 20 0
BBX 19 22 0 0
BITMAP
030600
030600
018C00
00F800
000000
000000
000000
60E0C0
70E1C0
30E180
18E300
18E300
0CE600
0FFE00
07FC00
0EEE00
1CE700
3CE780
38E380
70E1C0
70E1C0
E0E0E0
ENDCHAR
STARTCHAR 04C3
ENCODING 1219
SWIDTH 648 0
DWIDTH 18 0
BBX 14 24 2 -4
BITMAP
E01C
E03C
E030
E060
E060
E0C0
E0C0
E180
E380
FE00
FFE0
E0F0
E078
E038
E01C
E01C
E01C
E01C
E01C
E038
0038
0070
03E0
03C0
ENDCHAR
STARTCHAR 04C4
ENCODING 1220
SWIDTH 540 0
DWIDTH 15 0
BBX 11 19 2 -4
BITMAP
E060
E0E0
E180
E180
E300
E700
FE00
FF80
E3C0
E1C0
E0E0
E0E0
E0E0
E0E0
E0E0
01C0
01C0
0780
0700
ENDCHAR
STARTCHAR 04C7
ENCODING 1223
SWIDTH 756 0
DWIDTH 21 0
BBX 16 26 2 -6
BITMAP
E007
E007
E007
E007
E007
E007
E007
E007
E007
FFFF
FFFF
E007
E007
E007
E007
E007
E007
E007
E007
E007
0007
0007
0007
000F
007E
007C
ENDCHAR
STARTCHAR 04C8
ENCODING 1224
SWIDTH 648 0
DWIDTH 18 0
BBX 13 21 2 -6
BITMAP
E038
E038
E038
E038
E038
E038
FFF8
FFF8
E038
E038
E038
E038
E038
E038
E038
0038
0038
0038
0078
03F0
03E0
ENDCHAR
STARTCHAR 04CB
ENCODING 1227
SWIDTH 648 0
DWIDTH 18 0
BBX 14 24 1 -4
BITMAP
E01C
E01C
E01C
E01C
E01C
E01C
E01C
E01C
E01C
E01C
703C
7FFC
1FDC
001C
001C
001C
001C
001C
00FC
00FC
00E0
00E0
00E0
00E0
ENDCHAR
STARTCHAR 04CC
ENCODING 1228
SWIDTH 540 0
DWIDTH 15 0
BBX 11 18 1 -3
BITMAP
E0E0
E0E0
E0E0
E0E0
E0E0
E0E0
E0E0
71E0
7FE0
3EE0
00E0
00E0
00E0
07E0
07E0
0700
0700
0700
ENDCHAR
STARTCHAR 04D0
ENCODING 1232
SWIDTH 684 0
DWIDTH 19 0
BBX 19 26 0 0
BITMAP
060C00
060C00
031800
01F000
000000
000000
006000
00F000
00F000
01F000
01B800
01B800
031C00
031C00
061C00
060E00
0C0E00
0C0700
1FFF00
1FFF00
380380
300380
3001C0
6001C0
6001C0
C000E0
ENDCHAR
STARTCHAR 04D1
ENCODING 1233
SWIDTH 540 0
DWIDTH 15 0
BBX 13 22 1 0
BITMAP
3060
3060
18C0
0F80
0000
0000
0000
1F80
7FC0
41E0
00E0
00E0
00E0
0FE0
3FE0
78E0
E0E0
E0E0
E0E0
F1E0
7F78
3C78
ENDCHAR
STARTCHAR 04D2
ENCODING 1234
SWIDTH 684 0
DWIDTH 19 0
BBX 19 24 0 0
BITMAP
031800
031800
000000
000000
006000
00F000
00F000
01F000
01B800
01B800
031C00
031C00
061C00
060E00
0C0E00
0C0700
1FFF00
1FFF00
380380
300380
3001C0
6001C0
6001C0
C000E0
ENDCHAR
STARTCHAR 04D3
ENCODING 1235
SWIDTH 540 0
DWIDTH 15 0
BBX 13 20 1 0
BITMAP
18C0
18C0
0000
0000
0000
1F80
7FC0
41E0
00E0
00E0
00E0
0FE0
3FE0
78E0
E0E0
E0E0
E0E0
F1E0
7F78
3C78
ENDCHAR
STARTCHAR 04D4
ENCODING 1236
SWIDTH 900 0
DWIDTH 25 0
BBX 24 20 0 0
BITMAP
001FFE
001FFE
003E00
003E00
006E00
00EE00
00CE00
018E00
018E00
030FFC
070FFC
060E00
0FFE00
0FFE00
180E00
380E00
300E00
600E00
600FFF
C00FFF
ENDCHAR
STARTCHAR 04D5
ENCODING 1237
SWIDTH 864 0
DWIDTH 24 0
BBX 21 15 1 0
BITMAP
1F87C0
7FFFE0
60F870
007030
007038
007038
0FFFF8
3FFFF8
787000
F07000
E07800
E07800
F1FC08
7F9FF8
3E07E0
ENDCHAR
STARTCHAR 04D6
ENCODING 1238
SWIDTH 540 0
DWIDTH 15 0
BBX 12 26 2 0
BITMAP
3060
3060
18C0
0F80
0000
0000
FFE0
FFE0
E000
E000
E000
E000
E000
E000
E000
FFC0
FFC0
E000
E000
E000
E000
E000
E000
E000
FFF0
FFF0
ENDCHAR
STARTCHAR 04D7
ENCODING 1239
SWIDTH 576 0
DWIDTH 16 0
BBX 13 22 1 0
BITMAP
3060
3060
18C0
0F80
0000
0000
0000
0FC0
3FE0
7870
7030
E038
E038
FFF8
FFF8
E000
E000
E000
7000
7808
3FF8
0FE0
ENDCHAR
STARTCHAR 04D8
ENCODING 1240
SWIDTH 684 0
DWIDTH 19 0
BBX 15 20 2 0
BITMAP
1F80
7FE0
E0F0
8038
001C
001C
000E
000E
000E
FFFE
FFFE
E00E
E00E
E01E
E01C
703C
7038
3878
3FE0
0FC0
ENDCHAR
STARTCHAR 04D9
ENCODING 1241
SWIDTH 576 0
DWIDTH 16 0
BBX 12 15 2 0
BITMAP
7E00
FF80
81C0
00E0
0060
0070
FFF0
FFF0
E070
E070
E0F0
70E0
71E0
3FC0
1F00
ENDCHAR
STARTCHAR 04DA
ENCODING 1242
SWIDTH 684 0
DWIDTH 19 0
BBX 15 24 2 0
BITMAP
3180
3180
0000
0000
1F80
7FE0
E0F0
8038
001C
001C
000E
000E
000E
FFFE
FFFE
E00E
E00E
E01E
E01C
703C
7038
3878
3FE0
0FC0
ENDCHAR
STARTCHAR 04DB
ENCODING 1243
SWIDTH 576 0
DWIDTH 16 0
BBX 12 20 2 0
BITMAP
6300
6300
0000
0000
0000
7E00
FF80
81C0
00E0
0060
0070
FFF0
FFF0
E070
E070
E0F0
70E0
71E0
3FC0
1F00
ENDCHAR
STARTCHAR 04DC
ENCODING 1244
SWIDTH 828 0
DWIDTH 23 0
BBX 21 24 1 0
BITMAP
018C00
018C00
000000
000000
607030
707070
3870E0
1870C0
0C7180
0C7180
067300
067300
037600
03FE00
07FF00
0E7380
1C71C0
1C71C0
3870C0
3870E0
3870E0
707070
707070
E07038
ENDCHAR
STARTCHAR 04DD
ENCODING 1245
SWIDTH 720 0
DWIDTH 20 0
BBX 19 20 0 0
BITMAP
018C00
018C00
000000
000000
000000
60E0C0
70E1C0
30E180
18E300
18E300
0CE600
0FFE00
07FC00
0EEE00
1CE700
3CE780
38E380
70E1C0
70E1C0
E0E0E0
ENDCHAR
STARTCHAR 04DE
ENCODING 1246
SWIDTH 540 0
DWIDTH 15 0
BBX 13 24 1 0
BITMAP
3180
3180
0000
0000
3F80
FFE0
C1E0
0070
0070
0070
0070
00E0
03C0
1F00
1FE0
01F0
0078
0038
0038
0038
0070
C0F0
FFE0
3F80
ENDCHAR
STARTCHAR 04DF
ENCODING 1247
SWIDTH 468 0
DWIDTH 13 0
BBX 10 20 1 0
BITMAP
6300
6300
0000
0000
0000
7F00
FF80
83C0
01C0
01C0
0380
1F00
1F00
0380
01C0
01C0
01C0
8380
FF80
7E00
ENDCHAR
STARTCHAR 04E0
ENCODING 1248
SWIDTH 576 0
DWIDTH 16 0
BBX 13 20 1 0
BITMAP
FFF0
FFF0
0070
00C0
0380
0700
0E00
1800
3F80
3FE0
01F0
0070
0038
0038
0038
0038
0070
C0F0
FFE0
3F80
ENDCHAR
STARTCHAR 04E1
ENCODING 1249
SWIDTH 504 0
DWIDTH 14 0
BBX 12 20 1 -5
BITMAP
FFE0
FFE0
00C0
0180
0300
0600
0C00
1800
3E00
3F80
03E0
00E0
0070
0070
0070
0070
00F0
C1E0
FFC0
3F00
ENDCHAR
STARTCHAR 04E2
ENCODING 1250
SWIDTH 756 0
DWIDTH 21 0
BBX 16 24 2 0
BITMAP
0FF8
0FF8
0000
0000
E007
E00F
E01F
E01F
E037
E037
E067
E0E7
E0C7
E187
E187
E307
E707
E607
EC07
EC07
F807
F807
F007
E007
ENDCHAR
STARTCHAR 04E3
ENCODING 1251
SWIDTH 648 0
DWIDTH 18 0
BBX 13 20 2 0
BITMAP
3FE0
3FE0
0000
0000
0000
E038
E078
E0F8
E0F8
E1B8
E1B8
E338
E738
E638
EC38
EC38
F838
F838
F038
E038
ENDCHAR
STARTCHAR 04E4
ENCODING 1252
SWIDTH 756 0
DWIDTH 21 0
BBX 16 24 2 0
BITMAP
0630
0630
0000
0000
E007
E00F
E01F
E01F
E037
E037
E067
E0E7
E0C7
E187
E187
E307
E707
E607
EC07
EC07
F807
F807
F007
E007
ENDCHAR
STARTCHAR 04E5
ENCODING 1253
SWIDTH 648 0
DWIDTH 18 0
BBX 13 20 2 0
BITMAP
18C0
18C0
0000
0000
0000
E038
E078
E0F8
E0F8
E1B8
E1B8
E338
E738
E638
EC38
EC38
F838
F838
F038
E038
ENDCHAR
STARTCHAR 04E6
ENCODING 1254
SWIDTH 792 0
DWIDTH 22 0
BBX 19 24 1 0
BITMAP
031800
031800
000000
000000
03F800
0FFE00
1E0F00
380380
7001C0
7001C0
E000E0
E000E0
E000E0
E000E0
E000E0
E000E0
E000E0
E000E0
7001C0
7001C0
380380
1E0F00
0FFE00
03F800
ENDCHAR
STARTCHAR 04E7
ENCODING 1255
SWIDTH 612 0
DWIDTH 17 0
BBX 14 20 1 0
BITMAP
0C60
0C60
0000
0000
0000
0FC0
3FF0
7870
7038
E01C
E01C
E01C
E01C
E01C
E01C
E01C
7038
7878
3FF0
0FC0
ENDCHAR
STARTCHAR 04E8
ENCODING 1256
SWIDTH 792 0
DWIDTH 22 0
BBX 19 20 1 0
BITMAP
03F800
0FFE00
1E0F00
380380
7001C0
7001C0
E000E0
E000E0
E000E0
FFFFE0
FFFFE0
E000E0
E000E0
E001E0
7001C0
7001C0
380380
1E0F00
0FFE00
03F800
ENDCHAR
STARTCHAR 04E9
ENCODING 1257
SWIDTH 612 0
DWIDTH 17 0
BBX 14 15 1 0
BITMAP
0FC0
3FF0
7870
7038
E01C
E01C
FFFC
FFFC
E01C
E01C
E01C
7038
7878
3FF0
0FC0
ENDCHAR
STARTCHAR 04EA
ENCODING 1258
SWIDTH 792 0
DWIDTH 22 0
BBX 19 24 1 0
BITMAP
031800
031800
000000
000000
03F800
0FFE00
1E0F00
380380
7001C0
7001C0
E000E0
E000E0
E000E0
FFFFE0
FFFFE0
E000E0
E000E0
E001E0
7001C0
7001C0
380380
1E0F00
0FFE00
03F800
ENDCHAR
STARTCHAR 04EB
ENCODING 1259
SWIDTH 612 0
DWIDTH 17 0
BBX 14 20 1 0
BITMAP
0C60
0C60
0000
0000
0000
0FC0
3FF0
7870
7038
E01C
E01C
FFFC
FFFC
E01C
E01C
E01C
7038
7878
3FF0
0FC0
ENDCHAR
STARTCHAR 04EE
ENCODING 1262
SWIDTH 648 0
DWIDTH 18 0
BBX 17 24 1 0
BITMAP
0FF800
0FF800
000000
000000
E00380
700300
700700
380600
380C00
1C0C00
1C1800
0E1800
0E3000
077000
076000
03E000
03C000
018000
018000
030000
070000
0E0000
7C0000
780000
ENDCHAR
STARTCHAR 04EF
ENCODING 1263
SWIDTH 540 0
DWIDTH 15 0
BBX 15 25 0 -5
BITMAP
1FF0
1FF0
0000
0000
0000
C006
600C
600C
3018
3018
1838
1830
1C70
0C60
0C60
06C0
06C0
0380
0380
0300
0300
0600
0E00
7C00
7800
ENDCHAR
STARTCHAR 04F0
ENCODING 1264
SWIDTH 648 0
DWIDTH 18 0
BBX 17 24 1 0
BITMAP
063000
063000
000000
000000
E00380
700300
700700
380600
380C00
1C0C00
1C1800
0E1800
0E3000
077000
076000
03E000
03C000
018000
018000
030000
070000
0E0000
7C0000
780000
ENDCHAR
STARTCHAR 04F1
ENCODING 1265
SWIDTH 540 0
DWIDTH 15 0
BBX 15 25 0 -5
BITMAP
0C60
0C60
0000
0000
0000
C006
600C
600C
3018
3018
1838
1830
1C70
0C60
0C60
06C0
06C0
0380
0380
0300
0300
0600
0E00
7C00
7800
ENDCHAR
STARTCHAR 04F2
ENCODING 1266
SWIDTH 648 0
DWIDTH 18 0
BBX 17 26 1 0
BITMAP
01CE00
039C00
073800
0E7000
000000
000000
E00380
700300
700700
380600
380C00
1C0C00
1C1800
0E1800
0E3000
077000
076000
03E000
03C000
018000
018000
030000
070000
0E0000
7C0000
780000
ENDCHAR
STARTCHAR 04F3
ENCODING 1267
SWIDTH 540 0
DWIDTH 15 0
BBX 15 27 0 -5
BITMAP
01CE
039C
0738
0E70
0000
0000
0000
C006
600C
600C
3018
3018
1838
1830
1C70
0C60
0C60
06C0
06C0
0380
0380
0300
0300
0600
0E00
7C00
7800
ENDCHAR
STARTCHAR 04F4
ENCODING 1268
SWIDTH 648 0
DWIDTH 18 0
BBX 14 24 1 0
BITMAP
18C0
18C0
0000
0000
E01C
E01C
E01C
E01C
E01C
E01C
E01C
E01C
E01C
E01C
703C
7FFC
1FDC
001C
001C
001C
001C
001C
001C
001C
ENDCHAR
STARTCHAR 04F5
ENCODING 1269
SWIDTH 540 0
DWIDTH 15 0
BBX 11 20 1 0
BITMAP
3180
3180
0000
0000
0000
E0E0
E0E0
E0E0
E0E0
E0E0
E0E0
E0E0
71E0
7FE0
3EE0
00E0
00E0
00E0
00E0
00E0
ENDCHAR
STARTCHAR 04F8
ENCODING 1272
SWIDTH 828 0
DWIDTH 23 0
BBX 18 24 2 0
BITMAP
031800
031800
000000
000000
E001C0
E001C0
E001C0
E001C0
E001C0
E001C0
E001C0
E001C0
E001C0
FF81C0
FFE1C0
E0F1C0
E079C0
E039C0
E039C0
E039C0
E079C0
E0F1C0
FFE1C0
FF81C0
ENDCHAR
STARTCHAR 04F9
ENCODING 1273
SWIDTH 720 0
DWIDTH 20 0
BBX 15 20 2 0
BITMAP
0630
0630
0000
0000
0000
E00E
E00E
E00E
E00E
E00E
E00E
FE0E
FF8E
E3CE
E1CE
E1CE
E1CE
E3CE
FF8E
FE0E
ENDCHAR
STARTCHAR 0591
ENCODING 1425
SWIDTH 0 0
DWIDTH 0 0
BBX 7 5 4 -7
BITMAP
10
10
7C
82
82
ENDCHAR
STARTCHAR 0592
ENCODING 1426
SWIDTH 0 0
DWIDTH 0 0
BBX 6 6 5 18
BITMAP
30
30
00
00
CC
CC
ENDCHAR
STARTCHAR 0593
ENCODING 1427
SWIDTH 0 0
DWIDTH 0 0
BBX 6 7 5 18
BITMAP
1C
E0
60
1C
60
E0
1C
ENDCHAR
STARTCHAR 0594
ENCODING 1428
SWIDTH 0 0
DWIDTH 0 0
BBX 2 6 7 18
BITMAP
C0
C0
00
00
C0
C0
ENDCHAR
STARTCHAR 0595
ENCODING 1429
SWIDTH 0 0
DWIDTH 0 0
BBX 5 6 6 18
BITMAP
98
98
80
80
98
98
ENDCHAR
STARTCHAR 0596
ENCODING 1430
SWIDTH 0 0
DWIDTH 0 0
BBX 5 5 7 -7
BITMAP
80
80
80
C0
78
ENDCHAR
STARTCHAR 0597
ENCODING 1431
SWIDTH 0 0
DWIDTH 0 0
BBX 3 3 6 18
BITMAP
40
E0
40
ENDCHAR
STARTCHAR 0598
ENCODING 1432
SWIDTH 0 0
DWIDTH 0 0
BBX 6 5 5 18
BITMAP
44
A4
A4
94
88
ENDCHAR
STARTCHAR 0599
ENCODING 1433
SWIDTH 0 0
DWIDTH 0 0
BBX 5 6 0 18
BITMAP
F0
18
08
08
08
08
ENDCHAR
STARTCHAR 059A
ENCODING 1434
SWIDTH 0 0
DWIDTH 0 0
BBX 7 5 7 -7
BITMAP
02
1E
E0
3E
02
ENDCHAR
STARTCHAR 059B
ENCODING 1435
SWIDTH 0 0
DWIDTH 0 0
BBX 6 5 6 -7
BITMAP
C4
C4
04
0C
78
ENDCHAR
STARTCHAR 059C
ENCODING 1436
SWIDTH 0 0
DWIDTH 0 0
BBX 5 6 7 18
BITMAP
78
C0
80
80
80
80
ENDCHAR
STARTCHAR 059D
ENCODING 1437
SWIDTH 0 0
DWIDTH 0 0
BBX 5 6 12 18
BITMAP
78
C0
80
80
80
80
ENDCHAR
STARTCHAR 059E
ENCODING 1438
SWIDTH 0 0
DWIDTH 0 0
BBX 8 6 5 18
BITMAP
77
88
88
88
88
88
ENDCHAR
STARTCHAR 059F
ENCODING 1439
SWIDTH 0 0
DWIDTH 0 0
BBX 16 7 1 18
BITMAP
781E
CC33
8421
8421
CC33
7C3E
0240
ENDCHAR
STARTCHAR 05A0
ENCODING 1440
SWIDTH 0 0
DWIDTH 0 0
BBX 7 7 6 18
BITMAP
3C
66
42
42
66
7C
80
ENDCHAR
STARTCHAR 05A1
ENCODING 1441
SWIDTH 0 0
DWIDTH 0 0
BBX 6 6 2 18
BITMAP
84
84
84
F8
80
80
ENDCHAR
STARTCHAR 05A3
ENCODING 1443
SWIDTH 0 0
DWIDTH 0 0
BBX 6 5 5 -7
BITMAP
04
04
04
04
FC
ENDCHAR
STARTCHAR 05A4
ENCODING 1444
SWIDTH 0 0
DWIDTH 0 0
BBX 7 5 4 -7
BITMAP
02
1E
E0
3E
02
ENDCHAR
STARTCHAR 05A5
ENCODING 1445
SWIDTH 0 0
DWIDTH 0 0
BBX 5 5 5 -7
BITMAP
08
08
08
18
F0
ENDCHAR
STARTCHAR 05A6
ENCODING 1446
SWIDTH 0 0
DWIDTH 0 0
BBX 8 5 4 -7
BITMAP
11
11
11
33
EE
ENDCHAR
STARTCHAR 05A7
ENCODING 1447
SWIDTH 0 0
DWIDTH 0 0
BBX 4 5 6 -7
BITMAP
70
80
60
10
E0
ENDCHAR
STARTCHAR 05A8
ENCODING 1448
SWIDTH 0 0
DWIDTH 0 0
BBX 5 6 6 18
BITMAP
F0
18
08
08
08
08
ENDCHAR
STARTCHAR 05A9
ENCODING 1449
SWIDTH 0 0
DWIDTH 0 0
BBX 7 7 0 18
BITMAP
78
CC
84
84
CC
7C
02
ENDCHAR
STARTCHAR 05AA
ENCODING 1450
SWIDTH 0 0
DWIDTH 0 0
BBX 7 5 5 -7
BITMAP
82
82
7C
10
10
ENDCHAR
STARTCHAR 05AB
ENCODING 1451
SWIDTH 0 0
DWIDTH 0 0
BBX 7 5 4 18
BITMAP
02
1E
E0
3E
02
ENDCHAR
STARTCHAR 05AC
ENCODING 1452
SWIDTH 0 0
DWIDTH 0 0
BBX 6 5 6 18
BITMAP
04
04
04
04
FC
ENDCHAR
STARTCHAR 05AD
ENCODING 1453
SWIDTH 0 0
DWIDTH 0 0
BBX 5 5 12 -7
BITMAP
80
80
80
C0
78
ENDCHAR
STARTCHAR 05AE
ENCODING 1454
SWIDTH 0 0
DWIDTH 0 0
BBX 6 5 -3 18
BITMAP
44
A4
A4
94
88
ENDCHAR
STARTCHAR 05AF
ENCODING 1455
SWIDTH 0 0
DWIDTH 0 0
BBX 6 6 5 18
BITMAP
78
CC
84
84
CC
78
ENDCHAR
STARTCHAR 05B0
ENCODING 1456
SWIDTH 0 0
DWIDTH 0 0
BBX 2 6 8 -8
BITMAP
C0
C0
00
00
C0
C0
ENDCHAR
STARTCHAR 05B1
ENCODING 1457
SWIDTH 0 0
DWIDTH 0 0
BBX 10 6 4 -8
BITMAP
CCC0
CCC0
0000
0000
30C0
30C0
ENDCHAR
STARTCHAR 05B2
ENCODING 1458
SWIDTH 0 0
DWIDTH 0 0
BBX 12 6 4 -8
BITMAP
FF30
0030
0000
0000
0030
0030
ENDCHAR
STARTCHAR 05B3
ENCODING 1459
SWIDTH 0 0
DWIDTH 0 0
BBX 11 6 4 -8
BITMAP
FE60
1060
1000
1000
1060
1060
ENDCHAR
STARTCHAR 05B4
ENCODING 1460
SWIDTH 0 0
DWIDTH 0 0
BBX 2 2 8 -4
BITMAP
C0
C0
ENDCHAR
STARTCHAR 05B5
ENCODING 1461
SWIDTH 0 0
DWIDTH 0 0
BBX 6 2 6 -4
BITMAP
CC
CC
ENDCHAR
STARTCHAR 05B6
ENCODING 1462
SWIDTH 0 0
DWIDTH 0 0
BBX 6 6 6 -8
BITMAP
CC
CC
00
00
30
30
ENDCHAR
STARTCHAR 05B7
ENCODING 1463
SWIDTH 0 0
DWIDTH 0 0
BBX 7 1 5 -3
BITMAP
FE
ENDCHAR
STARTCHAR 05B8
ENCODING 1464
SWIDTH 0 0
DWIDTH 0 0
BBX 7 5 5 -7
BITMAP
FE
10
10
10
10
ENDCHAR
STARTCHAR 05B9
ENCODING 1465
SWIDTH 0 0
DWIDTH 0 0
BBX 2 2 -1 18
BITMAP
C0
C0
ENDCHAR
STARTCHAR 05BB
ENCODING 1467
SWIDTH 0 0
DWIDTH 0 0
BBX 10 6 4 -8
BITMAP
C000
C000
0C00
0C00
00C0
00C0
ENDCHAR
STARTCHAR 05BC
ENCODING 1468
SWIDTH 0 0
DWIDTH 0 0
BBX 2 2 7 7
BITMAP
C0
C0
ENDCHAR
STARTCHAR 05BD
ENCODING 1469
SWIDTH 0 0
DWIDTH 0 0
BBX 1 5 7 -7
BITMAP
80
80
80
80
80
ENDCHAR
STARTCHAR 05BE
ENCODING 1470
SWIDTH 360 0
DWIDTH 10 0
BBX 8 2 1 14
BITMAP
7F
FE
ENDCHAR
STARTCHAR 05BF
ENCODING 1471
SWIDTH 0 0
DWIDTH 0 0
BBX 7 1 3 18
BITMAP
FE
ENDCHAR
STARTCHAR 05C0
ENCODING 1472
SWIDTH 252 0
DWIDTH 7 0
BBX 2 16 2 0
BITMAP
C0
C0
C0
C0
C0
C0
C0
C0
C0
C0
C0
C0
C0
C0
C0
C0
ENDCHAR
STARTCHAR 05C1
ENCODING 1473
SWIDTH 0 0
DWIDTH 0 0
BBX 2 2 17 18
BITMAP
C0
C0
ENDCHAR
STARTCHAR 05C2
ENCODING 1474
SWIDTH 0 0
DWIDTH 0 0
BBX 2 2 2 18
BITMAP
C0
C0
ENDCHAR
STARTCHAR 05C3
ENCODING 1475
SWIDTH 252 0
DWIDTH 7 0
BBX 2 16 2 0
BITMAP
C0
C0
C0
00
00
00
00
00
00
00
00
00
00
C0
C0
C0
ENDCHAR
STARTCHAR 05C4
ENCODING 1476
SWIDTH 0 0
DWIDTH 0 0
BBX 2 2 7 18
BITMAP
C0
C0
ENDCHAR
STARTCHAR 05D0
ENCODING 1488
SWIDTH 648 0
DWIDTH 18 0
BBX 15 16 2 0
BITMAP
600C
F00C
780C
3C0C
3E18
3F18
77B8
63F0
61F0
40F0
C078
C038
C01C
C01E
C00E
C004
ENDCHAR
STARTCHAR 05D1
ENCODING 1489
SWIDTH 576 0
DWIDTH 16 0
BBX 15 16 0 0
BITMAP
3FC0
7FF0
7FF8
0038
0018
0018
0018
0018
0018
0018
0018
0018
0018
7FFE
FFFE
FFFC
ENDCHAR
STARTCHAR 05D2
ENCODING 1490
SWIDTH 432 0
DWIDTH 12 0
BBX 10 16 1 0
BITMAP
1000
3C00
3E00
0F00
0300
0300
0300
0300
0300
0180
0780
0F80
3D80
F980
F1C0
40C0
ENDCHAR
STARTCHAR 05D3
ENCODING 1491
SWIDTH 504 0
DWIDTH 14 0
BBX 14 16 0 0
BITMAP
7FFC
FFFC
FFF8
0060
0060
0060
0060
0060
0060
0060
0060
0060
0060
0060
0060
0060
ENDCHAR
STARTCHAR 05D4
ENCODING 1492
SWIDTH 720 0
DWIDTH 20 0
BBX 16 16 1 0
BITMAP
7FFC
FFFE
FFFF
0007
0003
0003
0003
3003
3003
3003
3003
3003
3003
3003
3003
3003
ENDCHAR
STARTCHAR 05D5
ENCODING 1493
SWIDTH 324 0
DWIDTH 9 0
BBX 6 16 0 0
BITMAP
60
78
F8
3C
0C
0C
0C
0C
0C
0C
0C
0C
0C
0C
0C
0C
ENDCHAR
STARTCHAR 05D6
ENCODING 1494
SWIDTH 360 0
DWIDTH 10 0
BBX 9 16 0 0
BITMAP
4000
F000
FE00
3F80
1F80
1900
3000
3000
3000
3000
3000
3000
3000
3000
3000
3000
ENDCHAR
STARTCHAR 05D7
ENCODING 1495
SWIDTH 720 0
DWIDTH 20 0
BBX 16 16 1 0
BITMAP
7FFC
FFFE
FFFF
3007
3003
3003
3003
3003
3003
3003
3003
3003
3003
3003
3003
3003
ENDCHAR
STARTCHAR 05D8
ENCODING 1496
SWIDTH 648 0
DWIDTH 18 0
BBX 15 16 2 0
BITMAP
4070
C0FC
C0FC
C00E
C006
C006
4006
6006
600C
600C
6018
6078
61F0
3FC0
3F80
3C00
ENDCHAR
STARTCHAR 05D9
ENCODING 1497
SWIDTH 324 0
DWIDTH 9 0
BBX 6 10 0 6
BITMAP
60
78
FC
3C
0C
0C
0C
0C
1C
18
ENDCHAR
STARTCHAR 05DA
ENCODING 1498
SWIDTH 540 0
DWIDTH 15 0
BBX 12 20 0 -4
BITMAP
7FF0
FFF0
FFF0
0030
0030
0030
0030
0030
0030
0030
0030
0030
0030
0030
0030
0030
0030
0030
0030
0030
ENDCHAR
STARTCHAR 05DB
ENCODING 1499
SWIDTH 576 0
DWIDTH 16 0
BBX 12 16 1 0
BITMAP
3F80
7FC0
7FE0
00E0
0070
0030
0030
0030
0030
0030
0030
0060
0060
7FC0
FFC0
FFC0
ENDCHAR
STARTCHAR 05DC
ENCODING 1500
SWIDTH 540 0
DWIDTH 15 0
BBX 12 22 1 0
BITMAP
4000
C000
C000
C000
C000
C000
FFC0
FFE0
FFF0
0070
0030
0030
0030
0060
0060
00E0
00C0
0380
0F00
3E00
7800
6000
ENDCHAR
STARTCHAR 05DD
ENCODING 1501
SWIDTH 720 0
DWIDTH 20 0
BBX 16 16 1 0
BITMAP
7FFC
FFFE
FFFF
3007
3003
3003
3003
3003
3003
3003
3003
3003
3003
3FFF
3FFF
3FFE
ENDCHAR
STARTCHAR 05DE
ENCODING 1502
SWIDTH 684 0
DWIDTH 19 0
BBX 16 16 0 0
BITMAP
60F8
F1FC
73FC
3F0E
1E06
1C06
1806
1807
1803
3803
3003
3003
3003
30FF
61FF
61FE
ENDCHAR
STARTCHAR 05DF
ENCODING 1503
SWIDTH 324 0
DWIDTH 9 0
BBX 6 20 0 -4
BITMAP
40
F0
F8
3C
0C
0C
0C
0C
0C
0C
0C
0C
0C
0C
0C
0C
0C
0C
0C
0C
ENDCHAR
STARTCHAR 05E0
ENCODING 1504
SWIDTH 432 0
DWIDTH 12 0
BBX 9 16 0 0
BITMAP
0800
1E00
1F00
0780
0180
0180
0180
0180
0180
0180
0180
0180
0180
7F80
7F80
FF00
ENDCHAR
STARTCHAR 05E1
ENCODING 1505
SWIDTH 684 0
DWIDTH 19 0
BBX 17 16 0 0
BITMAP
7FFE00
FFFF00
FFFF80
300380
300180
300180
180180
180300
180300
180700
180E00
181C00
1C7800
0FF000
0FE000
0F0000
ENDCHAR
STARTCHAR 05E2
ENCODING 1506
SWIDTH 612 0
DWIDTH 17 0
BBX 15 18 0 -2
BITMAP
0806
1806
1806
0C06
0C06
0C06
0C04
060C
060C
060C
0618
0730
03F0
03E0
0FC0
7F00
FC00
E000
ENDCHAR
STARTCHAR 05E3
ENCODING 1507
SWIDTH 540 0
DWIDTH 15 0
BBX 12 20 0 -4
BITMAP
3000
7F00
7FC0
6FE0
C1F0
C070
C030
F030
6030
0030
0030
0030
0030
0030
0030
0030
0030
0030
0030
0030
ENDCHAR
STARTCHAR 05E4
ENCODING 1508
SWIDTH 576 0
DWIDTH 16 0
BBX 12 16 1 0
BITMAP
3000
3F00
3FC0
6FF0
60F0
6030
6030
7830
3030
0030
0030
0030
0030
7FF0
FFF0
FFE0
ENDCHAR
STARTCHAR 05E5
ENCODING 1509
SWIDTH 504 0
DWIDTH 14 0
BBX 13 20 0 -4
BITMAP
6018
E018
7018
7038
3830
3870
1CE0
1DC0
1F80
0E00
0C00
0C00
0C00
0C00
0C00
0C00
0C00
0C00
0C00
0C00
ENDCHAR
STARTCHAR 05E6
ENCODING 1510
SWIDTH 576 0
DWIDTH 16 0
BBX 14 16 0 0
BITMAP
300C
700C
380C
380C
1C18
0C18
0E30
0770
03E0
01C0
00E0
0070
0038
7FFC
FFFC
FFF8
ENDCHAR
STARTCHAR 05E7
ENCODING 1511
SWIDTH 684 0
DWIDTH 19 0
BBX 16 20 1 -4
BITMAP
7FFC
FFFE
FFFF
0007
0003
0003
0003
3006
3006
300C
301C
3038
30F0
33C0
3780
3600
3000
3000
3000
3000
ENDCHAR
STARTCHAR 05E8
ENCODING 1512
SWIDTH 504 0
DWIDTH 14 0
BBX 10 16 1 0
BITMAP
7F00
FF80
FFC0
01C0
00C0
00C0
00C0
00C0
00C0
00C0
00C0
00C0
00C0
00C0
00C0
00C0
ENDCHAR
STARTCHAR 05E9
ENCODING 1513
SWIDTH 720 0
DWIDTH 20 0
BBX 17 16 2 0
BITMAP
418180
C18180
C18180
C18180
C18180
C18180
630300
630300
670700
7E0600
780E00
603C00
30F800
3FF000
3FC000
3E0000
ENDCHAR
STARTCHAR 05EA
ENCODING 1514
SWIDTH 684 0
DWIDTH 19 0
BBX 16 16 0 0
BITMAP
1FFC
3FFE
3FFF
0C07
0C03
0C03
0C03
0C03
0C03
0C03
0603
0603
0703
7F03
FF03
FE03
ENDCHAR
STARTCHAR 05F0
ENCODING 1520
SWIDTH 612 0
DWIDTH 17 0
BBX 14 16 0 0
BITMAP
6060
7878
F8F8
3C3C
0C0C
0C0C
0C0C
0C0C
0C0C
0C0C
0C0C
0C0C
0C0C
0C0C
0C0C
0C0C
ENDCHAR
STARTCHAR 05F1
ENCODING 1521
SWIDTH 612 0
DWIDTH 17 0
BBX 14 16 0 0
BITMAP
6060
7878
FCF8
3C3C
0C0C
0C0C
0C0C
0C0C
1C0C
180C
000C
000C
000C
000C
000C
000C
ENDCHAR
STARTCHAR 05F2
ENCODING 1522
SWIDTH 612 0
DWIDTH 17 0
BBX 14 10 0 6
BITMAP
6060
7878
FCFC
3C3C
0C0C
0C0C
0C0C
0C0C
1C1C
1818
ENDCHAR
STARTCHAR 05F3
ENCODING 1523
SWIDTH 288 0
DWIDTH 8 0
BBX 5 7 2 11
BITMAP
38
30
70
60
60
C0
C0
ENDCHAR
STARTCHAR 05F4
ENCODING 1524
SWIDTH 504 0
DWIDTH 14 0
BBX 11 7 2 11
BITMAP
38E0
30C0
71C0
6180
6180
C300
C300
ENDCHAR
STARTCHAR 060C
ENCODING 1548
SWIDTH 324 0
DWIDTH 9 0
BBX 3 7 3 0
BITMAP
20
40
C0
C0
E0
E0
E0
ENDCHAR
STARTCHAR 061B
ENCODING 1563
SWIDTH 324 0
DWIDTH 9 0
BBX 3 16 3 0
BITMAP
20
40
C0
C0
E0
E0
E0
00
00
00
00
00
00
E0
E0
E0
ENDCHAR
STARTCHAR 061F
ENCODING 1567
SWIDTH 432 0
DWIDTH 12 0
BBX 8 20 2 0
BITMAP
1E
7F
FF
C1
C0
E0
70
78
1C
0E
06
06
06
06
06
00
00
06
06
06
ENDCHAR
STARTCHAR 0621
ENCODING 1569
SWIDTH 432 0
DWIDTH 12 0
BBX 8 12 2 0
BITMAP
07
3F
7F
F8
E0
C0
E0
78
3F
3F
FC
C0
ENDCHAR
STARTCHAR 0622
ENCODING 1570
SWIDTH 288 0
DWIDTH 8 0
BBX 8 28 0 0
BITMAP
71
FF
8E
00
00
18
18
18
18
18
18
18
18
18
18
18
18
18
18
18
18
18
18
18
18
18
18
18
ENDCHAR
STARTCHAR 0623
ENCODING 1571
SWIDTH 288 0
DWIDTH 8 0
BBX 7 33 1 0
BITMAP
06
18
20
40
20
10
0E
38
C0
00
30
30
30
30
30
30
30
30
30
30
30
30
30
30
30
30
30
30
30
30
30
30
30
ENDCHAR
STARTCHAR 0624
ENCODING 1572
SWIDTH 468 0
DWIDTH 13 0
BBX 13 33 -2 -11
BITMAP
0030
00C0
0100
0200
0100
0080
0070
01C0
0600
0000
0000
0000
01E0
03F0
07F0
0638
0E18
0C18
0E18
0FF8
07F8
03F8
0030
0030
0070
00E0
01C0
0380
0780
0F00
3E00
7C00
F800
ENDCHAR
STARTCHAR 0625
ENCODING 1573
SWIDTH 288 0
DWIDTH 8 0
BBX 7 33 1 -10
BITMAP
30
30
30
30
30
30
30
30
30
30
30
30
30
30
30
30
30
30
30
30
30
30
30
00
06
18
20
40
20
10
0E
38
C0
ENDCHAR
STARTCHAR 0626
ENCODING 1574
SWIDTH 972 0
DWIDTH 27 0
BBX 25 29 1 -6
BITMAP
06000000
18000000
20000000
40000000
20000000
10000000
0E000000
38000780
C0001F80
00003F80
00007000
0000E000
0000C000
00018000
20018000
60018000
40018000
4001FF80
C000FF80
C0007F80
C0000180
C0000300
C0000700
E0000E00
F0003C00
7C01F800
3FFFE000
1FFFC000
07FC0000
ENDCHAR
STARTCHAR 0627
ENCODING 1575
SWIDTH 288 0
DWIDTH 8 0
BBX 2 23 3 0
BITMAP
C0
C0
C0
C0
C0
C0
C0
C0
C0
C0
C0
C0
C0
C0
C0
C0
C0
C0
C0
C0
C0
C0
C0
ENDCHAR
STARTCHAR 0628
ENCODING 1576
SWIDTH 1044 0
DWIDTH 29 0
BBX 25 18 2 -6
BITMAP
00000180
00000180
00000180
40000180
C0000180
C0000180
C0000180
E0000300
F8003F00
7FFFFE00
3FFFF800
0FFFC000
00000000
00000000
00200000
00600000
00F00000
00400000
ENDCHAR
STARTCHAR 0629
ENCODING 1577
SWIDTH 540 0
DWIDTH 15 0
BBX 11 20 2 0
BITMAP
2040
70C0
79E0
2040
0000
0000
0000
0000
0400
0F00
1F80
3BC0
71C0
60E0
C060
C060
E0E0
FFC0
7F80
3E00
ENDCHAR
STARTCHAR 062A
ENCODING 1578
SWIDTH 1044 0
DWIDTH 29 0
BBX 25 16 2 0
BITMAP
00810000
01C30000
01E78000
00810000
00000180
00000180
00000180
40000180
C0000180
C0000180
C0000180
E0000300
F8003F00
7FFFFE00
3FFFF800
0FFFC000
ENDCHAR
STARTCHAR 062B
ENCODING 1579
SWIDTH 1044 0
DWIDTH 29 0
BBX 25 19 2 0
BITMAP
00080000
00180000
003C0000
00080000
00810000
01C30000
01E78000
00810180
00000180
00000180
40000180
C0000180
C0000180
C0000180
E0000300
F8003F00
7FFFFE00
3FFFF800
0FFFC000
ENDCHAR
STARTCHAR 062C
ENCODING 1580
SWIDTH 648 0
DWIDTH 18 0
BBX 16 22 1 -11
BITMAP
FF00
FFFF
FFFF
00FF
07C0
0E00
1800
3000
6020
6060
C0F0
C020
C000
C000
C000
E000
6000
7000
3C03
1FFF
0FFE
03F8
ENDCHAR
STARTCHAR 062D
ENCODING 1581
SWIDTH 648 0
DWIDTH 18 0
BBX 16 22 1 -11
BITMAP
FF00
FFFF
FFFF
00FF
07C0
0E00
1800
3000
6000
6000
C000
C000
C000
C000
C000
E000
6000
7000
3C03
1FFF
0FFE
03F8
ENDCHAR
STARTCHAR 062E
ENCODING 1582
SWIDTH 648 0
DWIDTH 18 0
BBX 16 29 1 -11
BITMAP
0040
00C0
01E0
0040
0000
0000
0000
FF00
FFFF
FFFF
00FF
07C0
0E00
1800
3000
6000
6000
C000
C000
C000
C000
C000
E000
6000
7000
3C03
1FFF
0FFE
03F8
ENDCHAR
STARTCHAR 062F
ENCODING 1583
SWIDTH 540 0
DWIDTH 15 0
BBX 12 15 1 0
BITMAP
0700
0F80
0780
01C0
00E0
00E0
0060
0070
0030
0030
0030
8070
FFE0
FFE0
7F80
ENDCHAR
STARTCHAR 0630
ENCODING 1584
SWIDTH 540 0
DWIDTH 15 0
BBX 12 22 1 0
BITMAP
0200
0600
0F00
0200
0000
0000
0000
0700
0F80
0780
01C0
00E0
00E0
0060
0070
0030
0030
0030
8070
FFE0
FFE0
7F80
ENDCHAR
STARTCHAR 0631
ENCODING 1585
SWIDTH 432 0
DWIDTH 12 0
BBX 13 21 -2 -11
BITMAP
01E0
00E0
00F0
0070
0070
0038
0038
0018
0018
0018
0030
0070
0060
00E0
01C0
0380
0700
0E00
3C00
7800
F000
ENDCHAR
STARTCHAR 0632
ENCODING 1586
SWIDTH 432 0
DWIDTH 12 0
BBX 13 28 -2 -11
BITMAP
0100
0300
0780
0100
0000
0000
0000
01E0
00E0
00F0
0070
0070
0038
0038
0018
0018
0018
0030
0070
0060
00E0
01C0
0380
0700
0E00
3C00
7800
F000
ENDCHAR
STARTCHAR 0633
ENCODING 1587
SWIDTH 1512 0
DWIDTH 42 0
BBX 38 22 2 -9
BITMAP
0000000018
0000000018
000000000C
000000180C
000000180C
000060180C
000030180C
000030180C
000038380C
40001C7C38
C0001FFFF8
C0001FEFF0
C0001BC3C0
C000180000
C000180000
C000100000
E000300000
7000E00000
7C03E00000
3FFF800000
1FFF000000
07F8000000
ENDCHAR
STARTCHAR 0634
ENCODING 1588
SWIDTH 1512 0
DWIDTH 42 0
BBX 38 29 2 -9
BITMAP
0000000800
0000001800
0000003C00
0000000800
0000008100
000001C300
000001E780
0000008118
0000000018
000000000C
000000180C
000000180C
000060180C
000030180C
000030180C
000038380C
40001C7C38
C0001FFFF8
C0001FEFF0
C0001BC3C0
C000180000
C000180000
C000100000
E000300000
7000E00000
7C03E00000
3FFF800000
1FFF000000
07F8000000
ENDCHAR
STARTCHAR 0635
ENCODING 1589
SWIDTH 1620 0
DWIDTH 45 0
BBX 41 21 2 -9
BITMAP
000000003E00
00000000FF00
00000001FF00
00006007C380
0000300F0380
0000301C0180
000038380180
000018700380
40001FC01F00
C0001FFFFE00
C0001FFFF800
C00019FFC000
C00018000000
C00018000000
C00010000000
E00030000000
7000E0000000
7C03C0000000
3FFF80000000
1FFF00000000
07F800000000
ENDCHAR
STARTCHAR 0636
ENCODING 1590
SWIDTH 1620 0
DWIDTH 45 0
BBX 41 28 2 -9
BITMAP
000000000400
000000000C00
000000001E00
000000000400
000000000000
000000000000
000000000000
000000003E00
00000000FF00
00000001FF00
00006007C380
0000300F0380
0000301C0180
000038380180
000018700380
40001FC01F00
C0001FFFFE00
C0001FFFF800
C00019FFC000
C00018000000
C00018000000
C00010000000
E00030000000
7000E0000000
7C03C0000000
3FFF80000000
1FFF00000000
07F800000000
ENDCHAR
STARTCHAR 0637
ENCODING 1591
SWIDTH 792 0
DWIDTH 22 0
BBX 20 23 0 0
BITMAP
018000
018000
018000
018000
018000
018000
018000
018000
018000
018000
018000
0183C0
018FE0
013FE0
037870
03E070
03C030
038030
070070
0E03E0
FFFFC0
FFFF80
FFF800
ENDCHAR
STARTCHAR 0638
ENCODING 1592
SWIDTH 792 0
DWIDTH 22 0
BBX 20 23 0 0
BITMAP
018000
018000
018000
018000
018080
018180
0183C0
018080
018000
018000
018000
0183C0
018FE0
013FE0
037870
03E070
03C030
038030
070070
0E03E0
FFFFC0
FFFF80
FFF800
ENDCHAR
STARTCHAR 0639
ENCODING 1593
SWIDTH 612 0
DWIDTH 17 0
BBX 14 26 2 -11
BITMAP
07E0
1FE0
1C00
3000
3000
3800
3800
1C00
1E00
0FE0
07E0
0FE0
3C00
7000
6000
C000
C000
C000
C000
C000
E000
7000
7C0C
3FFC
1FF8
07E0
ENDCHAR
STARTCHAR 063A
ENCODING 1594
SWIDTH 612 0
DWIDTH 17 0
BBX 14 33 2 -11
BITMAP
0040
00C0
01E0
0040
0000
0000
0000
07E0
1FE0
1C00
3000
3000
3800
3800
1C00
1E00
0FE0
07E0
0FE0
3C00
7000
6000
C000
C000
C000
C000
C000
E000
7000
7C0C
3FFC
1FF8
07E0
ENDCHAR
STARTCHAR 0640
ENCODING 1600
SWIDTH 432 0
DWIDTH 12 0
BBX 12 3 0 0
BITMAP
FFF0
FFF0
FFF0
ENDCHAR
STARTCHAR 0641
ENCODING 1601
SWIDTH 1260 0
DWIDTH 35 0
BBX 31 24 2 -1
BITMAP
00000010
00000030
00000078
00000010
00000000
00000000
00000000
00000078
000000FC
000001FC
0000018E
00000386
00000306
00000386
400003FE
C00003FE
C00000FE
C0000006
C000000C
E000007C
F8000FF8
7FFFFFE0
3FFFFF80
07FFE000
ENDCHAR
STARTCHAR 0642
ENCODING 1602
SWIDTH 900 0
DWIDTH 25 0
BBX 22 28 2 -11
BITMAP
000408
000E18
000F3C
000408
000000
000000
000000
0001E0
0003F0
0007F0
000638
000E18
000C18
000E18
200FF8
400FF8
4003F8
C00018
C00018
C00010
C00030
E00070
E000E0
7001C0
7C0780
3FFF00
1FFE00
07F000
ENDCHAR
STARTCHAR 0643
ENCODING 1603
SWIDTH 1152 0
DWIDTH 32 0
BBX 27 23 2 0
BITMAP
00000060
00000060
00000060
00000060
00000060
00030060
000C0060
00180060
001C0060
001E0060
00070060
00060060
000E0060
001C0060
C0000060
C0000060
C0000060
E0000060
E00001C0
F8003FC0
7FFFFF00
3FFFFC00
0FFF8000
ENDCHAR
STARTCHAR 0644
ENCODING 1604
SWIDTH 972 0
DWIDTH 27 0
BBX 22 32 2 -9
BITMAP
00000C
00000C
00000C
00000C
00000C
00000C
00000C
00000C
00000C
00000C
00000C
00000C
00000C
00000C
00000C
00000C
00000C
00000C
00000C
00000C
C0000C
C0000C
C0000C
C0000C
C0000C
C0000C
E00018
E00078
7803F0
7FFFE0
3FFF80
07F800
ENDCHAR
STARTCHAR 0645
ENCODING 1605
SWIDTH 576 0
DWIDTH 16 0
BBX 13 24 2 -11
BITMAP
0700
0F80
1FC0
19E0
18F0
1870
1838
1FF8
3FF8
7FF8
7018
C000
C000
C000
C000
C000
C000
C000
C000
C000
C000
C000
C000
C000
ENDCHAR
STARTCHAR 0646
ENCODING 1606
SWIDTH 900 0
DWIDTH 25 0
BBX 21 24 2 -9
BITMAP
000800
001800
003C00
000800
000000
000000
000000
000000
000018
000018
000018
400018
400018
C00018
C00018
C00018
C00010
C00010
E00030
7000E0
7C07C0
3FFF80
1FFF00
07F800
ENDCHAR
STARTCHAR 0647
ENCODING 1607
SWIDTH 540 0
DWIDTH 15 0
BBX 11 12 2 0
BITMAP
0400
0F00
1F80
3BC0
71C0
60E0
C060
C060
E0E0
FFC0
7F80
3E00
ENDCHAR
STARTCHAR 0648
ENCODING 1608
SWIDTH 468 0
DWIDTH 13 0
BBX 13 21 -2 -11
BITMAP
01E0
03F0
07F0
0638
0E18
0C18
0E18
0FF8
07F8
03F8
0030
0030
0070
00E0
01C0
0380
0780
0F00
3E00
7C00
F800
ENDCHAR
STARTCHAR 0649
ENCODING 1609
SWIDTH 972 0
DWIDTH 27 0
BBX 25 22 1 -6
BITMAP
00000780
00001F80
00003F80
00007000
0000E000
0000C000
00018000
20018000
60018000
40018000
4001FF80
C000FF80
C0007F80
C0000180
C0000300
C0000700
E0000E00
F0003C00
7C01F800
3FFFE000
1FFFC000
07FC0000
ENDCHAR
STARTCHAR 064A
ENCODING 1610
SWIDTH 972 0
DWIDTH 27 0
BBX 25 27 1 -11
BITMAP
00000780
00001F80
00003F80
00007000
0000E000
0000C000
00018000
20018000
60018000
40018000
4001FF80
C000FF80
C0007F80
C0000180
C0000300
C0000700
E0000E00
F0003C00
7C01F800
3FFFE000
1FFFC000
07FC0000
00000000
02040000
070C0000
079E0000
02080000
ENDCHAR
STARTCHAR 064B
ENCODING 1611
SWIDTH 0 0
DWIDTH 0 0
BBX 10 7 4 16
BITMAP
00C0
0700
3800
C0C0
0700
3800
C000
ENDCHAR
STARTCHAR 064C
ENCODING 1612
SWIDTH 0 0
DWIDTH 0 0
BBX 12 8 4 16
BITMAP
00C0
0120
F220
0A20
0920
08F0
1180
3F00
ENDCHAR
STARTCHAR 064D
ENCODING 1613
SWIDTH 0 0
DWIDTH 0 0
BBX 10 7 4 -10
BITMAP
00C0
0700
3800
C0C0
0700
3800
C000
ENDCHAR
STARTCHAR 064E
ENCODING 1614
SWIDTH 0 0
DWIDTH 0 0
BBX 10 4 4 16
BITMAP
00C0
0700
3800
C000
ENDCHAR
STARTCHAR 064F
ENCODING 1615
SWIDTH 0 0
DWIDTH 0 0
BBX 10 8 4 16
BITMAP
0600
0900
1100
1100
0E00
07C0
0C00
F000
ENDCHAR
STARTCHAR 0650
ENCODING 1616
SWIDTH 0 0
DWIDTH 0 0
BBX 10 4 4 -11
BITMAP
00C0
0700
3800
C000
ENDCHAR
STARTCHAR 0651
ENCODING 1617
SWIDTH 0 0
DWIDTH 0 0
BBX 10 8 4 16
BITMAP
0040
8840
8840
8840
8840
9480
9780
6000
ENDCHAR
STARTCHAR 0652
ENCODING 1618
SWIDTH 0 0
DWIDTH 0 0
BBX 7 8 4 16
BITMAP
10
28
44
82
82
82
84
78
ENDCHAR
STARTCHAR 0660
ENCODING 1632
SWIDTH 648 0
DWIDTH 18 0
BBX 6 6 6 7
BITMAP
20
78
FC
FC
78
20
ENDCHAR
STARTCHAR 0661
ENCODING 1633
SWIDTH 648 0
DWIDTH 18 0
BBX 2 20 8 0
BITMAP
C0
C0
C0
C0
C0
C0
C0
C0
C0
C0
C0
C0
C0
C0
C0
C0
C0
C0
C0
C0
ENDCHAR
STARTCHAR 0662
ENCODING 1634
SWIDTH 648 0
DWIDTH 18 0
BBX 12 20 4 0
BITMAP
C010
C010
C010
E030
F060
FFE0
FFC0
CF00
C000
C000
C000
C000
C000
C000
C000
C000
C000
C000
C000
C000
ENDCHAR
STARTCHAR 0663
ENCODING 1635
SWIDTH 648 0
DWIDTH 18 0
BBX 15 20 2 0
BITMAP
C086
C086
C086
E1CE
E1FC
FF7C
FE38
DC00
C000
C000
C000
C000
C000
C000
C000
C000
C000
C000
C000
C000
ENDCHAR
STARTCHAR 0664
ENCODING 1636
SWIDTH 648 0
DWIDTH 18 0
BBX 10 20 4 0
BITMAP
0180
0F80
3E00
7000
6000
7000
3800
1E00
0780
0F00
3C00
7000
E000
C000
C000
E000
7800
1F00
07C0
00C0
ENDCHAR
STARTCHAR 0665
ENCODING 1637
SWIDTH 648 0
DWIDTH 18 0
BBX 14 14 2 0
BITMAP
0100
07C0
0FE0
1CF0
3878
7038
601C
C00C
C00C
C00C
F078
7FF0
7FE0
1F80
ENDCHAR
STARTCHAR 0666
ENCODING 1638
SWIDTH 648 0
DWIDTH 18 0
BBX 10 20 2 0
BITMAP
8040
C1C0
FFC0
7FC0
3EC0
00C0
00C0
00C0
00C0
00C0
00C0
00C0
00C0
00C0
00C0
00C0
00C0
00C0
00C0
00C0
ENDCHAR
STARTCHAR 0667
ENCODING 1639
SWIDTH 648 0
DWIDTH 18 0
BBX 18 20 0 0
BITMAP
E000C0
7001C0
700180
700380
380300
380700
1C0600
1C0600
0E0C00
0E0C00
071800
071800
033800
03B000
03B000
01E000
01E000
00E000
00C000
00C000
ENDCHAR
STARTCHAR 0668
ENCODING 1640
SWIDTH 648 0
DWIDTH 18 0
BBX 18 20 0 0
BITMAP
008000
00C000
00C000
01E000
01E000
036000
037000
063000
063800
063800
0C1C00
0C1C00
180E00
180E00
300700
300700
600380
600380
C001C0
C001C0
ENDCHAR
STARTCHAR 0669
ENCODING 1641
SWIDTH 648 0
DWIDTH 18 0
BBX 9 20 3 0
BITMAP
1E00
3F00
7F00
7380
E180
C180
E180
FF80
7F80
0F80
0180
0180
0180
0180
0180
0180
0180
0180
0180
0180
ENDCHAR
STARTCHAR 066A
ENCODING 1642
SWIDTH 684 0
DWIDTH 19 0
BBX 17 20 1 0
BITMAP
000080
000100
000200
100400
3C0C00
7E0800
7E1000
3C2000
104000
008000
008000
010800
021C00
043E00
081F00
100E00
100400
200000
400000
800000
ENDCHAR
STARTCHAR 066B
ENCODING 1643
SWIDTH 324 0
DWIDTH 9 0
BBX 3 7 3 -4
BITMAP
E0
E0
E0
60
60
40
80
ENDCHAR
STARTCHAR 066C
ENCODING 1644
SWIDTH 324 0
DWIDTH 9 0
BBX 3 7 3 18
BITMAP
20
40
C0
C0
E0
E0
E0
ENDCHAR
STARTCHAR 066D
ENCODING 1645
SWIDTH 468 0
DWIDTH 13 0
BBX 9 10 2 2
BITMAP
0800
0800
0800
1C00
FF80
7F00
3E00
3E00
2200
4100
ENDCHAR
STARTCHAR 0670
ENCODING 1648
SWIDTH 0 0
DWIDTH 0 0
BBX 1 7 4 16
BITMAP
80
80
80
80
80
80
80
ENDCHAR
STARTCHAR 0671
ENCODING 1649
SWIDTH 288 0
DWIDTH 8 0
BBX 9 32 0 0
BITMAP
0300
0480
0880
0880
0500
C300
3200
0C00
0000
1800
1800
1800
1800
1800
1800
1800
1800
1800
1800
1800
1800
1800
1800
1800
1800
1800
1800
1800
1800
1800
1800
1800
ENDCHAR
STARTCHAR 0672
ENCODING 1650
SWIDTH 288 0
DWIDTH 8 0
BBX 9 32 0 0
BITMAP
0180
0600
0800
0800
0600
C180
3100
1E00
0000
1800
1800
1800
1800
1800
1800
1800
1800
1800
1800
1800
1800
1800
1800
1800
1800
1800
1800
1800
1800
1800
1800
1800
ENDCHAR
STARTCHAR 0673
ENCODING 1651
SWIDTH 288 0
DWIDTH 8 0
BBX 9 32 0 -9
BITMAP
1800
1800
1800
1800
1800
1800
1800
1800
1800
1800
1800
1800
1800
1800
1800
1800
1800
1800
1800
1800
1800
1800
1800
0000
0180
0600
0800
0800
0600
C180
3100
1E00
ENDCHAR
STARTCHAR 0674
ENCODING 1652
SWIDTH 0 0
DWIDTH 0 0
BBX 7 9 1 21
BITMAP
06
18
20
40
20
10
0E
38
C0
ENDCHAR
STARTCHAR 0675
ENCODING 1653
SWIDTH 288 0
DWIDTH 8 0
BBX 11 30 3 0
BITMAP
0060
0180
0200
0400
0200
0100
00E0
C380
CC00
C000
C000
C000
C000
C000
C000
C000
C000
C000
C000
C000
C000
C000
C000
C000
C000
C000
C000
C000
C000
C000
ENDCHAR
STARTCHAR 0676
ENCODING 1654
SWIDTH 468 0
DWIDTH 13 0
BBX 17 32 -2 -11
BITMAP
000180
000600
000800
001000
000800
000400
000380
000E00
003000
000000
000000
01E000
03F000
07F000
063800
0E1800
0C1800
0E1800
0FF800
07F800
03F800
003000
003000
007000
00E000
01C000
038000
078000
0F0000
3E0000
7C0000
F80000
ENDCHAR
STARTCHAR 0677
ENCODING 1655
SWIDTH 468 0
DWIDTH 13 0
BBX 15 32 -2 -11
BITMAP
0E06
1918
1130
1120
0F30
07DC
0C06
701C
0060
0000
0000
01E0
03F0
07F0
0638
0E18
0C18
0E18
0FF8
07F8
03F8
0030
0030
0070
00E0
01C0
0380
0780
0F00
3E00
7C00
F800
ENDCHAR
STARTCHAR 0678
ENCODING 1656
SWIDTH 972 0
DWIDTH 27 0
BBX 33 32 1 -6
BITMAP
0000000180
0000000600
0000000800
0000001000
0000000800
0000000400
0000000380
0000000E00
0000003000
0000000000
0000078000
00001F8000
00003F8000
0000700000
0000E00000
0000C00000
0001800000
2001800000
6001800000
4001800000
4001FF8000
C000FF8000
C0007F8000
C000018000
C000030000
C000070000
E0000E0000
F0003C0000
7C01F80000
3FFFE00000
1FFFC00000
07FC000000
ENDCHAR
STARTCHAR 0679
ENCODING 1657
SWIDTH 1044 0
DWIDTH 29 0
BBX 25 19 2 0
BITMAP
00200000
00200000
00260000
00290000
00310000
00210000
00FE0000
00000180
00000180
00000180
40000180
C0000180
C0000180
C0000180
E0000300
F8003F00
7FFFFE00
3FFFF800
0FFFC000
ENDCHAR
STARTCHAR 067A
ENCODING 1658
SWIDTH 1044 0
DWIDTH 29 0
BBX 25 21 2 0
BITMAP
00100000
00300000
00780000
00100000
00000000
00000000
00100000
00300000
00780000
00100180
00000180
00000180
40000180
C0000180
C0000180
C0000180
E0000300
F8003F00
7FFFFE00
3FFFF800
0FFFC000
ENDCHAR
STARTCHAR 067B
ENCODING 1659
SWIDTH 1044 0
DWIDTH 29 0
BBX 25 24 2 -12
BITMAP
00000180
00000180
00000180
40000180
C0000180
C0000180
C0000180
E0000300
F8003F00
7FFFFE00
3FFFF800
0FFFC000
00000000
00000000
00200000
00600000
00F00000
00200000
00000000
00000000
00200000
00600000
00F00000
00400000
ENDCHAR
STARTCHAR 067C
ENCODING 1660
SWIDTH 1044 0
DWIDTH 29 0
BBX 25 20 2 -5
BITMAP
00820000
01E78000
00C38180
00810180
00000180
40000180
C0000180
C0000180
C0000180
E0000180
F0000300
7C003F00
7FFFFE00
3FFFF800
0FFF8000
00460000
00820000
00820000
00840000
00780000
ENDCHAR
STARTCHAR 067D
ENCODING 1661
SWIDTH 1044 0
DWIDTH 29 0
BBX 25 19 2 0
BITMAP
00810000
01C30000
01E78000
00810000
00080000
00180000
003C0000
00080180
00000180
00000180
40000180
C0000180
C0000180
C0000180
E0000300
F8003F00
7FFFFE00
3FFFF800
0FFFC000
ENDCHAR
STARTCHAR 067E
ENCODING 1662
SWIDTH 1044 0
DWIDTH 29 0
BBX 25 23 2 -11
BITMAP
00000180
00000180
00000180
40000180
C0000180
C0000180
C0000180
E0000300
F8003F00
7FFFFE00
3FFFF800
0FFFC000
00000000
00000000
00000000
02040000
070C0000
079E0000
02040000
00200000
00600000
00F00000
00400000
ENDCHAR
STARTCHAR 067F
ENCODING 1663
SWIDTH 1044 0
DWIDTH 29 0
BBX 25 20 2 0
BITMAP
02100000
06380000
0F3C0000
02100000
00420000
00C70000
01E78000
00420000
00000180
00000180
00000180
40000180
C0000180
C0000180
C0000180
E0000300
F8003F00
7FFFFE00
3FFFF800
0FFFC000
ENDCHAR
STARTCHAR 0680
ENCODING 1664
SWIDTH 1044 0
DWIDTH 29 0
BBX 25 22 2 -10
BITMAP
00000180
00000180
00000180
40000180
C0000180
C0000180
C0000180
E0000300
F8003F00
7FFFFE00
3FFFF800
0FFFC000
00000000
00000000
00420000
00C70000
01E78000
00420000
00084000
0018E000
003CF000
00104000
ENDCHAR
STARTCHAR 0681
ENCODING 1665
SWIDTH 648 0
DWIDTH 18 0
BBX 16 33 1 -11
BITMAP
0018
0060
0080
0100
0080
0040
0038
00E0
0300
0000
0000
FF00
FFFF
FFFF
00FF
07C0
0E00
1800
3000
6000
6000
C000
C000
C000
C000
C000
E000
6000
7000
3C03
1FFF
0FFE
03F8
ENDCHAR
STARTCHAR 0682
ENCODING 1666
SWIDTH 648 0
DWIDTH 18 0
BBX 16 34 1 -11
BITMAP
0040
00C0
01E0
0040
0000
0000
0040
00C0
01E0
0040
0000
0000
FF00
FFFF
FFFF
00FF
07C0
0E00
1800
3000
6000
6000
C000
C000
C000
C000
C000
E000
6000
7000
3C03
1FFF
0FFE
03F8
ENDCHAR
STARTCHAR 0683
ENCODING 1667
SWIDTH 648 0
DWIDTH 18 0
BBX 16 22 1 -11
BITMAP
FF00
FFFF
FFFF
00FF
07C0
0E00
1800
3000
6102
6386
C3CF
C102
C000
C000
C000
E000
6000
7000
3C03
1FFF
0FFE
03F8
ENDCHAR
STARTCHAR 0684
ENCODING 1668
SWIDTH 648 0
DWIDTH 18 0
BBX 16 22 1 -11
BITMAP
FF00
FFFF
FFFF
00FF
07C0
0E00
1820
3060
60F0
6020
C000
C000
C020
C060
C0F0
E020
6000
7000
3C03
1FFF
0FFE
03F8
ENDCHAR
STARTCHAR 0685
ENCODING 1669
SWIDTH 648 0
DWIDTH 18 0
BBX 16 32 1 -11
BITMAP
0040
00C0
01E0
0040
0408
0E18
0F3C
0408
0000
0000
FF00
FFFF
FFFF
00FF
07C0
0E00
1800
3000
6000
6000
C000
C000
C000
C000
C000
E000
6000
7000
3C03
1FFF
0FFE
03F8
ENDCHAR
STARTCHAR 0686
ENCODING 1670
SWIDTH 648 0
DWIDTH 18 0
BBX 16 22 1 -11
BITMAP
FF00
FFFF
FFFF
00FF
07C0
0E00
1800
3000
6204
670C
C79E
C204
C020
C060
C0F0
E020
6000
7000
3C03
1FFF
0FFE
03F8
ENDCHAR
STARTCHAR 0687
ENCODING 1671
SWIDTH 648 0
DWIDTH 18 0
BBX 18 22 1 -11
BITMAP
FF0000
FFFF00
FFFF00
00FF00
07C000
0E0000
180000
310800
631C00
679E00
C10800
C02100
C06380
C0F3C0
C02100
E00000
600000
700000
3C0300
1FFF00
0FFE00
03F800
ENDCHAR
STARTCHAR 0688
ENCODING 1672
SWIDTH 540 0
DWIDTH 15 0
BBX 12 25 1 0
BITMAP
0400
0400
04C0
0520
0620
0420
1FC0
0000
0000
0000
0700
0F80
0780
01C0
00E0
00E0
0060
0070
0030
0030
0030
8070
FFE0
FFE0
7F80
ENDCHAR
STARTCHAR 0689
ENCODING 1673
SWIDTH 540 0
DWIDTH 15 0
BBX 12 20 1 -5
BITMAP
0700
0F80
0780
01C0
00E0
00E0
0060
0070
0030
0030
0030
8070
FFF0
FFE0
7F00
1180
2080
2080
2100
1E00
ENDCHAR
STARTCHAR 068A
ENCODING 1674
SWIDTH 540 0
DWIDTH 15 0
BBX 12 21 1 -6
BITMAP
0700
0F80
0780
01C0
00E0
00E0
0060
0070
0030
0030
0030
8070
FFE0
FFE0
7F80
0000
0000
0400
0C00
1E00
0800
ENDCHAR
STARTCHAR 068B
ENCODING 1675
SWIDTH 540 0
DWIDTH 15 0
BBX 12 31 1 -6
BITMAP
0400
0400
04C0
0520
0620
0420
1FC0
0000
0000
0000
0700
0F80
0780
01C0
00E0
00E0
0060
0070
0030
0030
0030
8070
FFE0
FFE0
7F80
0000
0000
0400
0C00
1E00
0800
ENDCHAR
STARTCHAR 068C
ENCODING 1676
SWIDTH 540 0
DWIDTH 15 0
BBX 12 22 1 0
BITMAP
1020
3860
3CF0
1020
0000
0000
0000
0700
0F80
0780
01C0
00E0
00E0
0060
0070
0030
0030
0030
8070
FFE0
FFE0
7F80
ENDCHAR
STARTCHAR 068D
ENCODING 1677
SWIDTH 540 0
DWIDTH 15 0
BBX 12 21 1 -6
BITMAP
0700
0F80
0780
01C0
00E0
00E0
0060
0070
0030
0030
0030
8070
FFE0
FFE0
7F80
0000
0000
4080
E180
F3C0
4100
ENDCHAR
STARTCHAR 068E
ENCODING 1678
SWIDTH 540 0
DWIDTH 15 0
BBX 12 26 1 0
BITMAP
0100
0300
0780
0100
1020
3860
3CF0
1020
0000
0000
0000
0700
0F80
0780
01C0
00E0
00E0
0060
0070
0030
0030
0030
8070
FFE0
FFE0
7F80
ENDCHAR
STARTCHAR 068F
ENCODING 1679
SWIDTH 540 0
DWIDTH 15 0
BBX 12 25 1 0
BITMAP
1020
3860
3CF0
1020
0100
0300
0780
0100
0000
0000
0700
0F80
0780
01C0
00E0
00E0
0060
0070
0030
0030
0030
8070
FFE0
FFE0
7F80
ENDCHAR
STARTCHAR 0690
ENCODING 1680
SWIDTH 540 0
DWIDTH 15 0
BBX 13 26 1 0
BITMAP
2100
6380
F3C0
2100
0420
0C70
1E78
0420
0000
0000
0000
0700
0F80
0780
01C0
00E0
00E0
0060
0070
0030
0030
0030
8070
FFE0
FFE0
7F80
ENDCHAR
STARTCHAR 0691
ENCODING 1681
SWIDTH 432 0
DWIDTH 12 0
BBX 13 31 -2 -11
BITMAP
0400
0400
04C0
0520
0620
0420
1FC0
0000
0000
0000
01E0
00E0
00F0
0070
0070
0038
0038
0018
0018
0018
0030
0070
0060
00E0
01C0
0380
0700
0E00
3C00
7800
F000
ENDCHAR
STARTCHAR 0692
ENCODING 1682
SWIDTH 432 0
DWIDTH 12 0
BBX 13 31 -2 -11
BITMAP
1840
0C80
0D00
0500
0700
0600
0200
0000
0000
0000
01E0
00E0
00F0
0070
0070
0038
0038
0018
0018
0018
0030
0070
0060
00E0
01C0
0380
0700
0E00
3C00
7800
F000
ENDCHAR
STARTCHAR 0693
ENCODING 1683
SWIDTH 432 0
DWIDTH 12 0
BBX 14 21 -3 -11
BITMAP
01E0
00E0
00F0
0070
0070
0038
0038
0018
0018
0018
0030
0070
0060
00E0
01F8
038C
0704
0F04
3D0C
7998
F0F0
ENDCHAR
STARTCHAR 0694
ENCODING 1684
SWIDTH 432 0
DWIDTH 12 0
BBX 14 21 -2 -11
BITMAP
01E0
00E0
00F0
0070
0070
0038
0038
0018
0018
0018
0030
0070
0060
00E0
01C0
0380
0700
0E08
3C18
783C
F010
ENDCHAR
STARTCHAR 0695
ENCODING 1685
SWIDTH 432 0
DWIDTH 12 0
BBX 13 27 -2 -17
BITMAP
01E0
00E0
00F0
0070
0070
0038
0038
0018
0018
0018
0030
0070
0060
00E0
01C0
0380
0700
0E00
3C00
7800
F308
0190
01A0
00A0
00E0
00C0
0040
ENDCHAR
STARTCHAR 0696
ENCODING 1686
SWIDTH 432 0
DWIDTH 12 0
BBX 14 21 -2 -11
BITMAP
01E0
00E0
00F0
0070
0070
0038
0438
0C18
1E18
0418
0030
0070
0060
00E0
01C0
0380
0700
0E08
3C18
783C
F010
ENDCHAR
STARTCHAR 0697
ENCODING 1687
SWIDTH 432 0
DWIDTH 12 0
BBX 13 28 -2 -11
BITMAP
1020
3860
3CF0
1020
0000
0000
0000
01E0
00E0
00F0
0070
0070
0038
0038
0018
0018
0018
0030
0070
0060
00E0
01C0
0380
0700
0E00
3C00
7800
F000
ENDCHAR
STARTCHAR 0698
ENCODING 1688
SWIDTH 432 0
DWIDTH 12 0
BBX 14 31 -2 -11
BITMAP
0040
00C0
01E0
0040
0408
0E18
0F3C
0408
0000
0000
01E0
00E0
00F0
0070
0070
0038
0038
0018
0018
0018
0030
0070
0060
00E0
01C0
0380
0700
0E00
3C00
7800
F000
ENDCHAR
STARTCHAR 0699
ENCODING 1689
SWIDTH 432 0
DWIDTH 12 0
BBX 14 32 -2 -11
BITMAP
1080
31C0
79E0
1080
0210
0638
0F3C
0210
0000
0000
0000
01E0
00E0
00F0
0070
0070
0038
0038
0018
0018
0018
0030
0070
0060
00E0
01C0
0380
0700
0E00
3C00
7800
F000
ENDCHAR
STARTCHAR 069A
ENCODING 1690
SWIDTH 1512 0
DWIDTH 42 0
BBX 38 27 2 -9
BITMAP
0000000800
0000001800
0000003C00
0000000800
0000000000
0000000018
0000000018
000000000C
000000180C
000000180C
000060180C
000030180C
000030180C
000038380C
40001C7C38
C0001FFFF8
C0001FEFF0
C0001BC3C0
C000180000
C000180000
C000100080
E000300180
7000E003C0
7C03E00080
3FFF800000
1FFF000000
07F8000000
ENDCHAR
STARTCHAR 069B
ENCODING 1691
SWIDTH 1512 0
DWIDTH 42 0
BBX 38 24 2 -11
BITMAP
0000000018
0000000018
000000000C
000000180C
000000180C
000060180C
000030180C
000030180C
000038380C
40001C7C38
C0001FFFF8
C0001FEFF0
C0001BC3C0
C000180000
C000180000
C000100000
E000300810
7000E01C30
7C03E01E78
3FFF800810
1FFF000080
07F8000180
00000003C0
0000000100
ENDCHAR
STARTCHAR 069C
ENCODING 1692
SWIDTH 1512 0
DWIDTH 42 0
BBX 38 31 2 -11
BITMAP
0000000800
0000001800
0000003C00
0000000800
0000008100
000001C300
000001E780
0000008118
0000000018
000000000C
000000180C
000000180C
000060180C
000030180C
000030180C
000038380C
40001C7C38
C0001FFFF8
C0001FEFF0
C0001BC3C0
C000180000
C000180000
C000100000
E000300810
7000E01C30
7C03E01E78
3FFF800810
1FFF000080
07F8000180
00000003C0
0000000100
ENDCHAR
STARTCHAR 069D
ENCODING 1693
SWIDTH 1620 0
DWIDTH 45 0
BBX 41 21 2 -9
BITMAP
000000003E00
00000000FF00
00000001FF00
00006007C380
0000300F0380
0000301C0180
000038380180
000018700380
40001FC01F00
C0001FFFFE00
C0001FFFF800
C00019FFC000
C00018000000
C00018000000
C00010408000
E00030E18000
7000E0F3C000
7C03C0408000
3FFF80000000
1FFF00000000
07F800000000
ENDCHAR
STARTCHAR 069E
ENCODING 1694
SWIDTH 1620 0
DWIDTH 45 0
BBX 42 32 2 -9
BITMAP
000000000400
000000000C00
000000001E00
000000000400
000000004080
00000000E180
00000000F3C0
000000004080
000000000000
000000000000
000000000000
000000003E00
00000000FF00
00000001FF00
00006007C380
0000300F0380
0000301C0180
000038380180
000018700380
40001FC01F00
C0001FFFFE00
C0001FFFF800
C00019FFC000
C00018000000
C00018000000
C00010000000
E00030000000
7000E0000000
7C03C0000000
3FFF80000000
1FFF00000000
07F800000000
ENDCHAR
STARTCHAR 069F
ENCODING 1695
SWIDTH 792 0
DWIDTH 22 0
BBX 22 23 0 0
BITMAP
018040
0180C0
0181E0
018040
018408
018E18
018F3C
018408
018000
018000
018000
0183C0
018FE0
013FE0
037870
03E070
03C030
038030
070070
0E03E0
FFFFC0
FFFF80
FFF800
ENDCHAR
STARTCHAR 06A0
ENCODING 1696
SWIDTH 612 0
DWIDTH 17 0
BBX 14 36 2 -11
BITMAP
0040
00C0
01E0
0040
0408
0E18
0F3C
0408
0000
0000
07E0
1FE0
1C00
3000
3000
3800
3800
1C00
1E00
0FE0
07E0
0FE0
3C00
7000
6000
C000
C000
C000
C000
C000
E000
7000
7C0C
3FFC
1FF8
07E0
ENDCHAR
STARTCHAR 06A1
ENCODING 1697
SWIDTH 1260 0
DWIDTH 35 0
BBX 31 17 2 -1
BITMAP
00000078
000000FC
000001FC
0000018E
00000386
00000306
00000386
400003FE
C00003FE
C00000FE
C0000006
C000000C
E000007C
F8000FF8
7FFFFFE0
3FFFFF80
07FFE000
ENDCHAR
STARTCHAR 06A2
ENCODING 1698
SWIDTH 1260 0
DWIDTH 35 0
BBX 31 22 2 -6
BITMAP
00000078
000000FC
000001FC
0000018E
00000386
00000306
00000386
400003FE
C00003FE
C00000FE
C0000006
C000000C
E000007C
F8000FF8
7FFFFFE0
3FFFFF80
07FFE000
00000000
00000010
00000030
00000078
00000020
ENDCHAR
STARTCHAR 06A3
ENCODING 1699
SWIDTH 1260 0
DWIDTH 35 0
BBX 31 29 2 -6
BITMAP
00000010
00000030
00000078
00000010
00000000
00000000
00000000
00000078
000000FC
000001FC
0000018E
00000386
00000306
00000386
400003FE
C00003FE
C00000FE
C0000006
C000000C
E000007C
F8000FF8
7FFFFFE0
3FFFFF80
07FFE000
00000000
00000800
00001800
00003C00
00001000
ENDCHAR
STARTCHAR 06A4
ENCODING 1700
SWIDTH 1260 0
DWIDTH 35 0
BBX 32 27 2 -1
BITMAP
00000010
00000030
00000078
00000010
00000102
00000386
000003CF
00000102
00000000
00000000
00000078
000000FC
000001FC
0000018E
00000386
00000306
00000386
400003FE
C00003FE
C00000FE
C0000006
C000000C
E000007C
F8000FF8
7FFFFFE0
3FFFFF80
07FFE000
ENDCHAR
STARTCHAR 06A5
ENCODING 1701
SWIDTH 1260 0
DWIDTH 35 0
BBX 32 27 2 -11
BITMAP
00000078
000000FC
000001FC
0000018E
00000386
00000306
00000386
400003FE
C00003FE
C00000FE
C0000006
C000000C
E000007C
F8000FF8
7FFFFFE0
3FFFFF80
07FFE000
00000000
00000000
00000102
00000386
000003CF
00000102
00000010
00000030
00000078
00000020
ENDCHAR
STARTCHAR 06A6
ENCODING 1702
SWIDTH 1260 0
DWIDTH 35 0
BBX 33 27 2 -1
BITMAP
0000021000
0000063800
00000F3C00
0000021000
0000004200
000000C700
000001E780
0000004200
0000000000
0000000000
0000007800
000000FC00
000001FC00
0000018E00
0000038600
0000030600
0000038600
400003FE00
C00003FE00
C00000FE00
C000000600
C000000C00
E000007C00
F8000FF800
7FFFFFE000
3FFFFF8000
07FFE00000
ENDCHAR
STARTCHAR 06A7
ENCODING 1703
SWIDTH 900 0
DWIDTH 25 0
BBX 21 28 2 -11
BITMAP
000040
0000C0
0001E0
000040
000000
000000
000000
0001E0
0003F0
0007F0
000638
000E18
000C18
000E18
200FF8
400FF8
4003F8
C00018
C00018
C00010
C00030
E00070
E000E0
7001C0
7C0780
3FFF00
1FFE00
07F000
ENDCHAR
STARTCHAR 06A8
ENCODING 1704
SWIDTH 900 0
DWIDTH 25 0
BBX 22 32 2 -11
BITMAP
000040
0000C0
0001E0
000040
000408
000E18
000F3C
000408
000000
000000
000000
0001E0
0003F0
0007F0
000638
000E18
000C18
000E18
200FF8
400FF8
4003F8
C00018
C00018
C00010
C00030
E00070
E000E0
7001C0
7C0780
3FFF00
1FFE00
07F000
ENDCHAR
STARTCHAR 06A9
ENCODING 1705
SWIDTH 1116 0
DWIDTH 31 0
BBX 28 23 2 0
BITMAP
00000010
00000070
000001E0
00000F80
00003E00
0000F800
0001E000
0001C000
0000F000
00007800
00001C00
00000E00
00000600
00000700
40000300
C0000380
C0000180
C0000180
E0000180
F8001F80
7FFFFF00
3FFFFC00
0FFFC000
ENDCHAR
STARTCHAR 06AA
ENCODING 1706
SWIDTH 936 0
DWIDTH 26 0
BBX 25 17 0 -6
BITMAP
00300000
00F00000
03F00000
07C00000
0E000000
08000000
10000000
18000000
1FFFF800
1FFFFF00
07FFFF00
00000180
00000080
E0000180
FFFFFF80
FFFFFF00
1FFFF800
ENDCHAR
STARTCHAR 06AB
ENCODING 1707
SWIDTH 1116 0
DWIDTH 31 0
BBX 28 23 2 0
BITMAP
00000010
00000070
000001E0
00000FE0
00003E30
0000FC10
0001E410
0001C430
0000F460
00007BC0
00001C00
00000E00
00000600
00000700
40000300
C0000380
C0000180
C0000180
E0000180
F8001F80
7FFFFF00
3FFFFC00
0FFFC000
ENDCHAR
STARTCHAR 06AC
ENCODING 1708
SWIDTH 1152 0
DWIDTH 32 0
BBX 27 28 2 0
BITMAP
00000200
00000600
00000F00
00000200
00000000
00000060
00000060
00000060
00000060
00000060
00030060
000C0060
00180060
001C0060
001E0060
00070060
00060060
000E0060
001C0060
C0000060
C0000060
C0000060
E0000060
E00001C0
F8003FC0
7FFFFF00
3FFFFC00
0FFF8000
ENDCHAR
STARTCHAR 06AD
ENCODING 1709
SWIDTH 1152 0
DWIDTH 32 0
BBX 27 28 2 0
BITMAP
00001000
00003000
00007800
00001000
00010200
00038660
0003CF60
00010260
00000060
00000060
00030060
000C0060
00180060
001C0060
001E0060
00070060
00060060
000E0060
001C0060
C0000060
C0000060
C0000060
E0000060
E00001C0
F8003FC0
7FFFFF00
3FFFFC00
0FFF8000
ENDCHAR
STARTCHAR 06AE
ENCODING 1710
SWIDTH 1152 0
DWIDTH 32 0
BBX 27 34 2 -11
BITMAP
00000060
00000060
00000060
00000060
00000060
00030060
000C0060
00180060
001C0060
001E0060
00070060
00060060
000E0060
001C0060
C0000060
C0000060
C0000060
E0000060
E00001C0
F8003FC0
7FFFFF00
3FFFFC00
0FFF8000
00000000
00000000
00000000
04080000
0E180000
0F3C0000
04080000
00400000
00C00000
01E00000
00800000
ENDCHAR
STARTCHAR 06AF
ENCODING 1711
SWIDTH 1116 0
DWIDTH 31 0
BBX 28 27 2 0
BITMAP
00000010
00000070
000001E0
00000F80
00003E10
0000F870
0001E1E0
00010F80
00003E00
0000F800
0001E000
0001C000
0000F000
00007800
00001C00
00000E00
00000600
00000700
40000300
C0000380
C0000180
C0000180
E0000180
F8001F80
7FFFFF00
3FFFFC00
0FFFC000
ENDCHAR
STARTCHAR 06B0
ENCODING 1712
SWIDTH 1116 0
DWIDTH 31 0
BBX 28 27 2 0
BITMAP
00000010
00000070
000001E0
00000F80
00003E10
0000F870
0001E1E0
00010FE0
00003E30
0000FC10
0001E410
0001C430
0000F460
00007BC0
00001C00
00000E00
00000600
00000700
40000300
C0000380
C0000180
C0000180
E0000180
F8001F80
7FFFFF00
3FFFFC00
0FFFC000
ENDCHAR
ENDFONT
